<?xml version="1.0" encoding="utf-8"?>
<!-- Generator: Adobe Illustrator 24.0.1, SVG Export Plug-In . SVG Version: 6.00 Build 0)  -->
<svg version="1.1" id="Layer_1" xmlns="http://www.w3.org/2000/svg" xmlns:xlink="http://www.w3.org/1999/xlink" x="0px" y="0px"
	 viewBox="0 0 1000 800" style="enable-background:new 0 0 1000 800;" xml:space="preserve">
<style type="text/css">
	.st0{fill:#9E755A;}
	.st1{fill:#926445;}
	.st2{fill:#B69883;}
	.st3{fill:#FFEBD9;}
	.st4{fill:#FF4D38;}
	.st5{fill:#76CFBC;}
	.st6{fill:#FFDE1E;}
	.st7{fill:#373737;}
	.st8{fill:#7CBD62;}
	.st9{fill:#524A41;}
	.st10{fill:#FF4C38;}
	.st11{fill:#F7D7C7;}
	.st12{fill:#C3855C;}
	.st13{fill:#FFE629;}
</style>
<g>
	<rect x="611.9" y="512.4" class="st0" width="45.1" height="203.1"/>
	<polygon class="st0" points="860.1,715.5 815,715.5 713.4,512.4 758.6,512.4 	"/>
	<polygon class="st0" points="408.8,715.5 453.9,715.5 555.5,512.4 510.3,512.4 	"/>
	<g>
		<path class="st1" d="M477.8,658.7c-6,0-10.9-4.9-10.9-10.9c0-6,4.9-10.9,10.9-10.9l314.2-0.4c0,0,0,0,0,0c6,0,10.9,4.9,10.9,10.9
			c0,6-4.9,10.9-10.9,10.9L477.8,658.7C477.9,658.7,477.9,658.7,477.8,658.7z"/>
	</g>
	<rect x="297.9" y="42.4" class="st0" width="673.1" height="43.5"/>
	<rect x="297.9" y="492.1" class="st0" width="673.1" height="43.5"/>
	<rect x="297.9" y="42.4" class="st2" width="673.1" height="14.5"/>
	<rect x="297.9" y="492.1" class="st2" width="673.1" height="14.5"/>
	<rect x="322.6" y="85.9" class="st3" width="623.8" height="406.2"/>
	<g>
		<path class="st4" d="M466.2,392.7c53.1,0,96.2-43.1,96.2-96.2h-96.2V392.7z"/>
		<path class="st5" d="M466.2,200.3c-53.1,0-96.2,43.1-96.2,96.2c0,53.1,43.1,96.2,96.2,96.2v-96.2V200.3z"/>
		<path class="st6" d="M502.2,164.3v96.2h96.2C598.4,207.3,555.3,164.3,502.2,164.3z"/>
	</g>
	<rect x="766.5" y="287.6" class="st7" width="145.1" height="2.9"/>
	<rect x="766.5" y="319.5" class="st7" width="145.1" height="2.9"/>
	<rect x="679.4" y="351.4" class="st7" width="232.1" height="2.9"/>
	<rect x="647.5" y="383.3" class="st7" width="264" height="2.9"/>
	<rect x="647.5" y="415.2" class="st7" width="264" height="2.9"/>
	<g>
		<path class="st7" d="M737.4,206.4h-89.9V157h89.9V206.4z M650.4,203.5h84.1v-43.5h-84.1V203.5z"/>
	</g>
	<g>
		<path class="st7" d="M839,206.4H749V157H839V206.4z M751.9,203.5h84.1v-43.5h-84.1V203.5z"/>
	</g>
	<g>
		<path class="st7" d="M911.5,206.4h-60.9V157h60.9V206.4z M853.5,203.5h55.1v-43.5h-55.1V203.5z"/>
	</g>
</g>
<g>
	<path class="st8" d="M55.1,442.2l55.5,55.5c6,6,6,15.6,0,21.6l0,0c-6,6-15.6,6-21.6,0l-55.5-55.5c-6-6-6-15.6,0-21.6h0
		C39.4,436.3,49.1,436.3,55.1,442.2z"/>
	<path class="st8" d="M124.2,394.7l-69.1,69.1c-6,6-15.6,6-21.6,0h0c-6-6-6-15.6,0-21.6l69.1-69.1c6-6,15.6-6,21.6,0h0
		C130.1,379.1,130.1,388.8,124.2,394.7z"/>
	<g>
		
			<rect x="199.9" y="545.3" transform="matrix(-1 -1.224647e-16 1.224647e-16 -1 447.8006 1265.1636)" class="st9" width="48" height="174.5"/>
		<path class="st7" d="M199.9,746l65.4,0v-10.2c0-8.8-7.2-16-16-16l-49.4,0V746z"/>
		<rect x="101.8" y="545.3" class="st9" width="48" height="174.5"/>
		<path class="st7" d="M149.7,746l-65.4,0v-10.2c0-8.8,7.2-16,16-16l49.4,0V746z"/>
	</g>
	<path class="st8" d="M224.7,394.7l0.5,0.5c44.9,44.9,117.7,44.9,162.6,0v0c5.9-5.9,6.5-15.6,0.8-21.7c-5.9-6.3-15.8-6.4-21.9-0.3
		l-0.5,0.5c-33,33-86.4,33-119.4,0v0c-5.9-5.9-15.6-6.5-21.7-0.8C218.7,378.7,218.6,388.7,224.7,394.7z"/>
	<path class="st8" d="M262.1,511.5H87.6V392.9c0-18.8,15.2-34,34-34h106.5c18.8,0,34,15.2,34,34V511.5z"/>
	<path class="st9" d="M217,577h-84.3c-24.9,0-45.1-20.2-45.1-45.1v-20.3h174.5v20.3C262.1,556.8,241.9,577,217,577z"/>
	<polygon class="st10" points="185.7,389.4 163.9,389.4 155.2,358.9 194.5,358.9 	"/>
	<polygon class="st10" points="185.7,389.4 163.9,389.4 155.2,489.7 174.8,502.8 194.5,489.7 	"/>
	<circle class="st11" cx="377.3" cy="383.9" r="19.6"/>
	<path class="st11" d="M88.4,524.3c7.7,7.7,20.1,7.7,27.8,0s7.7-20.1,0-27.8c-7.7-7.7-20.1-7.7-27.8,0
		C80.7,504.2,80.7,516.7,88.4,524.3z"/>
	<path class="st12" d="M376.5,384.7L376.5,384.7c-1.7-1.7-1.7-4.5,0-6.2L540,215.1c1.7-1.7,4.5-1.7,6.2,0h0c1.7,1.7,1.7,4.5,0,6.2
		L382.6,384.7C380.9,386.4,378.2,386.4,376.5,384.7z"/>
	
		<ellipse transform="matrix(0.7071 -0.7071 0.7071 0.7071 -117.7155 193.5891)" class="st13" cx="174.8" cy="238.9" rx="113.4" ry="113.4"/>
	<ellipse transform="matrix(0.1602 -0.9871 0.9871 0.1602 -210.808 317.2491)" class="st11" cx="81" cy="282.5" rx="24" ry="24"/>
	
		<ellipse transform="matrix(0.7071 -0.7071 0.7071 0.7071 -121.0913 272.6841)" class="st11" cx="268.6" cy="282.5" rx="24" ry="24"/>
	
		<ellipse transform="matrix(0.7071 -0.7071 0.7071 0.7071 -136.2229 201.2552)" class="st11" cx="174.8" cy="265.1" rx="100.3" ry="100.3"/>
	
		<ellipse transform="matrix(0.2298 -0.9732 0.9732 0.2298 -177.2563 341.051)" class="st7" cx="126.8" cy="282.5" rx="10.9" ry="10.9"/>
	
		<ellipse transform="matrix(0.2298 -0.9732 0.9732 0.2298 -103.3364 434.453)" class="st7" cx="222.8" cy="282.5" rx="10.9" ry="10.9"/>
	<path class="st4" d="M192.3,321.8c0,9.6-7.8,17.4-17.4,17.4c-9.6,0-17.4-7.8-17.4-17.4H192.3z"/>
	<path class="st13" d="M283.9,234.5H137.8c-39.8,0-72-32.2-72-72v-37.1h142.9c41.5,0,75.2,33.7,75.2,75.2V234.5z"/>
</g>
</svg>
