<?xml version="1.0" encoding="utf-8"?>
<!-- Generator: Adobe Illustrator 24.0.1, SVG Export Plug-In . SVG Version: 6.00 Build 0)  -->
<svg version="1.1" id="Layer_1" xmlns="http://www.w3.org/2000/svg" xmlns:xlink="http://www.w3.org/1999/xlink" x="0px" y="0px"
	 viewBox="0 0 1200 1200" style="enable-background:new 0 0 1200 1200;" xml:space="preserve">
<style type="text/css">
	.st0{display:none;fill:#CBD2D6;}
	.st1{fill:#CBD2D6;}
	.st2{display:none;}
	.st3{display:inline;fill:#92552E;}
	.st4{display:inline;fill:#BF7641;}
	.st5{display:inline;fill:#FAB077;}
	.st6{display:inline;fill:#FDCA93;}
	.st7{display:inline;fill:#102125;}
	.st8{display:inline;fill:#1C3036;}
	.st9{display:inline;fill:#30464C;}
	.st10{display:inline;fill:#FFFFFF;}
	.st11{display:inline;fill:#ED1A39;}
	.st12{display:inline;fill:#B9121D;}
	.st13{display:inline;fill:#BAD6E4;}
	.st14{display:inline;fill:#FBAE34;}
	.st15{display:inline;fill:#FFFFFF;stroke:#000000;stroke-linecap:round;stroke-linejoin:round;stroke-miterlimit:10;}
	.st16{display:inline;fill:#FFD459;}
	.st17{display:inline;fill:#CA7E4B;}
	.st18{display:inline;}
	.st19{fill:#5E3616;}
	.st20{fill:#FFFFFF;}
	.st21{fill:#102125;}
	.st22{fill:#1C3036;}
	.st23{fill:#30464C;}
	.st24{fill:#FAB077;}
	.st25{fill:#ED1A39;}
	.st26{fill:#B9121D;}
	.st27{fill:#BAD6E4;}
	.st28{fill:#FDCA93;}
	.st29{fill:#FBAE34;}
	.st30{fill:#FFFFFF;stroke:#000000;stroke-linecap:round;stroke-linejoin:round;stroke-miterlimit:10;}
	.st31{fill:#FFD459;}
	.st32{fill:#CA7E4B;}
	.st33{fill:#EE3047;}
	.st34{fill:#BC102C;}
	.st35{display:inline;fill:#DA8E4A;}
	.st36{display:inline;fill:#A26A35;}
	.st37{display:inline;fill:#D8D9DA;}
</style>
<g id="Object">
	<ellipse class="st0" cx="-248.03" cy="1074.04" rx="159.42" ry="33.17"/>
	<ellipse class="st0" cx="189.58" cy="1074.04" rx="159.42" ry="33.17"/>
	<ellipse class="st1" cx="614.43" cy="1074.04" rx="159.42" ry="33.17"/>
	<g class="st2">
		<path class="st3" d="M314.55,708.7c0,0,5.1,0,14.48,7.27c9.38,7.27,6.51,34.83,6.51,34.83l15.25-0.7c0,0,0.7-26.86-5.81-38.47
			c-6.51-11.61-29.73-15.95-29.73-15.95L314.55,708.7z"/>
		<path class="st3" d="M374.07,746.47c10.91,0,25.39,0,25.39,0s1.47,127.01,0.7,132.05c-0.7,5.1-26.86,10.14-26.86,10.14
			l-22.52-55.12l-1.47-44.27L374.07,746.47z"/>
		<path class="st4" d="M218.8,742.06c3.64-5.1,155.27,4.34,155.27,4.34s3.64,136.39-0.7,142.19c-4.34,5.81-133.52,1.47-143.66-0.7
			C219.5,885.79,218.8,742.06,218.8,742.06z"/>
		<path class="st5" d="M309.51,649.95c0,0,0,10.91,5.81,22.52c5.81,11.61,3.64,25.39,3.64,25.39l-16.71,6.51l-25.33-5.29
			l-5.87-23.73l7.97-29.03l15.25-3.64L309.51,649.95z"/>
		<path class="st6" d="M288.46,717.44c10.46-2.62,10.14,0.7,14.48,0c4.34-0.7,2.87,4.34,10.91,2.87c8.04-1.47,9.44,0,10.91-4.34
			c1.47-4.34-0.7-29.03-7.27-29.03c-6.51,0-10.91,6.51-10.91,6.51s-7.27-13.08-12.31-10.14c-5.1,2.87-5.1,8.68-5.1,8.68
			s-2.17-7.97-8.68-4.34C273.91,691.29,279.72,719.61,288.46,717.44z"/>
		<path class="st7" d="M277.68,1035.38c13.97,6.7,28,13.4,41.98,20.09c2.62,1.28,5.49,2.74,6.63,5.36c1.28,2.93,0.06,6.51-2.23,8.8
			c-2.3,2.3-5.42,3.44-8.48,4.4c-13.72,4.15-28.26,4.21-42.55,4.27c-11.29,0-23.6-0.32-32.34-7.53c-9.31-7.59-11.61-22.45-5.1-32.53
			C242.14,1028.17,266.83,1030.21,277.68,1035.38z"/>
		<path class="st7" d="M122.41,1035.38c-13.97,6.7-28,13.4-41.98,20.09c-2.62,1.28-5.49,2.74-6.63,5.36
			c-1.28,2.93-0.06,6.51,2.23,8.8c2.3,2.3,5.42,3.44,8.48,4.4c13.72,4.15,28.26,4.21,42.55,4.27c11.29,0,23.6-0.32,32.34-7.53
			c9.31-7.59,11.61-22.45,5.1-32.53C157.94,1028.17,133.25,1030.21,122.41,1035.38z"/>
		<path class="st8" d="M279.78,699c0,0-147.04-20.29-152.85-9.7c-5.81,10.65-24.18,331.85-14.48,341.54
			c9.7,9.7,55.12,10.65,59.96,4.85s8.68-275.71,13.52-281.51c4.85-5.81,23.22-8.68,26.09-0.96c2.87,7.72,8.68,282.53,17.42,285.4
			c8.74,2.87,54.16,3.89,59.01-5.81c4.85-9.7-11.61-333.76-11.61-333.76h2.93V699z"/>
		<path class="st9" d="M234.36,386.55c0,0,17.42,6.76,22.26,12.57c4.85,5.81,36.74,282.53,30.94,302.82
			c-5.81,20.29-156.74,19.33-173.19,11.61c-16.46-7.72-1.02-290.83,6.76-305.05c7.78-14.23,22.9-17.61,22.9-17.61L234.36,386.55z"/>
		<path class="st10" d="M161,411.3l31.51-7.08l37.64,14.35l-0.57,54.54c0,0-31.64,95.82-32.79,94.67
			c-1.15-1.15-26.6-108.7-26.6-108.7L161,411.3z"/>
		<path class="st9" d="M256.56,399.12c18.05,9.89,57.22,192.78,59.45,253c0,0-21.05,5.8-39.17,5.1
			c-18.12-0.7-23.22-166.88-23.22-166.88L256.56,399.12z"/>
		<path class="st5" d="M216.95,351.72c0,0,2.87,30.94,4.85,49.31c1.91,18.37-73.55,5.81-73.55,5.81s15.5-42.55,15.5-61.94
			C163.74,325.5,216.95,351.72,216.95,351.72z"/>
		<polygon class="st11" points="198.32,432.55 211.08,492.19 197.55,568.87 167.76,507.82 187.28,429.61 		"/>
		<path class="st12" d="M210.25,418.83c0,0-1.72,21.5-17.8,21.5c-16.14,0-19.52-25.39-19.52-25.39l20.35-11.74L210.25,418.83z"/>
		<path class="st13" d="M144.03,381.7l49.25,21.56c0,0-15.25,33.24-25.45,34.19s-19.52-20.54-19.52-20.54L144.03,381.7z"/>
		<ellipse class="st5" cx="97.91" cy="265.6" rx="23.22" ry="24.18"/>
		<ellipse class="st5" cx="258.54" cy="265.6" rx="23.22" ry="24.18"/>
		<path class="st6" d="M260.58,240.47c0,0,16.08,124.78-65.2,130.58c-83.95,6-96.39-88.99-91.67-140.28
			c4.72-51.29,61.43-67.75,61.43-67.75l70.87-1.91l26.47,27.11l2.81,33.87L260.58,240.47z"/>
		<path class="st14" d="M254.26,106.57c-5.29-0.19-9.19,4.66-12.95,8.36c-13.08,12.95-32.98,15.88-51.35,15.57
			c-18.37-0.38-37.06-3.25-54.99,0.77c-26.98,6.06-49.5,28.83-55.24,55.88c-5.74,27.11,12.38,74.64,27.88,73.49
			c10.65-1.72,1.53-44.08,14.67-61.05c5.87-7.59,15.88-10.84,25.45-11.1c9.57-0.26,19.01,2.04,28.45,3.51
			c23.48,3.64,47.72,2.36,70.62-3.89c1.53,19.01,3,38.02,4.53,57.03c0.19,2.68,0.51,5.61,2.36,7.53c2.81,2.93,8.04,2.11,10.91-0.7
			c2.93-2.81,4.02-7.02,4.72-11.04c3.57-20.48-0.64-42.04,5.68-61.88c6.38-20.09,23.28-37.51,22.01-58.56
			c-0.38-6.25-3.64-13.4-9.82-14.29c-12.69-1.72-14.93,22.14-27.62,23.73c2.3-4.21,4.27-8.93,3.76-13.72
			S259.11,106.76,254.26,106.57z"/>
		<path class="st8" d="M144.03,381.7c-3-4.27-16.33,13.97-18.88,22.26c-2.55,8.29,16.33,65.58,16.33,65.58l21.24-4.59l-10.21,24.94
			c0,0,41.59,72.15,44.97,79.55C197.49,569.38,189.83,446.39,144.03,381.7z"/>
		<path class="st13" d="M225.49,383.55c0,0-28,18.69-32.28,19.71c-4.27,0.96,15.25,24.43,22.9,30.3c7.66,5.87,22.9-19.52,22.9-19.52
			L225.49,383.55z"/>
		<path class="st8" d="M197.49,569.38c-1.47,2.42,13.59-160.88,28-185.89c0,0,7.91-1.72,12.12,0.13c4.27,1.85,9.06,62.77,7.4,65.51
			c-1.72,2.74-13.59,11.1-13.59,11.1l9.31,19.39C240.8,479.69,204.32,558.28,197.49,569.38z"/>
		<path class="st6" d="M79.03,675.27c0,0,8.68,12.57,18.37,26.09c9.7,13.52,18.37,23.22,8.68,24.18c-9.7,0.96-14.48-6.76-14.48-6.76
			s9.7,28.07,2.87,30.94c-6.76,2.87-15.5,0-15.5,0s-3.89,6.76-13.52,2.87c0,0-12.57,2.87-18.37-4.85
			c-5.81-7.72-7.72-59.96,2.87-76.42C60.66,654.99,79.03,675.27,79.03,675.27z"/>
		<path class="st15" d="M256.56,399.12"/>
		<path class="st9" d="M121.45,409.58c-15.44,15.63-42.93,55.12-61.56,107.04c-23.22,64.81-19.46,166.43-11.16,165.41
			c17.35-1.98,36.17-1.91,38.98-3.89c2.81-1.91-1.85-42.55,4.66-89.95c4.15-30.05,14.16-67.05,21.05-90.14
			c2.74-44.72,6.19-80.38,8.8-87.39C121.96,410.28,121.7,409.96,121.45,409.58z"/>
		<path class="st15" d="M286.99,698.56"/>
		<circle class="st8" cx="198.26" cy="598.92" r="9.7"/>
		<circle class="st8" cx="198.26" cy="665.64" r="9.7"/>
		<path class="st16" d="M229.39,131.26c-19.14,7.91-38.47,12.18-59.2,12.31c-10.21,0.06-20.41,0.06-30.43,2.36
			c-8.23,1.91-17.16,5.68-22.2,12.76c-0.96,1.34,0.89,3.06,2.23,2.23c7.53-4.91,14.8-8.29,23.73-9.76
			c10.53-1.66,21.5-0.57,32.09-0.57c19.27,0.06,39.68-3.25,56.01-14.03C234.17,134.83,232.58,129.92,229.39,131.26z"/>
		<path class="st16" d="M264.85,143.38c-10.21,6.12-20.22,12.38-31.26,16.78c-11.1,4.4-22.77,6.63-34.7,6.7
			c-12.95,0.06-25.64-3.06-38.59-3c-10.53,0.06-22.52,2.81-29.85,10.84c-1.28,1.34,0.45,3.96,2.11,2.68
			c21.43-16.2,47.33-2.36,71.13-2.23c23.35,0.13,49.63-8.48,66.02-25.52C272.76,146.38,268.81,141.02,264.85,143.38z"/>
		<path class="st16" d="M120.37,182.67c-11.74-2.55-19.84,13.59-19.27,23.16c0.13,2.49,3.51,3.64,4.85,1.34
			c2.36-4.02,3.44-8.61,5.68-12.76c2.11-3.96,5.61-5.61,9.25-7.72C122.47,185.74,122.28,183.06,120.37,182.67z"/>
		<path class="st16" d="M109.97,172.91c-6.25-1.53-10.97,3.32-15.05,7.4c-4.21,4.15-7.72,9.12-6.76,15.25
			c0.32,2.04,3.19,1.66,3.76,0c1.34-3.96,3.44-7.4,6.12-10.53c2.87-3.38,6.57-8.17,11.35-8.04
			C111.69,176.93,112.2,173.42,109.97,172.91z"/>
		<path class="st8" d="M162.6,631.32c-4.66-3.06-9.19-6.38-13.46-9.95c-4.47-3.7-8.04-8.23-12.18-12.18
			c-1.4-1.34-3.57,0.38-2.62,2.04c2.87,5.04,7.46,9.38,11.74,13.27c4.47,4.08,9.38,7.27,14.8,9.89
			C162.85,635.4,164.51,632.6,162.6,631.32z"/>
		<path class="st8" d="M263.13,607.08c-10.84,7.53-19.58,17.48-32.73,21.24c-1.91,0.57-1.15,3.38,0.83,3
			c13.14-2.62,25.58-11.1,34.26-21.12C266.9,608.55,265.05,605.74,263.13,607.08z"/>
		<path class="st8" d="M261.41,434.78c-0.19-1.21-2.3-0.96-2.17,0.32c1.98,17.48,3,35.02,5.55,52.44c0.19,1.34,2.36,1.02,2.36-0.32
			C266.77,469.61,264.02,452.07,261.41,434.78z"/>
		<path class="st8" d="M270.15,508.39c-0.83-3.44-1.66-6.89-2.04-10.4c-0.26-2.11-3.57-2.11-3.32,0c0.45,3.89,1.21,7.53,2.68,11.16
			C268.17,510.76,270.6,510.18,270.15,508.39z"/>
		<path class="st8" d="M121.13,426.42c-1.91,8.04-3.83,16.33-4.08,24.62c0,1.15,1.85,1.47,2.11,0.26c1.4-8.1,1.98-16.33,3.51-24.5
			C122.85,425.85,121.39,425.4,121.13,426.42z"/>
		<path class="st8" d="M116.41,473.56c-0.26-2.04-0.32-4.08-0.19-6.12c0.13-1.79-2.81-1.85-2.87,0c-0.06,2.17,0.19,4.27,0.83,6.38
			C114.56,475.03,116.54,474.84,116.41,473.56z"/>
		<path class="st8" d="M118.45,1049.29c-2.36-1.72-5.42-2.17-8.23-2.87c0.51-2.49,0.77-5.1,0.7-7.59c-0.06-2.36-3.76-3-4.21-0.57
			c-0.45,2.3-1.02,4.47-1.66,6.63c-2.17-0.7-4.4-1.4-6.57-1.85c-1.98-0.45-3.32,2.36-1.4,3.38c2.11,1.15,4.4,2.04,6.7,2.81
			c-0.57,1.85-1.15,3.64-1.66,5.49c-0.51,1.91,2.11,3.7,3.44,2.04c1.4-1.72,2.55-3.7,3.38-5.81c3,1.02,6.06,2.04,9.19,1.59
			C119.73,1052.28,119.54,1050.05,118.45,1049.29z"/>
		<path class="st8" d="M303.58,1044.25c-1.98-1.21-4.47-1.79-7.14-1.91c0.06-1.66,0.26-3.25,0.32-4.98
			c0.06-1.91-2.93-2.87-3.76-1.02c-0.7,1.66-1.28,3.76-1.59,6.06c-2.55,0.19-5.04,0.57-7.14,0.96c-1.85,0.32-1.4,3.32,0.45,3.25
			c2.23-0.13,4.4-0.06,6.57,0.06c0.19,2.87,0.96,5.55,2.68,7.27c0.96,0.96,3,0.64,3.25-0.83c0.32-1.98-0.06-3.76-0.45-5.68
			c1.91,0.38,3.83,0.89,5.74,0.7C304.53,1047.88,305.43,1045.39,303.58,1044.25z"/>
		<path class="st4" d="M381.59,752.21c-0.13-1.98-3.19-2.04-3.13,0c0.13,2.36,0.06,4.72,0,7.02c-0.06,1.4,2.04,1.66,2.42,0.32
			C381.59,757.06,381.78,754.82,381.59,752.21z"/>
		<path class="st4" d="M381.98,768.73c0-1.98-3.06-1.98-3.13,0c-0.06,2.17-0.13,4.21,0.26,6.32c0.19,1.28,2.36,1.28,2.62,0
			C382.1,773,382.04,770.9,381.98,768.73z"/>
		<path class="st4" d="M381.15,786.14c-0.89-0.26-1.66,0.45-1.72,1.28c0,0.7-0.06,1.4-0.06,2.11c-0.06,1.28,1.79,1.47,2.17,0.32
			c0.19-0.7,0.38-1.34,0.64-2.04C382.29,787.1,381.85,786.34,381.15,786.14z"/>
		<path class="st4" d="M380.76,796.35c-0.64,0-1.34,0.57-1.28,1.28l0.19,2.11c0.13,1.4,2.04,1.4,2.17,0l0.19-2.11
			C382.1,796.93,381.4,796.35,380.76,796.35z"/>
		<path class="st4" d="M382.29,813.83c-0.32-1.53-2.81-0.83-2.36,0.64c0.51,1.72,0.64,3.57,0.45,5.29
			c-0.13,0.89,1.21,0.89,1.47,0.19C382.74,817.98,382.8,816,382.29,813.83z"/>
		<path class="st4" d="M380.76,827.67c-0.96,0-1.53,0.77-1.66,1.66c-0.19,1.91-0.32,3.76-0.26,5.61c0.06,1.4,2.11,1.72,2.49,0.32
			c0.51-1.98,0.83-3.96,1.08-6C382.49,828.44,381.59,827.67,380.76,827.67z"/>
		<path class="st4" d="M381.85,843.75c-0.19-2.11-3.13-1.72-2.87,0.38c0.32,2.42,0.13,5.1-0.51,7.46c-0.26,1.08,1.28,1.79,1.79,0.77
			C381.66,849.62,382.17,846.87,381.85,843.75z"/>
		<path class="st4" d="M379.93,862.76c-0.13-1.72-2.81-1.72-2.68,0c0.19,2.23,0.19,4.47,0.7,6.63c0.32,1.28,2.04,0.83,2.17-0.32
			C380.32,867.03,380.06,864.86,379.93,862.76z"/>
		<path class="st4" d="M380.89,876.28c-0.83-0.26-1.98,0.26-2.11,1.21c-0.19,1.34-0.38,2.62-0.38,3.96c0,0.57,0.45,1.15,1.02,1.28
			c0.77,0.19,1.4-0.26,1.66-0.96c0.45-1.15,0.77-2.23,1.08-3.44C382.29,877.49,381.78,876.54,380.89,876.28z"/>
		<path class="st4" d="M398.37,751.82c-0.06-0.77-0.57-1.4-1.4-1.4c-0.7,0-1.47,0.64-1.4,1.4c0.06,1.28,0,2.62-0.13,3.89
			c-0.13,1.15,1.79,1.66,2.23,0.57C398.31,754.82,398.5,753.48,398.37,751.82z"/>
		<path class="st4" d="M394.67,767.33c0,1.4,0.06,2.81,0.19,4.21c0.13,1.34,1.98,1.34,2.11,0c0.13-1.4,0.19-2.81,0.19-4.21
			C397.16,765.73,394.67,765.73,394.67,767.33z"/>
		<path class="st4" d="M395.18,780.02c-0.26,1.79-0.51,3.51-0.51,5.29c0,1.08,1.59,1.28,1.85,0.26c0.51-1.72,0.7-3.44,0.96-5.23
			C397.73,778.62,395.37,778.3,395.18,780.02z"/>
		<path class="st4" d="M394.41,792.33c0,2.17,0.06,4.21,0.26,6.32c0.13,1.21,1.72,1.21,1.85,0c0.19-2.11,0.26-4.21,0.26-6.32
			C396.78,790.8,394.41,790.8,394.41,792.33z"/>
		<path class="st4" d="M394.1,807.51c-0.13,1.28-0.32,2.55-0.38,3.89c0,0.89,1.28,1.02,1.53,0.19c0.38-1.28,0.64-2.55,0.96-3.83
			C396.58,806.24,394.29,805.92,394.1,807.51z"/>
		<path class="st4" d="M396.33,819.19c-0.26-1.47-2.49-0.83-2.23,0.64c0.26,1.28,0.19,2.62,0.19,3.89c0,1.08,1.47,1.15,1.79,0.26
			C396.71,822.38,396.58,820.78,396.33,819.19z"/>
		<path class="st4" d="M396.97,829.4c-0.19-1.28-2.42-0.96-2.3,0.32c0.26,1.85,0.38,3.76,0.89,5.55c0.32,1.08,1.98,0.89,2.04-0.26
			C397.6,833.1,397.29,831.25,396.97,829.4z"/>
		<path class="st4" d="M396.65,842.54c-1.02,0-1.79,1.02-1.47,1.98c0.13,0.57,0.32,1.08,0.45,1.66c0.26,1.02,1.79,1.02,2.11,0
			c0.13-0.57,0.32-1.08,0.45-1.66C398.37,843.56,397.67,842.54,396.65,842.54z"/>
		<path class="st4" d="M398.18,855.74c0-2.42-3.76-2.42-3.76,0c0,1.72-0.06,3.38,0.38,4.98c0.45,1.47,2.55,1.47,3,0
			C398.24,859.06,398.11,857.4,398.18,855.74z"/>
		<path class="st4" d="M398.18,868.05c-0.06-0.83-0.64-1.53-1.53-1.53c-0.77,0-1.66,0.7-1.53,1.53c0.19,1.4,0.06,2.81,0,4.21
			c-0.06,1.15,1.72,1.72,2.3,0.64C398.11,871.37,398.31,869.78,398.18,868.05z"/>
		<path class="st17" d="M192.71,298.01c3.19-0.57,12.31-3.13,9.25-7.97c-2.55-4.08-5.93-7.59-8.68-11.48
			c-0.89-1.34,0.96-3.25,2.23-2.23c3,2.23,5.61,5.04,8.04,7.91c2.17,2.55,4.66,5.17,4.53,8.74c-0.32,6.95-9.76,10.21-15.37,9.31
			C190.6,301.84,190.66,298.33,192.71,298.01z"/>
		<path class="st14" d="M211.27,219.1c6.63-1.72,16.39,0.45,18.5,7.97c0.83,2.93-2.04,6-5.1,5.1c-3.76-1.15-6.25-2.87-10.21-1.34
			C207.25,233.52,203.61,221.14,211.27,219.1z"/>
		<path class="st14" d="M143.59,227.71c1.98-3.44,4.85-5.29,8.48-6.76c3.64-1.47,9.31-1.47,11.93,1.85
			c2.62,3.38,2.23,7.14-1.28,9.76c-2.36,1.72-5.36,1.4-8.1,1.4c-1.53,0-3.64,0.57-5.49,1.02
			C144.99,235.94,141.35,231.6,143.59,227.71z"/>
		<g class="st18">
			<path class="st19" d="M215.03,243.47c1.21-0.45,2.62-0.57,4.34-0.26c11.23,2.23,9.95,21.56,0.19,25.01
				c-4.91,1.72-7.21-2.36-8.17-6.06c-0.7-1.59-1.08-3.32-1.28-5.04C209.48,252.59,210.31,245.32,215.03,243.47z"/>
			<path class="st20" d="M218.03,249.21c0.32-0.57,1.02-1.21,1.72-1.28c0.26-0.06,0.57-0.06,0.83-0.13c0.7,0,1.02,0.19,1.59,0.45
				c0.38,0.19,0.7,0.51,1.02,0.83c1.02,0.96,1.21,2.3,0.77,3.57c-0.38,1.15-1.34,1.91-2.55,1.98c-0.13,0-0.26,0-0.38,0
				c-0.89-0.06-1.59-0.32-2.23-0.96c-0.32-0.32-0.45-0.51-0.64-0.89c-0.32-0.64-0.57-1.28-0.51-2.04
				C217.65,250.17,217.78,249.78,218.03,249.21z"/>
		</g>
		<g class="st18">
			<path class="st19" d="M154.94,248.63c1.21-0.45,2.62-0.57,4.34-0.26c11.23,2.23,9.95,21.56,0.19,25.01
				c-4.91,1.72-7.21-2.36-8.17-6.06c-0.7-1.59-1.08-3.32-1.28-5.04C149.39,257.76,150.22,250.48,154.94,248.63z"/>
			<path class="st20" d="M157.94,254.38c0.32-0.57,1.02-1.21,1.72-1.28c0.26-0.06,0.57-0.06,0.83-0.13c0.7,0,1.02,0.19,1.59,0.45
				c0.38,0.19,0.7,0.51,1.02,0.83c1.02,0.96,1.21,2.3,0.77,3.57c-0.38,1.15-1.34,1.91-2.55,1.98c-0.13,0-0.26,0-0.38,0
				c-0.89-0.06-1.59-0.32-2.23-0.96c-0.32-0.32-0.45-0.51-0.64-0.89c-0.32-0.64-0.57-1.28-0.51-2.04
				C157.56,255.33,157.62,254.95,157.94,254.38z"/>
		</g>
		<path class="st17" d="M181.16,318.49c8.17,1.72,17.48,5.04,24.69-1.02c1.4-1.15,3.13,0.57,1.98,1.98
			c-6.89,8.29-18.82,7.02-27.81,3.25C177.46,321.61,178.35,317.85,181.16,318.49z"/>
		<path class="st17" d="M191.3,328.18c1.34,0,2.74,0,4.08-0.26c1.85-0.32,2.62,2.36,0.77,2.81c-1.79,0.45-3.44,0.57-5.17-0.06
			C189.64,330.22,189.83,328.18,191.3,328.18z"/>
	</g>
	<g>
		<path class="st21" d="M695.32,1035.38c13.97,6.7,28,13.4,41.98,20.09c2.62,1.28,5.49,2.74,6.63,5.36c1.28,2.93,0.06,6.51-2.23,8.8
			s-5.42,3.44-8.48,4.4c-13.72,4.15-28.26,4.21-42.55,4.27c-11.29,0-23.6-0.32-32.34-7.53c-9.31-7.59-11.61-22.45-5.1-32.53
			C659.73,1028.17,684.48,1030.21,695.32,1035.38z"/>
		<path class="st21" d="M540.12,1035.38c-13.97,6.7-28,13.4-41.98,20.09c-2.62,1.28-5.49,2.74-6.63,5.36
			c-1.28,2.93-0.06,6.51,2.23,8.8c2.3,2.3,5.42,3.44,8.48,4.4c13.72,4.15,28.26,4.21,42.55,4.27c11.29,0,23.6-0.32,32.34-7.53
			c9.31-7.59,11.61-22.45,5.1-32.53C575.58,1028.17,550.9,1030.21,540.12,1035.38z"/>
		<path class="st22" d="M697.49,699c0,0-147.04-20.29-152.85-9.7c-5.81,10.65-24.18,331.85-14.48,341.54
			c9.7,9.7,55.12,10.65,59.96,4.85c4.85-5.81,8.68-275.71,13.52-281.51c4.85-5.81,23.22-8.68,26.09-0.96
			c2.87,7.72,8.68,282.53,17.42,285.4s54.16,3.89,59.01-5.81c4.85-9.7-11.61-333.76-11.61-333.76h2.93V699z"/>
		<path class="st23" d="M652.01,386.55c0,0,17.42,6.76,22.26,12.57c4.85,5.81,36.74,282.53,30.94,302.82
			c-5.81,20.29-156.74,19.33-173.19,11.61c-16.46-7.72-1.02-290.83,6.76-305.05c7.78-14.23,22.9-17.61,22.9-17.61L652.01,386.55z"/>
		<path class="st20" d="M578.9,411.88l31.51-7.08l37.64,14.35l-0.57,54.54c0,0-31.64,95.82-32.79,94.67
			c-1.15-1.15-26.6-108.7-26.6-108.7L578.9,411.88z"/>
		<path class="st24" d="M706.87,371.05c0,0-23.22-18.37-27.56-28.07c-4.34-9.7,13.08-20.29,13.08-20.29l34.32,3.38
			c0,0,8.23,20.8,6.76,37.25C732,379.79,706.87,371.05,706.87,371.05z"/>
		<path class="st23" d="M701.06,371.56c3.38-2.42,37.7-14.99,41.59-13.08c3.89,1.91,48.86,114.63,48.35,144.17
			s-26.6,36.3-39.68,31.45s-71.57-53.2-71.57-53.2l-13.52-72.08l8.68-8.23l55.12,52.76L701.06,371.56z"/>
		<path class="st23" d="M718.48,268.54c0,0-13.52-45.93-19.84-47.91c-6.32-1.98-45.93,14.48-53.2,21.75
			c-7.27,7.27,26.6,102.07,31.9,103.98s43.06-11.1,49.31-14.99C732.89,327.48,719.88,274.79,718.48,268.54z"/>
		<path class="st22" d="M711.08,271.73c0,0-10.4-36.11-15.25-37.57c-4.85-1.53-35.34,11.42-40.95,17.1
			c-5.61,5.68,20.48,80.12,24.56,81.65s33.11-8.74,37.96-11.8C722.24,318.04,712.16,276.7,711.08,271.73z"/>
		<path class="st24" d="M634.59,351.72c0,0,2.87,30.94,4.85,49.31c1.91,18.37-73.55,5.81-73.55,5.81s15.5-42.55,15.5-61.94
			C581.39,325.5,634.59,351.72,634.59,351.72z"/>
		<polygon class="st25" points="616.03,432.55 628.79,492.19 615.33,569 585.47,507.82 604.99,429.61 		"/>
		<path class="st26" d="M627.89,418.83c0,0-1.72,21.5-17.8,21.5c-16.14,0-19.52-25.39-19.52-25.39l20.35-11.74L627.89,418.83z"/>
		<path class="st27" d="M561.74,381.7l49.25,21.56c0,0-15.25,33.24-25.45,34.19c-10.21,0.96-19.52-20.54-19.52-20.54L561.74,381.7z"
			/>
		<ellipse class="st24" cx="515.62" cy="265.6" rx="23.22" ry="24.18"/>
		<ellipse class="st24" cx="676.18" cy="265.6" rx="23.22" ry="24.18"/>
		<path class="st28" d="M678.22,240.47c0,0,16.08,124.78-65.2,130.58c-83.95,6-96.39-88.99-91.67-140.28
			c4.72-51.29,61.43-67.75,61.43-67.75l70.87-1.91l26.47,27.11l2.81,33.87L678.22,240.47z"/>
		<path class="st29" d="M671.97,106.57c-5.29-0.19-9.19,4.66-12.95,8.36c-13.08,12.95-32.98,15.88-51.35,15.57
			c-18.37-0.32-37.06-3.25-54.99,0.77c-26.98,6.06-49.5,28.83-55.24,55.88c-5.74,27.05,12.38,74.64,27.88,73.49
			c10.65-1.72,1.53-44.08,14.67-61.05c5.87-7.59,15.88-10.84,25.45-11.1c9.57-0.26,19.01,2.04,28.45,3.51
			c23.48,3.64,47.72,2.36,70.62-3.89c1.53,19.01,3,38.02,4.53,57.03c0.19,2.68,0.51,5.61,2.36,7.53c2.81,2.93,8.04,2.11,10.91-0.7
			c2.93-2.81,4.02-7.02,4.72-11.04c3.57-20.48-0.64-42.04,5.68-61.88c6.38-20.09,23.28-37.51,22.01-58.56
			c-0.38-6.25-3.64-13.4-9.82-14.29c-12.69-1.72-14.93,22.14-27.62,23.73c2.3-4.21,4.27-8.93,3.76-13.72
			C680.46,111.48,676.82,106.76,671.97,106.57z"/>
		<path class="st22" d="M561.74,381.7c-3-4.27-16.33,13.97-18.82,22.26c-2.49,8.29,16.33,65.58,16.33,65.58l21.24-4.59l-10.21,24.94
			c0,0,41.59,72.15,44.97,79.55C615.2,569.38,607.54,446.39,561.74,381.7z"/>
		<path class="st27" d="M643.2,383.55c0,0-28,18.69-32.28,19.71c-4.27,0.96,15.25,24.43,22.9,30.3s22.9-19.52,22.9-19.52
			L643.2,383.55z"/>
		<path class="st22" d="M615.2,569.38c-1.47,2.42,13.59-160.88,28-185.89c0,0,7.91-1.72,12.12,0.13c4.27,1.85,9.06,62.77,7.4,65.51
			c-1.72,2.74-13.59,11.1-13.59,11.1l9.31,19.39C658.45,479.69,621.96,558.28,615.2,569.38z"/>
		<path class="st28" d="M500.56,673.87c0,0,8.68,12.57,18.37,26.09c9.7,13.52,18.37,23.22,8.68,24.18
			c-9.7,0.96-14.48-6.76-14.48-6.76s9.7,28.07,2.87,30.94s-15.5,0-15.5,0s-3.89,6.76-13.52,2.87c0,0-12.57,2.87-18.37-4.85
			c-5.81-7.72-7.72-59.96,2.87-76.42C482.19,653.59,500.56,673.87,500.56,673.87z"/>
		<path class="st30" d="M674.27,399.12"/>
		<path class="st23" d="M539.61,410.54c-15.44,15.63-42.93,55.12-61.56,107.04c-23.22,64.81-19.46,166.43-11.16,165.41
			c17.35-1.98,36.17-1.91,38.98-3.89c2.81-1.91-1.85-42.55,4.66-89.95c4.15-30.05,14.16-67.05,21.05-90.14
			c2.74-44.72,6.19-80.38,8.8-87.39C540.12,411.24,539.86,410.92,539.61,410.54z"/>
		<path class="st30" d="M704.7,698.56"/>
		<circle class="st22" cx="615.9" cy="598.92" r="9.7"/>
		<circle class="st22" cx="615.9" cy="665.64" r="9.7"/>
		<path class="st28" d="M722.3,256.93c-7.14-2.23-22.58,0-20.03,6.76c2.62,6.76,10.33,7.72,10.33,7.72s-13.52,4.34-11.1,8.68
			c2.42,4.34,14.48,5.81,14.48,5.81s-9.7,6.32-4.34,11.1c5.29,4.85,14.03,2.87,17.93,0.51C733.47,295.14,730.09,259.29,722.3,256.93
			z"/>
		<path class="st31" d="M648.88,128.13c-19.14,7.91-38.47,12.18-59.2,12.31c-10.21,0.06-20.41,0.06-30.43,2.36
			c-8.23,1.91-17.16,5.68-22.2,12.76c-0.96,1.34,0.89,3.06,2.23,2.23c7.53-4.91,14.8-8.29,23.73-9.76
			c10.53-1.66,21.5-0.57,32.09-0.57c19.27,0.06,39.68-3.25,56.01-14.03C653.73,131.7,652.13,126.79,648.88,128.13z"/>
		<path class="st31" d="M684.41,140.19c-10.21,6.12-20.22,12.38-31.26,16.78c-11.1,4.4-22.77,6.63-34.7,6.7
			c-12.95,0.06-25.64-3.06-38.59-3c-10.53,0.06-22.52,2.81-29.85,10.84c-1.28,1.34,0.45,3.96,2.11,2.68
			c21.43-16.2,47.33-2.36,71.13-2.23c23.35,0.13,49.63-8.48,66.02-25.52C692.32,143.19,688.37,137.83,684.41,140.19z"/>
		<path class="st31" d="M539.92,179.55c-11.74-2.55-19.84,13.59-19.27,23.16c0.13,2.49,3.51,3.64,4.85,1.34
			c2.36-4.02,3.44-8.61,5.68-12.76c2.11-3.96,5.61-5.61,9.25-7.72C542.03,182.61,541.84,179.93,539.92,179.55z"/>
		<path class="st31" d="M529.53,169.72c-6.25-1.53-10.97,3.32-15.05,7.4c-4.21,4.15-7.72,9.12-6.76,15.25
			c0.32,2.04,3.19,1.66,3.76,0c1.34-3.96,3.44-7.4,6.12-10.53c2.87-3.38,6.57-8.17,11.35-8.04
			C531.25,173.81,531.76,170.3,529.53,169.72z"/>
		<path class="st22" d="M593.32,633.75c-14.8-2.55-28.83-9.95-37.83-22.14c-1.59-2.11-5.17-0.13-3.57,2.11
			c9.51,13.59,24.18,22.9,40.89,23.92C594.98,637.7,595.49,634.13,593.32,633.75z"/>
		<path class="st22" d="M678.42,609.5c-5.61,3.38-10.84,7.14-16.01,11.1c-5.23,3.96-10.84,8.61-17.48,9.82
			c-2.23,0.38-1.72,4.08,0.51,3.96c6.76-0.38,12.12-3.83,17.67-7.4c6.44-4.21,12.38-8.8,17.93-14.1
			C682.75,611.16,680.46,608.23,678.42,609.5z"/>
		<path class="st22" d="M538.97,425.66c-4.4,12.38-7.21,25.77-6.7,38.98c0.06,1.79,2.49,1.72,2.68,0
			c1.47-12.95,3.38-25.58,7.34-38.08C542.99,424.44,539.73,423.62,538.97,425.66z"/>
		<path class="st22" d="M530.55,478.73c0.06,1.28,0.13,2.49,0.19,3.76c0.06,1.34,1.98,1.34,2.04,0c0.06-1.28,0.13-2.49,0.19-3.76
			C533.1,477.14,530.48,477.14,530.55,478.73z"/>
		<path class="st22" d="M675.1,410.54c-0.77-1.59-3.06-0.19-2.36,1.34c5.87,12.57,8.1,25.52,10.21,39.1c0.26,1.72,2.93,1.28,3-0.38
			C686.07,436.76,681.22,422.72,675.1,410.54z"/>
		<path class="st22" d="M687.41,462.02c-0.32-1.66-2.81-0.96-2.49,0.7c0.45,2.3,0.57,4.78,0.51,7.14c0,1.02,1.53,1.28,1.79,0.26
			C687.98,467.31,687.98,464.76,687.41,462.02z"/>
		<path class="st22" d="M540.24,1047.18c-3.06-1.53-6.7-1.72-10.08-2.3c-0.13,0-0.26-0.06-0.38-0.06c0.13-2.36,0.13-4.72,0.26-6.89
			c0.19-2.23-3.57-2.74-3.96-0.51c-0.38,2.11-0.96,4.34-1.4,6.63l-5.68-0.89c-1.79-0.32-2.62,2.3-0.77,2.81
			c1.98,0.51,3.89,1.02,5.87,1.53c-0.26,1.91-0.32,3.83,0,5.68c0.32,1.79,3.25,2.17,3.96,0.51c0.64-1.47,1.08-3.13,1.34-4.78
			c3.19,0.83,6.57,2.11,9.82,1.98C541.07,1050.69,542.03,1048.07,540.24,1047.18z"/>
		<path class="st22" d="M721.22,1046.48c-2.23-1.21-4.72-1.21-7.21-1.15c0.64-1.85,1.15-3.64,1.79-5.36
			c0.96-2.55-3.32-4.34-4.4-1.85c-1.02,2.42-2.3,4.91-3.38,7.46c-2.11,0.13-4.15,0.26-6.25,0.38c-3,0.19-3.06,4.59,0,4.66
			c1.47,0.06,2.93,0.13,4.4,0.13c-0.26,0.89-0.38,1.72-0.51,2.62c-0.32,2.42,3,2.62,4.15,1.15c0.77-1.02,1.47-2.23,2.04-3.44
			c0.13,0,0.26,0,0.45,0c3.19,0.19,6.06,0.64,8.99-0.57C722.88,1049.8,722.69,1047.24,721.22,1046.48z"/>
		<path class="st32" d="M610.8,297.69c3.19-0.57,12.31-3.13,9.25-7.97c-2.55-4.08-5.93-7.59-8.68-11.48
			c-0.89-1.34,0.96-3.25,2.23-2.23c3,2.23,5.61,5.04,8.04,7.91c2.17,2.55,4.66,5.17,4.53,8.74c-0.32,6.95-9.76,10.21-15.37,9.31
			C608.69,301.58,608.69,298.07,610.8,297.69z"/>
		<path class="st29" d="M629.3,218.84c6.63-1.72,16.39,0.45,18.5,7.97c0.83,2.93-2.04,6-5.1,5.1c-3.76-1.15-6.25-2.87-10.21-1.34
			C625.28,233.26,621.64,220.82,629.3,218.84z"/>
		<path class="st29" d="M561.61,227.39c1.98-3.44,4.85-5.29,8.48-6.76c3.64-1.47,9.31-1.47,11.93,1.85
			c2.62,3.38,2.23,7.14-1.28,9.76c-2.36,1.72-5.36,1.4-8.1,1.4c-1.53,0-3.64,0.57-5.49,1.02
			C563.02,235.68,559.44,231.28,561.61,227.39z"/>
		<g>
			<path class="st19" d="M633.12,243.15c1.21-0.45,2.62-0.57,4.34-0.26c11.23,2.23,9.95,21.56,0.19,25.01
				c-4.91,1.72-7.21-2.36-8.17-6.06c-0.7-1.59-1.08-3.32-1.28-5.04C627.57,252.27,628.34,245,633.12,243.15z"/>
			<path class="st20" d="M636.06,248.95c0.32-0.57,1.02-1.21,1.72-1.28c0.26-0.06,0.57-0.06,0.83-0.13c0.7,0,1.02,0.19,1.59,0.45
				c0.38,0.19,0.7,0.51,1.02,0.83c1.02,0.96,1.21,2.3,0.77,3.57c-0.38,1.15-1.34,1.91-2.55,1.98c-0.13,0-0.26,0-0.38,0
				c-0.89-0.06-1.59-0.32-2.23-0.96c-0.32-0.32-0.45-0.51-0.64-0.89c-0.32-0.64-0.57-1.28-0.51-2.04
				C635.68,249.85,635.8,249.46,636.06,248.95z"/>
		</g>
		<g>
			<path class="st19" d="M573.03,248.32c1.21-0.45,2.62-0.57,4.34-0.26c11.23,2.23,9.95,21.56,0.19,25.01
				c-4.91,1.72-7.21-2.36-8.17-6.06c-0.7-1.59-1.08-3.32-1.28-5.04C567.48,257.44,568.25,250.17,573.03,248.32z"/>
			<path class="st20" d="M575.97,254.12c0.32-0.57,1.02-1.21,1.72-1.28c0.26-0.06,0.57-0.06,0.83-0.13c0.7,0,1.02,0.19,1.59,0.45
				c0.38,0.19,0.7,0.51,1.02,0.83c1.02,0.96,1.21,2.3,0.77,3.57c-0.38,1.15-1.34,1.91-2.55,1.98c-0.13,0-0.26,0-0.38,0
				c-0.89-0.06-1.59-0.32-2.23-0.96c-0.32-0.32-0.45-0.51-0.64-0.89c-0.32-0.64-0.57-1.28-0.51-2.04
				C575.58,255.01,575.71,254.63,575.97,254.12z"/>
		</g>
		<path class="st33" d="M600.72,317.59c2.42-5.29,28.2-5.68,33.81-2.36c5.61,3.25,2.49,19.33-14.42,20.86
			C603.14,337.5,598.93,321.42,600.72,317.59z"/>
		<path class="st34" d="M636.5,324.23c1.15-3.89,0.38-7.65-2.04-8.99c-5.61-3.25-31.39-2.93-33.81,2.36
			c-0.77,1.59-0.45,5.36,1.4,9.06c5.8-3.25,12.38-5.17,19.07-5.23C626.43,321.29,631.66,322.25,636.5,324.23z"/>
	</g>
	<g class="st2">
		<path class="st7" d="M-327.64,1035.38c-13.97,6.7-28,13.4-41.98,20.09c-2.62,1.28-5.49,2.74-6.63,5.36
			c-1.28,2.93-0.06,6.51,2.23,8.8c2.3,2.3,5.42,3.44,8.48,4.4c13.72,4.15,28.26,4.21,42.55,4.27c11.29,0,23.6-0.32,32.34-7.53
			c9.31-7.59,11.61-22.45,5.1-32.53C-292.11,1028.17-316.8,1030.21-327.64,1035.38z"/>
		<path class="st7" d="M-172.38,1035.38c13.97,6.7,28,13.4,41.98,20.09c2.62,1.28,5.49,2.74,6.63,5.36c1.28,2.93,0.06,6.51-2.23,8.8
			c-2.3,2.3-5.42,3.44-8.48,4.4c-13.72,4.15-28.26,4.21-42.55,4.27c-11.29,0-23.6-0.32-32.34-7.53c-9.31-7.59-11.61-22.45-5.1-32.53
			C-207.91,1028.17-183.22,1030.21-172.38,1035.38z"/>
		<path class="st8" d="M-326.88,699c0,0-16.46,324.13-11.61,333.76c4.85,9.63,50.33,8.68,59.01,5.81s14.48-277.69,17.42-285.4
			c2.87-7.72,21.31-4.85,26.09,0.96c4.85,5.8,8.68,275.71,13.52,281.51c4.85,5.81,50.33,4.85,59.96-4.85
			c9.63-9.7-8.68-330.89-14.48-341.54c-5.81-10.65-152.85,9.7-152.85,9.7"/>
		<path class="st9" d="M-284.33,386.55c0,0-17.42,6.76-22.26,12.57s-36.74,282.53-30.94,302.82
			c5.81,20.29,156.74,19.33,173.19,11.61c16.46-7.72,1.02-290.83-6.76-305.05c-7.78-14.23-79.36,4.15-79.36,4.15L-284.33,386.55z"/>
		<path class="st10" d="M-273.61,409.26l31.9-5.1l36.62,16.71l-13.78,46.31c0,0-27.81,101.75-28.9,100.47
			c-1.08-1.28-19.71-110.17-19.71-110.17L-273.61,409.26z"/>
		<path class="st5" d="M-266.91,351.72c0,0-2.87,30.94-4.85,49.31c-1.91,18.37,73.55,5.81,73.55,5.81s-15.5-42.55-15.5-61.94
			C-213.71,325.5-266.91,351.72-266.91,351.72z"/>
		<path class="st6" d="M-419.57,455.06c0,0,0.77-19.01-15.05-26.86c-15.82-7.91-19.84-11.16-26.54-22.33
			c-6.7-11.16-25.58,4.27-7.21,17.03c0,0-19.39-5.93-31.19-23.73s-19.14-20.03-23.28-13.2c-4.15,6.83,5.42,35.09,25.2,43.12
			c19.78,8.1,35.53,26.09,48.35,37.06C-436.47,477.14-419.57,455.06-419.57,455.06z"/>
		<path class="st9" d="M-305.57,398.42c0,0-0.38,0.83-1.15,2.3c-7.66,14.86-50.52,97.92-54.92,103.22
			c-4.85,5.81-50.33-71.57-56.14-72.53c-5.81-0.96-38.72,34.83-40.64,40.64c-1.91,5.81,70.62,96.77,86.12,101.56
			c15.5,4.85,49.31-43.51,61.94-69.66"/>
		<polygon class="st11" points="-248.29,432.55 -261.05,492.19 -247.71,568.49 -217.73,507.82 -237.25,429.61 		"/>
		<path class="st12" d="M-260.22,418.83c0,0,1.72,21.5,17.8,21.5s19.52-25.39,19.52-25.39l-20.35-11.74L-260.22,418.83z"/>
		<path class="st13" d="M-194,381.7l-49.25,21.56c0,0,15.25,33.24,25.45,34.19c10.21,0.96,19.52-20.54,19.52-20.54L-194,381.7z"/>
		<ellipse class="st5" cx="-147.88" cy="265.6" rx="23.22" ry="24.18"/>
		<ellipse class="st5" cx="-308.51" cy="265.6" rx="23.22" ry="24.18"/>
		<path class="st6" d="M-310.55,240.47c0,0-16.08,124.78,65.2,130.58c83.95,6,96.39-88.99,91.67-140.28
			c-4.72-51.29-61.43-67.75-61.43-67.75l-70.87-1.91l-26.47,27.11l-2.81,33.87L-310.55,240.47z"/>
		<path class="st14" d="M-304.23,106.57c5.29-0.19,9.19,4.66,12.95,8.36c13.08,12.95,32.98,15.88,51.35,15.57
			c18.37-0.32,37.06-3.25,54.99,0.77c26.98,6.06,49.5,28.83,55.24,55.88c5.74,27.11-12.38,74.64-27.88,73.49
			c-10.65-1.72-1.53-44.08-14.67-61.05c-5.87-7.59-15.88-10.84-25.45-11.1c-9.57-0.26-19.01,2.04-28.45,3.51
			c-23.48,3.64-47.72,2.36-70.62-3.89c-1.53,19.01-3,38.02-4.53,57.03c-0.19,2.68-0.51,5.61-2.36,7.53
			c-2.81,2.93-8.04,2.11-10.91-0.7c-2.93-2.81-4.02-7.02-4.72-11.04c-3.57-20.48,0.64-42.04-5.68-61.88
			c-6.38-20.09-23.28-37.51-22.01-58.56c0.38-6.25,3.64-13.4,9.82-14.29c12.69-1.72,14.93,22.14,27.62,23.73
			c-2.3-4.21-4.27-8.93-3.76-13.72C-312.78,111.48-309.08,106.76-304.23,106.57z"/>
		<path class="st8" d="M-194,381.7c3-4.27,20.35,18.5,22.9,26.79s-20.35,61.05-20.35,61.05l-21.24-4.59l10.21,24.94
			c0,0-41.59,72.15-44.97,79.55C-247.46,569.38-239.8,446.39-194,381.7z"/>
		<path class="st13" d="M-275.46,383.55c0,0,28,18.69,32.28,19.71s-15.25,24.43-22.9,30.3c-7.66,5.87-22.9-19.52-22.9-19.52
			L-275.46,383.55z"/>
		<path class="st8" d="M-247.46,569.38c1.47,2.42-13.59-160.88-28-185.89c0,0-7.65-1.85-11.87,0c-4.27,1.85-9.31,62.9-7.66,65.64
			c1.72,2.74,13.59,11.1,13.59,11.1l-9.38,19.46C-290.77,479.69-254.22,558.28-247.46,569.38z"/>
		<path class="st35" d="M-123.7,572.31c0,0-93.84,0-106.4,5.8c-12.57,5.81,3.89,149.02,10.65,154.82
			c6.76,5.81,178.04,11.61,199.29,0.96s-5.81-155.78-8.68-161.58C-31.78,566.51-90.79,571.36-123.7,572.31z"/>
		<path class="st6" d="M-127.59,673.87c0,0-8.68,12.57-18.37,26.09c-9.7,13.52-18.37,23.22-8.68,24.18
			c9.7,0.96,14.48-6.76,14.48-6.76s-9.7,28.07-2.87,30.94c6.76,2.87,15.5,0,15.5,0s3.89,6.76,13.52,2.87c0,0,12.57,2.87,18.37-4.85
			s7.72-59.96-2.87-76.42S-127.59,673.87-127.59,673.87z"/>
		<path class="st9" d="M-108.46,515.22c-18.75-52.37-46.57-92.12-61.94-107.49c-0.19,0.32-0.38,0.64-0.57,0.96
			c2.68,5.55,6.19,41.98,9.06,87.91c6.83,23.09,16.9,60.09,21.05,90.14c6.51,47.4,1.85,88.03,4.66,89.95
			c2.81,1.91,21.63,1.85,38.98,3.89C-88.94,681.59-85.24,580.03-108.46,515.22z"/>
		<circle class="st8" cx="-247.52" cy="606.19" r="9.7"/>
		<circle class="st8" cx="-250.46" cy="672.91" r="9.7"/>
		<path class="st16" d="M-280.31,131.96c19.14,7.91,38.47,12.18,59.2,12.31c10.21,0.06,20.41,0.06,30.43,2.36
			c8.23,1.91,17.16,5.68,22.2,12.76c0.96,1.34-0.89,3.06-2.23,2.23c-7.53-4.91-14.8-8.29-23.73-9.76
			c-10.53-1.66-21.5-0.57-32.09-0.57c-19.27,0.06-39.68-3.25-56.01-14.03C-285.16,135.53-283.5,130.62-280.31,131.96z"/>
		<path class="st16" d="M-315.78,144.02c10.21,6.12,20.22,12.38,31.26,16.78c11.1,4.4,22.77,6.63,34.7,6.7
			c12.95,0.06,25.64-3.06,38.59-3c10.53,0.06,22.52,2.81,29.85,10.84c1.28,1.34-0.45,3.96-2.11,2.68
			c-21.43-16.2-47.33-2.36-71.13-2.23c-23.35,0.13-49.63-8.48-66.02-25.52C-323.69,147.01-319.73,141.66-315.78,144.02z"/>
		<path class="st16" d="M-171.29,183.31c11.74-2.55,19.84,13.59,19.27,23.16c-0.13,2.49-3.51,3.64-4.85,1.34
			c-2.36-4.02-3.44-8.61-5.68-12.76c-2.11-3.96-5.61-5.61-9.25-7.72C-173.4,186.37-173.2,183.76-171.29,183.31z"/>
		<path class="st16" d="M-160.89,173.55c6.25-1.53,10.97,3.32,15.05,7.4c4.21,4.15,7.72,9.12,6.76,15.25
			c-0.32,2.04-3.19,1.66-3.76,0c-1.34-3.96-3.44-7.4-6.12-10.53c-2.87-3.38-6.57-8.17-11.35-8.04
			C-162.68,177.63-163.13,174.13-160.89,173.55z"/>
		<path class="st36" d="M-165.87,638.91c-6.51-0.77-11.8,5.61-11.16,11.74c0.32,3.19,1.79,5.8,3.89,7.59
			c0.19,0.13,0.38,0.32,0.57,0.45c0.06,0.06,0.06,0.06,0.13,0.13c0.89,0.64,1.85,1.15,2.93,1.53c6.19,1.98,13.2-1.79,14.23-8.36
			C-154.13,644.85-159.11,639.74-165.87,638.91z"/>
		<path class="st36" d="M-177.22,635.85c-7.14-9.25-15.44-17.8-23.41-26.28c-8.55-9.12-17.35-17.93-26.35-26.54
			c-1.28-1.21-3.13,0.7-1.91,1.91c8.48,8.55,16.71,17.29,24.82,26.15c8.1,8.87,15.57,18.37,23.73,27.18
			C-178.82,639.87-175.82,637.64-177.22,635.85z"/>
		<path class="st36" d="M-172.95,666.53c-6.7,10.4-13.27,20.86-19.65,31.45c-3.32,5.49-6.51,11.04-9.63,16.59
			c-2.62,4.59-7.34,10.4-7.46,15.88c0,1.4,1.72,2.55,3,1.72c4.21-2.93,6.19-9.19,8.55-13.59c3-5.68,6.12-11.29,9.12-16.9
			c6.06-11.29,12.25-22.52,18.63-33.62C-169.38,666.34-171.93,664.94-172.95,666.53z"/>
		<path class="st36" d="M-30.5,576.72c-0.38-0.57-0.83-0.96-1.47-1.28c-0.57-0.38-1.4-0.51-2.04-0.7c-0.89-0.26-1.85,0.32-2.11,1.21
			c-0.26,0.96,0.32,1.79,1.21,2.11c0.51,0.19,1.02,0.45,1.59,0.64c0.57,0.26,1.47,0.13,2.04,0C-30.5,578.5-29.99,577.42-30.5,576.72
			z"/>
		<path class="st36" d="M-30.44,582.71l-1.79-0.26c-0.7-0.13-1.4,0.32-1.4,1.08c0,0.77,0.7,1.21,1.4,1.08
			c0.57-0.06,1.21-0.19,1.79-0.26C-29.67,584.18-29.67,582.84-30.44,582.71z"/>
		<path class="st36" d="M-30.82,591.26c-0.32-0.06-0.57-0.13-0.89-0.19c-0.89-0.26-1.85,0.45-1.85,1.4c0,0.96,0.96,1.66,1.85,1.4
			c0.32-0.06,0.57-0.13,0.89-0.19C-29.67,593.3-29.67,591.52-30.82,591.26z"/>
		<path class="st36" d="M-27.63,600.06c-0.45-0.19-0.96-0.51-1.47-0.51c-0.38,0-0.77,0-1.15,0c-0.96,0-1.72,0.77-1.72,1.72
			c0,0.96,0.77,1.66,1.72,1.72c0.32,0,0.7,0,1.02,0c0.57,0,1.08-0.26,1.59-0.51C-26.67,602.17-26.67,600.51-27.63,600.06z"/>
		<path class="st36" d="M-25.4,612.5l-0.26-0.26c-0.32-0.32-0.64-0.45-1.02-0.57c-0.38-0.13-0.77-0.26-1.15-0.38
			c-0.96-0.32-2.04,0.38-2.3,1.34c-0.26,0.89,0.32,2.17,1.34,2.3c0.32,0.06,0.7,0.13,1.02,0.19c0.45,0.06,0.83,0.13,1.21,0.06
			l0.51-0.13C-25.02,614.74-24.57,613.27-25.4,612.5z"/>
		<path class="st36" d="M-24.51,621.05c-0.26-0.32-0.45-0.57-0.77-0.7c-0.26-0.13-0.51-0.19-0.77-0.32
			c-0.45-0.19-0.89-0.32-1.4-0.19c-0.45,0.13-0.83,0.45-1.08,0.83c-0.57,1.02-0.06,2.36,1.08,2.68c0.26,0.06,0.51,0.13,0.77,0.19
			c0.51,0.13,0.96,0.06,1.47-0.06c0.51-0.13,0.89-0.51,1.02-1.02C-24,621.88-24.19,621.43-24.51,621.05z"/>
		<path class="st36" d="M-22.15,630.3c-1.08-0.96-2.36-1.53-3.89-1.34c-1.08,0.13-1.98,0.83-1.98,1.98c0,1.34,1.28,2.17,2.49,1.91
			c0.06,0,0.06,0,0.06,0c0.06,0,0.06,0,0.19,0s1.08-0.13,0.57-0.06c0.38-0.06,0.83,0,1.08,0.06c0.64,0.13,1.34-0.06,1.66-0.7
			C-21.57,631.58-21.64,630.75-22.15,630.3z"/>
		<path class="st36" d="M-21.64,639.68c-0.19-0.26-0.45-0.51-0.64-0.77c-0.83-0.96-2.42-0.64-3,0.38c-0.32,0.57-0.32,1.34,0,1.91
			c0.38,0.64,0.96,0.89,1.66,0.96c0.32,0,0.64,0.06,0.96,0.06c0.51,0.06,1.08-0.32,1.34-0.77
			C-21.06,640.95-21.19,640.25-21.64,639.68z"/>
		<path class="st36" d="M-20.1,649.18c-0.57-0.26-1.08-0.51-1.66-0.7c-0.57-0.19-1.28-0.13-1.91-0.13
			c-1.47-0.06-1.66,2.11-0.32,2.49c0.57,0.19,1.21,0.45,1.85,0.45c0.57,0,1.15-0.06,1.79-0.06
			C-19.15,651.16-19.02,649.63-20.1,649.18z"/>
		<path class="st36" d="M-19.08,659.65c-1.21-1.15-2.93-1.34-4.59-1.34c-1.59,0-1.53,2.3,0,2.42c1.28,0.13,2.49,0.64,3.76,0.77
			C-18.89,661.69-18.38,660.28-19.08,659.65z"/>
		<path class="st36" d="M-17.94,671.32c-1.02-0.77-2.3-1.21-3.51-1.66c-1.34-0.57-2.23,1.72-0.96,2.3c1.21,0.51,2.36,1.15,3.64,1.4
			C-17.49,673.49-16.91,672.02-17.94,671.32z"/>
		<path class="st36" d="M-17.49,683.57c-1.08-0.7-2.3-0.96-3.51-1.28c-1.59-0.45-2.23,1.98-0.7,2.49l1.59,0.51
			c0.7,0.26,1.28,0.32,1.98,0.32C-16.91,685.74-16.53,684.14-17.49,683.57z"/>
		<path class="st36" d="M-16.91,697.03c-0.19-0.06-0.32-0.13-0.51-0.26c-0.13-0.13-0.32-0.19-0.51-0.26c-0.06,0-0.06,0-0.06,0
			c-0.19-0.06-0.32-0.19-0.51-0.26c-0.13-0.13-0.19-0.13-0.06-0.06c-0.06-0.06-0.13-0.13-0.19-0.19c-0.64-0.57-1.66-0.64-2.23,0
			c-0.57,0.57-0.7,1.72,0,2.23c0.57,0.45,1.08,0.77,1.72,1.02c0.7,0.26,1.34,0.26,2.04,0.06
			C-16.21,699.07-15.89,697.47-16.91,697.03z"/>
		<path class="st36" d="M-17.04,709.28c-0.26-0.26-0.51-0.57-0.83-0.83c-0.38-0.38-0.96-0.64-1.47-0.83
			c-0.96-0.45-2.11-0.26-2.68,0.7c-0.64,1.08-0.06,2.55,1.21,2.93c0.38,0.13,0.83,0.26,1.21,0.32c0.57,0.06,1.08,0,1.66,0
			C-16.85,711.44-16.21,710.17-17.04,709.28z"/>
		<path class="st36" d="M-19.34,719.16c-0.57-0.26-1.15-0.57-1.66-0.83c-0.77-0.38-1.79-0.06-2.04,0.83
			c-0.26,0.89,0.45,1.72,1.34,1.79c0.64,0,1.28,0.06,1.85,0.06C-18.89,721.08-18.45,719.61-19.34,719.16z"/>
		<path class="st36" d="M-22.46,728.16c-0.45-0.06-0.89-0.19-1.34-0.26c-0.77-0.19-1.59,0.38-1.59,1.21c0,0.83,0.83,1.4,1.59,1.21
			c0.45-0.06,0.89-0.19,1.34-0.26C-21.51,729.75-21.51,728.35-22.46,728.16z"/>
		<path class="st8" d="M-274.19,636.87c-5.87-2.62-11.67-5.87-16.65-9.95c-5.23-4.34-8.36-9.76-12.38-15.05
			c-1.02-1.34-3.19-0.57-2.81,1.15c1.66,6.63,6.89,12.76,11.67,17.35c5.23,5.04,11.42,8.55,18.5,10.27
			C-273.61,641.21-271.95,637.89-274.19,636.87z"/>
		<path class="st8" d="M-165.29,424.96c-0.26-1.47-2.42-0.83-2.23,0.64c1.53,10.02,2.11,20.09,2.62,30.24
			c0.06,1.59,2.36,1.59,2.42,0C-162.04,445.43-163.32,435.16-165.29,424.96z"/>
		<path class="st8" d="M-163.38,472.86c-0.26-1.59-2.81-0.96-2.42,0.64c0.45,1.91,0.51,3.83,0.38,5.74
			c-0.06,1.08,1.66,1.28,1.85,0.26C-163,477.26-163,475.1-163.38,472.86z"/>
		<path class="st8" d="M-306.72,415.2c-6,17.35-11.55,35.79-12.82,54.22c-0.13,1.53,2.36,1.85,2.68,0.38
			c3.83-18.12,6.76-36.23,12.31-53.97C-304.17,414.43-306.27,413.86-306.72,415.2z"/>
		<path class="st8" d="M-319.35,483.01c-0.32,4.02-1.02,8.17-0.64,12.18c0.13,1.59,2.49,2.11,2.93,0.38
			c1.08-4.08,1.08-8.42,1.4-12.57C-315.46,480.65-319.16,480.65-319.35,483.01z"/>
		<path class="st8" d="M-332.17,1051.9c-1.08-3.06-3.76-3.44-6.57-4.34c-0.13-0.06-0.26-0.06-0.38-0.13
			c0.57-2.17,1.08-4.4,1.47-6.44c0.45-2.42-2.93-4.21-4.15-1.79c-1.02,2.04-1.98,4.21-2.87,6.51c-2.49-0.7-4.98-1.47-7.46-2.17
			c-2.55-0.77-3.51,3-1.08,3.96c2.3,0.89,4.66,1.85,6.95,2.81c-0.77,2.49-1.28,4.98-1.53,7.4c-0.19,2.3,3,2.81,4.08,1.08
			c1.21-1.91,2.17-4.02,3-6.32c1.98,0.77,3.96,1.4,5.93,1.98C-333.32,1054.96-331.66,1053.43-332.17,1051.9z"/>
		<path class="st8" d="M-151.32,1039.4c-1.08,0.64-2.11,1.34-3.19,2.04c-1.08-1.21-2.23-2.36-3.25-3.57
			c-1.72-1.91-4.98,0.57-3.57,2.74c0.83,1.28,1.66,2.68,2.49,4.02c-1.28,1.08-2.42,2.23-3.51,3.51c-1.59,1.98,0.38,5.04,2.81,3.64
			c1.4-0.83,2.68-1.66,3.96-2.62c0.83,0.96,1.72,1.79,2.68,2.55c1.66,1.21,4.27-0.83,3.51-2.74c-0.45-1.15-1.02-2.17-1.66-3.19
			c0.77-0.57,1.59-1.15,2.42-1.72C-145.77,1042.08-148.33,1037.55-151.32,1039.4z"/>
		<path class="st17" d="M-245.61,299.99c-3.19-0.57-12.31-3.13-9.25-7.97c2.55-4.08,5.93-7.59,8.68-11.48
			c0.89-1.34-0.96-3.25-2.23-2.23c-3,2.23-5.61,5.04-8.04,7.91c-2.17,2.55-4.66,5.17-4.53,8.74c0.32,6.95,9.76,10.21,15.37,9.31
			C-243.5,303.88-243.57,300.37-245.61,299.99z"/>
		<path class="st14" d="M-264.17,221.14c-6.63-1.72-16.39,0.45-18.5,7.97c-0.83,2.93,2.04,6,5.1,5.1c3.76-1.15,6.25-2.87,10.21-1.34
			C-260.15,235.56-256.52,223.12-264.17,221.14z"/>
		<path class="st14" d="M-196.49,229.69c-1.98-3.44-4.85-5.29-8.48-6.76c-3.64-1.47-9.31-1.47-11.93,1.85
			c-2.62,3.38-2.23,7.14,1.28,9.76c2.36,1.72,5.36,1.4,8.1,1.4c1.53,0,3.64,0.57,5.49,1.02
			C-197.89,237.98-194.26,233.58-196.49,229.69z"/>
		<g class="st18">
			<path class="st19" d="M-267.94,245.45c-1.21-0.45-2.62-0.57-4.34-0.26c-11.23,2.23-9.95,21.56-0.19,25.01
				c4.91,1.72,7.21-2.36,8.17-6.06c0.7-1.59,1.08-3.32,1.28-5.04C-262.45,254.57-263.21,247.3-267.94,245.45z"/>
			<path class="st20" d="M-270.93,251.25c-0.32-0.57-1.02-1.21-1.72-1.28c-0.26-0.06-0.57-0.06-0.83-0.13
				c-0.7,0-1.02,0.19-1.59,0.45c-0.38,0.19-0.7,0.51-1.02,0.83c-1.02,0.96-1.21,2.3-0.77,3.57c0.38,1.15,1.34,1.91,2.55,1.98
				c0.13,0,0.26,0,0.38,0c0.89-0.06,1.59-0.32,2.23-0.96c0.32-0.32,0.45-0.51,0.64-0.89c0.32-0.64,0.57-1.28,0.51-2.04
				C-270.55,252.14-270.68,251.76-270.93,251.25z"/>
		</g>
		<g class="st18">
			<path class="st19" d="M-207.84,250.61c-1.21-0.45-2.62-0.57-4.34-0.26c-11.23,2.23-9.95,21.56-0.19,25.01
				c4.91,1.72,7.21-2.36,8.17-6.06c0.7-1.59,1.08-3.32,1.28-5.04C-202.29,259.73-203.12,252.46-207.84,250.61z"/>
			<path class="st20" d="M-210.84,256.42c-0.32-0.57-1.02-1.21-1.72-1.28c-0.26-0.06-0.57-0.06-0.83-0.13
				c-0.7,0-1.02,0.19-1.59,0.45c-0.38,0.19-0.7,0.51-1.02,0.83c-1.02,0.96-1.21,2.3-0.77,3.57c0.38,1.15,1.34,1.91,2.55,1.98
				c0.13,0,0.26,0,0.38,0c0.89-0.06,1.59-0.32,2.23-0.96c0.32-0.32,0.45-0.51,0.64-0.89c0.32-0.64,0.57-1.28,0.51-2.04
				C-210.46,257.31-210.52,256.93-210.84,256.42z"/>
		</g>
		<path class="st10" d="M-275.08,311.98c1.4-1.79,13.72,6,29.6,5.61c15.88-0.38,37-5.29,40.51-2.49s-7.72,23.22-34.13,25.71
			C-265.58,343.37-279.99,318.36-275.08,311.98z"/>
		<path class="st37" d="M-220.6,324.1c-14.23,3-27.43,3.51-41.46-0.57c-1.15-0.32-1.91,1.47-0.83,1.91
			c13.2,5.87,29.66,7.34,43.25,1.98C-217.6,326.65-218.31,323.65-220.6,324.1z"/>
	</g>
</g>
</svg>
