<?xml version="1.0" encoding="utf-8"?>
<!-- Generator: Adobe Illustrator 24.0.1, SVG Export Plug-In . SVG Version: 6.00 Build 0)  -->
<svg version="1.1" id="Layer_1" xmlns="http://www.w3.org/2000/svg" xmlns:xlink="http://www.w3.org/1999/xlink" x="0px" y="0px"
	 viewBox="0 0 1200 1200" style="enable-background:new 0 0 1200 1200;" xml:space="preserve">
<style type="text/css">
	.st0{fill:#CBD2D6;}
	.st1{display:none;fill:#CBD2D6;}
	.st2{display:none;}
	.st3{display:inline;fill:#92552E;}
	.st4{display:inline;fill:#BF7641;}
	.st5{display:inline;fill:#FAB077;}
	.st6{display:inline;fill:#FDCA93;}
	.st7{display:inline;fill:#102125;}
	.st8{display:inline;fill:#1C3036;}
	.st9{display:inline;fill:#30464C;}
	.st10{display:inline;fill:#FFFFFF;}
	.st11{display:inline;fill:#ED1A39;}
	.st12{display:inline;fill:#B9121D;}
	.st13{display:inline;fill:#BAD6E4;}
	.st14{display:inline;fill:#FBAE34;}
	.st15{display:inline;fill:#FFFFFF;stroke:#000000;stroke-linecap:round;stroke-linejoin:round;stroke-miterlimit:10;}
	.st16{display:inline;fill:#FFD459;}
	.st17{display:inline;fill:#CA7E4B;}
	.st18{display:inline;}
	.st19{fill:#5E3616;}
	.st20{fill:#FFFFFF;}
	.st21{display:inline;fill:#EE3047;}
	.st22{display:inline;fill:#BC102C;}
	.st23{fill:#102125;}
	.st24{fill:#1C3036;}
	.st25{fill:#30464C;}
	.st26{fill:#FAB077;}
	.st27{fill:#FDCA93;}
	.st28{fill:#ED1A39;}
	.st29{fill:#B9121D;}
	.st30{fill:#BAD6E4;}
	.st31{fill:#FBAE34;}
	.st32{fill:#DA8E4A;}
	.st33{fill:#FFD459;}
	.st34{fill:#A26A35;}
	.st35{fill:#CA7E4B;}
	.st36{fill:#D8D9DA;}
</style>
<g id="Object">
	<ellipse class="st0" cx="569.28" cy="1082.18" rx="170.42" ry="34.6"/>
	<ellipse class="st1" cx="1037.11" cy="1082.18" rx="170.42" ry="34.6"/>
	<ellipse class="st1" cx="1491.3" cy="1082.18" rx="170.42" ry="34.6"/>
	<g class="st2">
		<path class="st3" d="M1170.71,701.08c0,0,5.46,0,15.48,7.59s6.96,36.33,6.96,36.33l16.3-0.73c0,0,0.75-28.02-6.21-40.13
			s-31.78-16.64-31.78-16.64L1170.71,701.08z"/>
		<path class="st3" d="M1234.34,740.47c11.66,0,27.14,0,27.14,0s1.57,132.49,0.75,137.75c-0.75,5.32-28.71,10.58-28.71,10.58
			l-24.07-57.5l-1.57-46.18L1234.34,740.47z"/>
		<path class="st4" d="M1068.35,735.88c3.89-5.32,165.99,4.53,165.99,4.53s3.89,142.27-0.75,148.33
			c-4.64,6.06-142.74,1.53-153.58-0.73C1069.1,885.81,1068.35,735.88,1068.35,735.88z"/>
		<path class="st5" d="M1165.32,639.79c0,0,0,11.38,6.21,23.49c6.21,12.11,3.89,26.49,3.89,26.49l-17.87,6.79l-27.07-5.52
			l-6.27-24.75l8.52-30.28l16.3-3.79L1165.32,639.79z"/>
		<path class="st6" d="M1142.82,710.19c11.18-2.73,10.84,0.73,15.48,0c4.64-0.73,3.07,4.53,11.66,2.99s10.09,0,11.66-4.53
			c1.57-4.53-0.75-30.28-7.77-30.28c-6.96,0-11.66,6.79-11.66,6.79s-7.77-13.64-13.16-10.58c-5.46,2.99-5.46,9.05-5.46,9.05
			s-2.32-8.32-9.27-4.53C1127.27,682.91,1133.48,712.46,1142.82,710.19z"/>
		<path class="st7" d="M1131.29,1041.86c14.94,6.99,29.94,13.97,44.87,20.96c2.8,1.33,5.86,2.86,7.09,5.59
			c1.36,3.06,0.07,6.79-2.39,9.18c-2.46,2.4-5.8,3.59-9.07,4.59c-14.66,4.33-30.21,4.39-45.49,4.46c-12.07,0-25.23-0.33-34.58-7.85
			c-9.96-7.92-12.41-23.42-5.46-33.94C1093.31,1034.34,1119.7,1036.47,1131.29,1041.86z"/>
		<path class="st7" d="M965.3,1041.86c-14.94,6.99-29.94,13.97-44.87,20.96c-2.8,1.33-5.86,2.86-7.09,5.59
			c-1.36,3.06-0.07,6.79,2.39,9.18c2.46,2.4,5.8,3.59,9.07,4.59c14.66,4.33,30.21,4.39,45.49,4.46c12.07,0,25.23-0.33,34.58-7.85
			c9.96-7.92,12.41-23.42,5.46-33.94C1003.29,1034.34,976.9,1036.47,965.3,1041.86z"/>
		<path class="st8" d="M1133.54,690.96c0,0-157.19-21.16-163.4-10.11c-6.21,11.11-25.85,346.17-15.48,356.28s58.92,11.11,64.11,5.06
			c5.18-6.06,9.27-287.61,14.46-293.66c5.18-6.06,24.82-9.05,27.89-1c3.07,8.05,9.27,294.73,18.62,297.72s57.9,4.06,63.08-6.06
			s-12.41-348.17-12.41-348.17h3.14V690.96z"/>
		<path class="st9" d="M1084.99,365.02c0,0,18.62,7.05,23.8,13.11c5.18,6.06,39.28,294.73,33.08,315.89
			c-6.21,21.16-167.56,20.16-185.15,12.11c-17.59-8.05-1.09-303.38,7.23-318.22s24.48-18.37,24.48-18.37L1084.99,365.02z"/>
		<path class="st10" d="M1006.56,390.84l33.69-7.39l40.24,14.97l-0.61,56.9c0,0-33.83,99.95-35.05,98.75
			c-1.23-1.2-28.44-113.39-28.44-113.39L1006.56,390.84z"/>
		<path class="st9" d="M1108.72,378.13c19.3,10.31,61.17,201.1,63.56,263.92c0,0-22.51,6.06-41.87,5.32
			c-19.37-0.73-24.82-174.08-24.82-174.08L1108.72,378.13z"/>
		<path class="st5" d="M1066.37,328.69c0,0,3.07,32.27,5.18,51.44c2.05,19.17-78.63,6.06-78.63,6.06s16.57-44.39,16.57-64.62
			S1066.37,328.69,1066.37,328.69z"/>
		<polygon class="st11" points="1046.46,413 1060.1,475.22 1045.64,555.21 1013.79,491.53 1034.66,409.94 		"/>
		<path class="st12" d="M1059.21,398.69c0,0-1.84,22.43-19.03,22.43c-17.25,0-20.87-26.49-20.87-26.49l21.75-12.24L1059.21,398.69z"
			/>
		<path class="st13" d="M988.42,359.97l52.65,22.49c0,0-16.3,34.67-27.21,35.67c-10.91,1-20.87-21.43-20.87-21.43L988.42,359.97z"/>
		<ellipse class="st5" cx="939.11" cy="238.85" rx="24.82" ry="25.22"/>
		<ellipse class="st5" cx="1110.83" cy="238.85" rx="24.82" ry="25.22"/>
		<path class="st6" d="M1113.02,212.63c0,0,17.19,130.16-69.7,136.22c-89.75,6.26-103.05-92.83-98-146.33s65.67-70.67,65.67-70.67
			l75.77-2l28.3,28.28l3,35.34L1113.02,212.63z"/>
		<path class="st14" d="M1106.27,72.96c-5.66-0.2-9.82,4.86-13.84,8.72c-13.98,13.51-35.26,16.57-54.9,16.24
			c-19.64-0.4-39.62-3.39-58.79,0.8c-28.85,6.32-52.92,30.08-59.06,58.29c-6.14,28.28,13.23,77.86,29.8,76.66
			c11.39-1.8,1.64-45.98,15.69-63.68c6.27-7.92,16.98-11.31,27.21-11.58c10.23-0.27,20.32,2.13,30.42,3.66
			c25.1,3.79,51.01,2.46,75.49-4.06c1.64,19.83,3.21,39.66,4.84,59.49c0.2,2.79,0.55,5.86,2.52,7.85c3,3.06,8.59,2.2,11.66-0.73
			c3.14-2.93,4.3-7.32,5.05-11.51c3.82-21.36-0.68-43.85,6.07-64.55c6.82-20.96,24.89-39.13,23.53-61.09
			c-0.41-6.52-3.89-13.97-10.5-14.91c-13.57-1.8-15.96,23.09-29.53,24.75c2.46-4.39,4.57-9.32,4.02-14.31
			S1111.45,73.15,1106.27,72.96z"/>
		<path class="st8" d="M988.42,359.97c-3.21-4.46-17.46,14.57-20.19,23.22c-2.73,8.65,17.46,68.41,17.46,68.41l22.71-4.79
			l-10.91,26.02c0,0,44.46,75.26,48.08,82.98C1045.57,555.74,1037.39,427.44,988.42,359.97z"/>
		<path class="st13" d="M1075.51,361.9c0,0-29.94,19.5-34.51,20.56c-4.57,1,16.3,25.49,24.48,31.61
			c8.18,6.12,24.48-20.36,24.48-20.36L1075.51,361.9z"/>
		<path class="st8" d="M1045.57,555.74c-1.57,2.53,14.53-167.83,29.94-193.91c0,0,8.46-1.8,12.96,0.13
			c4.57,1.93,9.68,65.48,7.91,68.34c-1.84,2.86-14.53,11.58-14.53,11.58l9.96,20.23C1091.88,462.18,1052.87,544.16,1045.57,555.74z"
			/>
		<path class="st6" d="M918.93,666.21c0,0,9.27,13.11,19.64,27.22c10.37,14.11,19.64,24.22,9.27,25.22s-15.48-7.05-15.48-7.05
			s10.37,29.28,3.07,32.27c-7.23,2.99-16.57,0-16.57,0s-4.16,7.05-14.46,2.99c0,0-13.43,2.99-19.64-5.06
			c-6.21-8.05-8.25-62.55,3.07-79.72C899.29,645.05,918.93,666.21,918.93,666.21z"/>
		<path class="st15" d="M1108.72,378.13"/>
		<path class="st9" d="M964.28,389.05c-16.5,16.3-45.9,57.5-65.81,111.66c-24.82,67.61-20.8,173.62-11.93,172.55
			c18.55-2.06,38.67-2,41.67-4.06c3-2-1.98-44.39,4.98-93.83c4.43-31.34,15.14-69.94,22.51-94.03c2.93-46.65,6.62-83.85,9.41-91.17
			C964.82,389.78,964.55,389.45,964.28,389.05z"/>
		<path class="st15" d="M1141.25,690.5"/>
		<ellipse class="st8" cx="1046.39" cy="586.55" rx="10.37" ry="10.11"/>
		<ellipse class="st8" cx="1046.39" cy="656.16" rx="10.37" ry="10.11"/>
		<path class="st16" d="M1079.67,98.71c-20.46,8.25-41.12,12.71-63.29,12.84c-10.91,0.07-21.82,0.07-32.53,2.46
			c-8.8,2-18.35,5.92-23.73,13.31c-1.02,1.4,0.95,3.19,2.39,2.33c8.05-5.12,15.82-8.65,25.37-10.18c11.25-1.73,22.98-0.6,34.3-0.6
			c20.6,0.07,42.42-3.39,59.88-14.64C1084.78,102.43,1083.08,97.31,1079.67,98.71z"/>
		<path class="st16" d="M1117.59,111.35c-10.91,6.39-21.62,12.91-33.42,17.5c-11.87,4.59-24.35,6.92-37.1,6.99
			c-13.84,0.07-27.42-3.19-41.26-3.13c-11.25,0.07-24.07,2.93-31.92,11.31c-1.36,1.4,0.48,4.13,2.25,2.79
			c22.91-16.9,50.6-2.46,76.04-2.33c24.96,0.13,53.06-8.85,70.58-26.62C1126.04,114.48,1121.81,108.89,1117.59,111.35z"/>
		<path class="st16" d="M963.12,152.34c-12.55-2.66-21.21,14.17-20.6,24.16c0.14,2.6,3.75,3.79,5.18,1.4
			c2.52-4.19,3.68-8.98,6.07-13.31c2.25-4.13,6-5.86,9.89-8.05C965.37,155.54,965.17,152.74,963.12,152.34z"/>
		<path class="st16" d="M952,142.16c-6.68-1.6-11.73,3.46-16.09,7.72c-4.5,4.33-8.25,9.52-7.23,15.9c0.34,2.13,3.41,1.73,4.02,0
			c1.43-4.13,3.68-7.72,6.55-10.98c3.07-3.53,7.02-8.52,12.14-8.38C953.84,146.35,954.39,142.69,952,142.16z"/>
		<path class="st8" d="M1008.27,620.36c-4.98-3.19-9.82-6.65-14.39-10.38c-4.77-3.86-8.59-8.58-13.03-12.71
			c-1.5-1.4-3.82,0.4-2.8,2.13c3.07,5.26,7.98,9.78,12.55,13.84c4.77,4.26,10.02,7.59,15.82,10.31
			C1008.54,624.62,1010.31,621.69,1008.27,620.36z"/>
		<path class="st8" d="M1115.74,595.07c-11.59,7.85-20.94,18.23-34.98,22.16c-2.05,0.6-1.23,3.53,0.89,3.13
			c14.05-2.73,27.35-11.58,36.62-22.03C1119.77,596.6,1117.79,593.67,1115.74,595.07z"/>
		<path class="st8" d="M1113.9,415.33c-0.2-1.26-2.46-1-2.32,0.33c2.11,18.23,3.21,36.53,5.93,54.7c0.2,1.4,2.52,1.06,2.52-0.33
			C1119.63,451.66,1116.7,433.36,1113.9,415.33z"/>
		<path class="st8" d="M1123.25,492.12c-0.89-3.59-1.77-7.19-2.18-10.85c-0.27-2.2-3.82-2.2-3.55,0c0.48,4.06,1.3,7.85,2.86,11.65
			C1121.13,494.59,1123.72,493.99,1123.25,492.12z"/>
		<path class="st8" d="M963.94,406.61c-2.05,8.38-4.09,17.04-4.36,25.69c0,1.2,1.98,1.53,2.25,0.27c1.5-8.45,2.11-17.04,3.75-25.55
			C965.78,406.01,964.21,405.55,963.94,406.61z"/>
		<path class="st8" d="M958.89,455.79c-0.27-2.13-0.34-4.26-0.2-6.39c0.14-1.86-3-1.93-3.07,0c-0.07,2.26,0.2,4.46,0.89,6.65
			C956.91,457.32,959.03,457.12,958.89,455.79z"/>
		<path class="st8" d="M961.07,1056.36c-2.52-1.8-5.8-2.26-8.8-2.99c0.55-2.6,0.82-5.32,0.75-7.92c-0.07-2.46-4.02-3.13-4.5-0.6
			c-0.48,2.4-1.09,4.66-1.77,6.92c-2.32-0.73-4.71-1.46-7.02-1.93c-2.11-0.47-3.55,2.46-1.5,3.53c2.25,1.2,4.71,2.13,7.16,2.93
			c-0.61,1.93-1.23,3.79-1.77,5.72c-0.55,2,2.25,3.86,3.68,2.13c1.5-1.8,2.73-3.86,3.61-6.06c3.21,1.06,6.48,2.13,9.82,1.66
			C962.44,1059.49,962.23,1057.16,961.07,1056.36z"/>
		<path class="st8" d="M1158.98,1051.11c-2.11-1.26-4.77-1.86-7.64-2c0.07-1.73,0.27-3.39,0.34-5.19c0.07-2-3.14-2.99-4.02-1.06
			c-0.75,1.73-1.36,3.93-1.7,6.32c-2.73,0.2-5.39,0.6-7.64,1c-1.98,0.33-1.5,3.46,0.48,3.39c2.39-0.13,4.71-0.07,7.02,0.07
			c0.2,2.99,1.02,5.79,2.86,7.59c1.02,1,3.21,0.67,3.48-0.87c0.34-2.06-0.07-3.93-0.48-5.92c2.05,0.4,4.09,0.93,6.14,0.73
			C1160,1054.9,1160.96,1052.3,1158.98,1051.11z"/>
		<path class="st4" d="M1242.39,746.46c-0.14-2.06-3.41-2.13-3.34,0c0.14,2.46,0.07,4.92,0,7.32c-0.07,1.46,2.18,1.73,2.59,0.33
			C1242.39,751.52,1242.59,749.19,1242.39,746.46z"/>
		<path class="st4" d="M1242.8,763.7c0-2.06-3.27-2.06-3.34,0c-0.07,2.26-0.14,4.39,0.27,6.59c0.2,1.33,2.52,1.33,2.8,0
			C1242.93,768.15,1242.86,765.96,1242.8,763.7z"/>
		<path class="st4" d="M1241.91,781.86c-0.95-0.27-1.77,0.47-1.84,1.33c0,0.73-0.07,1.46-0.07,2.2c-0.07,1.33,1.91,1.53,2.32,0.33
			c0.2-0.73,0.41-1.4,0.68-2.13C1243.14,782.86,1242.66,782.06,1241.91,781.86z"/>
		<path class="st4" d="M1241.5,792.51c-0.68,0-1.43,0.6-1.36,1.33l0.2,2.2c0.14,1.46,2.18,1.46,2.32,0l0.2-2.2
			C1242.93,793.11,1242.18,792.51,1241.5,792.51z"/>
		<path class="st4" d="M1243.14,810.74c-0.34-1.6-3-0.87-2.52,0.67c0.55,1.8,0.68,3.73,0.48,5.52c-0.14,0.93,1.3,0.93,1.57,0.2
			C1243.61,815.07,1243.68,813.01,1243.14,810.74z"/>
		<path class="st4" d="M1241.5,825.18c-1.02,0-1.64,0.8-1.77,1.73c-0.2,2-0.34,3.93-0.27,5.86c0.07,1.46,2.25,1.8,2.66,0.33
			c0.55-2.06,0.89-4.13,1.16-6.26C1243.34,825.98,1242.39,825.18,1241.5,825.18z"/>
		<path class="st4" d="M1242.66,841.95c-0.2-2.2-3.34-1.8-3.07,0.4c0.34,2.53,0.14,5.32-0.55,7.79c-0.27,1.13,1.36,1.86,1.91,0.8
			C1242.45,848.08,1243,845.21,1242.66,841.95z"/>
		<path class="st4" d="M1240.61,861.78c-0.14-1.8-3-1.8-2.86,0c0.2,2.33,0.2,4.66,0.75,6.92c0.34,1.33,2.18,0.87,2.32-0.33
			C1241.02,866.24,1240.75,863.98,1240.61,861.78z"/>
		<path class="st4" d="M1241.64,875.89c-0.89-0.27-2.11,0.27-2.25,1.26c-0.2,1.4-0.41,2.73-0.41,4.13c0,0.6,0.48,1.2,1.09,1.33
			c0.82,0.2,1.5-0.27,1.77-1c0.48-1.2,0.82-2.33,1.16-3.59C1243.14,877.16,1242.59,876.16,1241.64,875.89z"/>
		<path class="st4" d="M1260.32,746.06c-0.07-0.8-0.61-1.46-1.5-1.46c-0.75,0-1.57,0.67-1.5,1.46c0.07,1.33,0,2.73-0.14,4.06
			c-0.14,1.2,1.91,1.73,2.39,0.6C1260.25,749.19,1260.46,747.79,1260.32,746.06z"/>
		<path class="st4" d="M1256.37,762.23c0,1.46,0.07,2.93,0.2,4.39c0.14,1.4,2.11,1.4,2.25,0c0.14-1.46,0.2-2.93,0.2-4.39
			C1259.03,760.57,1256.37,760.57,1256.37,762.23z"/>
		<path class="st4" d="M1256.91,775.47c-0.27,1.86-0.55,3.66-0.55,5.52c0,1.13,1.7,1.33,1.98,0.27c0.55-1.8,0.75-3.59,1.02-5.46
			C1259.64,774.01,1257.12,773.68,1256.91,775.47z"/>
		<path class="st4" d="M1256.09,788.32c0,2.26,0.07,4.39,0.27,6.59c0.14,1.26,1.84,1.26,1.98,0c0.2-2.2,0.27-4.39,0.27-6.59
			C1258.62,786.72,1256.09,786.72,1256.09,788.32z"/>
		<path class="st4" d="M1255.75,804.16c-0.14,1.33-0.34,2.66-0.41,4.06c0,0.93,1.36,1.06,1.64,0.2c0.41-1.33,0.68-2.66,1.02-3.99
			C1258.41,802.82,1255.96,802.49,1255.75,804.16z"/>
		<path class="st4" d="M1258.14,816.33c-0.27-1.53-2.66-0.87-2.39,0.67c0.27,1.33,0.2,2.73,0.2,4.06c0,1.13,1.57,1.2,1.91,0.27
			C1258.55,819.66,1258.41,818,1258.14,816.33z"/>
		<path class="st4" d="M1258.82,826.98c-0.2-1.33-2.59-1-2.46,0.33c0.27,1.93,0.41,3.93,0.95,5.79c0.34,1.13,2.11,0.93,2.18-0.27
			C1259.5,830.84,1259.16,828.91,1258.82,826.98z"/>
		<path class="st4" d="M1258.48,840.69c-1.09,0-1.91,1.06-1.57,2.06c0.14,0.6,0.34,1.13,0.48,1.73c0.27,1.06,1.91,1.06,2.25,0
			c0.14-0.6,0.34-1.13,0.48-1.73C1260.32,841.75,1259.57,840.69,1258.48,840.69z"/>
		<path class="st4" d="M1260.12,854.46c0-2.53-4.02-2.53-4.02,0c0,1.8-0.07,3.53,0.41,5.19c0.48,1.53,2.73,1.53,3.21,0
			C1260.19,857.92,1260.05,856.19,1260.12,854.46z"/>
		<path class="st4" d="M1260.12,867.31c-0.07-0.87-0.68-1.6-1.64-1.6c-0.82,0-1.77,0.73-1.64,1.6c0.2,1.46,0.07,2.93,0,4.39
			c-0.07,1.2,1.84,1.8,2.46,0.67C1260.05,870.77,1260.25,869.1,1260.12,867.31z"/>
		<path class="st17" d="M1040.45,272.66c3.41-0.6,13.16-3.26,9.89-8.32c-2.73-4.26-6.34-7.92-9.27-11.98
			c-0.95-1.4,1.02-3.39,2.39-2.33c3.21,2.33,6,5.26,8.59,8.25c2.32,2.66,4.98,5.39,4.84,9.12c-0.34,7.25-10.43,10.65-16.44,9.72
			C1038.2,276.65,1038.27,272.99,1040.45,272.66z"/>
		<path class="st14" d="M1060.3,190.34c7.09-1.8,17.53,0.47,19.78,8.32c0.89,3.06-2.18,6.26-5.46,5.32
			c-4.02-1.2-6.68-2.99-10.91-1.4C1056,205.38,1052.12,192.47,1060.3,190.34z"/>
		<path class="st14" d="M987.94,199.32c2.11-3.59,5.18-5.52,9.07-7.05c3.89-1.53,9.96-1.53,12.75,1.93
			c2.8,3.53,2.39,7.45-1.36,10.18c-2.52,1.8-5.73,1.46-8.66,1.46c-1.64,0-3.89,0.6-5.86,1.06
			C989.44,207.91,985.56,203.38,987.94,199.32z"/>
		<g class="st18">
			<path class="st19" d="M1064.32,215.76c1.3-0.47,2.8-0.6,4.64-0.27c12,2.33,10.64,22.49,0.2,26.09c-5.25,1.8-7.71-2.46-8.73-6.32
				c-0.75-1.66-1.16-3.46-1.36-5.26C1058.39,225.28,1059.28,217.69,1064.32,215.76z"/>
			<path class="st20" d="M1067.53,221.75c0.34-0.6,1.09-1.26,1.84-1.33c0.27-0.07,0.61-0.07,0.89-0.13c0.75,0,1.09,0.2,1.7,0.47
				c0.41,0.2,0.75,0.53,1.09,0.87c1.09,1,1.3,2.4,0.82,3.73c-0.41,1.2-1.43,2-2.73,2.06c-0.14,0-0.27,0-0.41,0
				c-0.95-0.07-1.7-0.33-2.39-1c-0.34-0.33-0.48-0.53-0.68-0.93c-0.34-0.67-0.61-1.33-0.55-2.13
				C1067.12,222.75,1067.26,222.35,1067.53,221.75z"/>
		</g>
		<g class="st18">
			<path class="st19" d="M1000.08,221.15c1.3-0.47,2.8-0.6,4.64-0.27c12,2.33,10.64,22.49,0.2,26.09c-5.25,1.8-7.71-2.46-8.73-6.32
				c-0.75-1.66-1.16-3.46-1.36-5.26C994.15,230.67,995.04,223.08,1000.08,221.15z"/>
			<path class="st20" d="M1003.29,227.14c0.34-0.6,1.09-1.26,1.84-1.33c0.27-0.07,0.61-0.07,0.89-0.13c0.75,0,1.09,0.2,1.7,0.47
				c0.41,0.2,0.75,0.53,1.09,0.87c1.09,1,1.3,2.4,0.82,3.73c-0.41,1.2-1.43,2-2.73,2.06c-0.14,0-0.27,0-0.41,0
				c-0.95-0.07-1.7-0.33-2.39-1c-0.34-0.33-0.48-0.53-0.68-0.93c-0.34-0.67-0.61-1.33-0.55-2.13
				C1002.88,228.14,1002.95,227.74,1003.29,227.14z"/>
		</g>
		<path class="st17" d="M1028.11,294.02c8.73,1.8,18.69,5.26,26.39-1.06c1.5-1.2,3.34,0.6,2.11,2.06
			c-7.37,8.65-20.12,7.32-29.73,3.39C1024.16,297.28,1025.11,293.35,1028.11,294.02z"/>
		<path class="st17" d="M1038.95,304.13c1.43,0,2.93,0,4.36-0.27c1.98-0.33,2.8,2.46,0.82,2.93c-1.91,0.47-3.68,0.6-5.52-0.07
			C1037.18,306.26,1037.39,304.13,1038.95,304.13z"/>
	</g>
	<g class="st2">
		<path class="st7" d="M1577.78,1041.86c14.94,6.99,29.94,13.97,44.87,20.96c2.8,1.33,5.86,2.86,7.09,5.59
			c1.36,3.06,0.07,6.79-2.39,9.18c-2.46,2.4-5.8,3.59-9.07,4.59c-14.66,4.33-30.21,4.39-45.49,4.46c-12.07,0-25.23-0.33-34.58-7.85
			c-9.96-7.92-12.41-23.42-5.46-33.94C1539.72,1034.34,1566.18,1036.47,1577.78,1041.86z"/>
		<path class="st7" d="M1411.86,1041.86c-14.94,6.99-29.94,13.97-44.87,20.96c-2.8,1.33-5.86,2.86-7.09,5.59
			c-1.36,3.06-0.07,6.79,2.39,9.18c2.46,2.4,5.8,3.59,9.07,4.59c14.66,4.33,30.21,4.39,45.49,4.46c12.07,0,25.23-0.33,34.58-7.85
			c9.96-7.92,12.41-23.42,5.46-33.94C1449.77,1034.34,1423.38,1036.47,1411.86,1041.86z"/>
		<path class="st8" d="M1580.1,690.96c0,0-157.19-21.16-163.4-10.11c-6.21,11.11-25.85,346.17-15.48,356.28s58.92,11.11,64.11,5.06
			c5.18-6.06,9.27-287.61,14.46-293.66c5.18-6.06,24.82-9.05,27.89-1c3.07,8.05,9.27,294.73,18.62,297.72s57.9,4.06,63.08-6.06
			c5.18-10.11-12.41-348.17-12.41-348.17h3.14V690.96z"/>
		<path class="st9" d="M1531.47,365.02c0,0,18.62,7.05,23.8,13.11s39.28,294.73,33.08,315.89c-6.21,21.16-167.56,20.16-185.15,12.11
			c-17.59-8.05-1.09-303.38,7.23-318.22s24.48-18.37,24.48-18.37L1531.47,365.02z"/>
		<path class="st10" d="M1453.32,391.44l33.69-7.39l40.24,14.97l-0.61,56.9c0,0-33.83,99.95-35.05,98.75s-28.44-113.39-28.44-113.39
			L1453.32,391.44z"/>
		<path class="st5" d="M1590.12,348.85c0,0-24.82-19.17-29.46-29.28s13.98-21.16,13.98-21.16l36.69,3.53c0,0,8.8,21.69,7.23,38.86
			C1616.99,357.97,1590.12,348.85,1590.12,348.85z"/>
		<path class="st9" d="M1583.92,349.38c3.61-2.53,40.3-15.64,44.46-13.64c4.16,2,52.24,119.58,51.69,150.39
			s-28.44,37.86-42.42,32.81c-13.98-5.06-76.52-55.5-76.52-55.5l-14.46-75.2l9.27-8.58l58.92,55.03L1583.92,349.38z"/>
		<path class="st9" d="M1602.53,241.91c0,0-14.46-47.91-21.21-49.98c-6.75-2.06-49.1,15.11-56.88,22.69
			c-7.77,7.59,28.44,106.47,34.1,108.47c5.66,2,46.03-11.58,52.72-15.64C1617.95,303.4,1604.03,248.44,1602.53,241.91z"/>
		<path class="st8" d="M1594.62,245.24c0,0-11.12-37.66-16.3-39.2c-5.18-1.6-37.78,11.91-43.78,17.83
			c-6,5.92,21.89,83.58,26.26,85.18c4.36,1.6,35.39-9.12,40.58-12.31C1606.56,293.55,1595.78,250.43,1594.62,245.24z"/>
		<path class="st5" d="M1512.85,328.69c0,0,3.07,32.27,5.18,51.44c2.05,19.17-78.63,6.06-78.63,6.06s16.57-44.39,16.57-64.62
			S1512.85,328.69,1512.85,328.69z"/>
		<polygon class="st11" points="1493.01,413 1506.65,475.22 1492.26,555.34 1460.34,491.53 1481.21,409.94 		"/>
		<path class="st12" d="M1505.69,398.69c0,0-1.84,22.43-19.03,22.43c-17.25,0-20.87-26.49-20.87-26.49l21.75-12.24L1505.69,398.69z"
			/>
		<path class="st13" d="M1434.97,359.97l52.65,22.49c0,0-16.3,34.67-27.21,35.67c-10.91,1-20.87-21.43-20.87-21.43L1434.97,359.97z"
			/>
		<ellipse class="st5" cx="1385.67" cy="238.85" rx="24.82" ry="25.22"/>
		<ellipse class="st5" cx="1557.32" cy="238.85" rx="24.82" ry="25.22"/>
		<path class="st6" d="M1559.5,212.63c0,0,17.19,130.16-69.7,136.22c-89.75,6.26-103.05-92.83-98-146.33s65.67-70.67,65.67-70.67
			l75.77-2l28.3,28.28l3,35.34L1559.5,212.63z"/>
		<path class="st14" d="M1552.82,72.96c-5.66-0.2-9.82,4.86-13.84,8.72c-13.98,13.51-35.26,16.57-54.9,16.24s-39.62-3.39-58.79,0.8
			c-28.85,6.32-52.92,30.08-59.06,58.29c-6.14,28.22,13.23,77.86,29.8,76.66c11.39-1.8,1.64-45.98,15.69-63.68
			c6.27-7.92,16.98-11.31,27.21-11.58c10.23-0.27,20.32,2.13,30.42,3.66c25.1,3.79,51.01,2.46,75.49-4.06
			c1.64,19.83,3.21,39.66,4.84,59.49c0.2,2.79,0.55,5.86,2.52,7.85c3,3.06,8.59,2.2,11.66-0.73c3.14-2.93,4.3-7.32,5.05-11.51
			c3.82-21.36-0.68-43.85,6.07-64.55c6.82-20.96,24.89-39.13,23.53-61.09c-0.41-6.52-3.89-13.97-10.5-14.91
			c-13.57-1.8-15.96,23.09-29.53,24.75c2.46-4.39,4.57-9.32,4.02-14.31C1561.89,78.08,1558,73.15,1552.82,72.96z"/>
		<path class="st8" d="M1434.97,359.97c-3.21-4.46-17.46,14.57-20.12,23.22c-2.66,8.65,17.46,68.41,17.46,68.41l22.71-4.79
			l-10.91,26.02c0,0,44.46,75.26,48.08,82.98C1492.12,555.74,1483.94,427.44,1434.97,359.97z"/>
		<path class="st13" d="M1522.06,361.9c0,0-29.94,19.5-34.51,20.56c-4.57,1,16.3,25.49,24.48,31.61
			c8.18,6.12,24.48-20.36,24.48-20.36L1522.06,361.9z"/>
		<path class="st8" d="M1492.12,555.74c-1.57,2.53,14.53-167.83,29.94-193.91c0,0,8.46-1.8,12.96,0.13
			c4.57,1.93,9.68,65.48,7.91,68.34c-1.84,2.86-14.53,11.58-14.53,11.58l9.96,20.23C1538.36,462.18,1499.35,544.16,1492.12,555.74z"
			/>
		<path class="st6" d="M1369.57,664.74c0,0,9.27,13.11,19.64,27.22c10.37,14.11,19.64,24.22,9.27,25.22s-15.48-7.05-15.48-7.05
			s10.37,29.28,3.07,32.27c-7.3,2.99-16.57,0-16.57,0s-4.16,7.05-14.46,2.99c0,0-13.43,2.99-19.64-5.06
			c-6.21-8.05-8.25-62.55,3.07-79.72C1349.93,643.58,1369.57,664.74,1369.57,664.74z"/>
		<path class="st15" d="M1555.27,378.13"/>
		<path class="st9" d="M1411.31,390.04c-16.5,16.3-45.9,57.5-65.81,111.66c-24.82,67.61-20.8,173.62-11.93,172.55
			c18.55-2.06,38.67-2,41.67-4.06c3-2-1.98-44.39,4.98-93.83c4.43-31.34,15.14-69.94,22.5-94.03c2.93-46.65,6.62-83.85,9.41-91.17
			C1411.86,390.78,1411.58,390.44,1411.31,390.04z"/>
		<path class="st15" d="M1587.8,690.5"/>
		<ellipse class="st8" cx="1492.87" cy="586.55" rx="10.37" ry="10.11"/>
		<ellipse class="st8" cx="1492.87" cy="656.16" rx="10.37" ry="10.11"/>
		<path class="st6" d="M1606.63,229.8c-7.64-2.33-24.14,0-21.41,7.05c2.8,7.05,11.05,8.05,11.05,8.05s-14.46,4.53-11.87,9.05
			c2.59,4.53,15.48,6.06,15.48,6.06s-10.37,6.59-4.64,11.58c5.66,5.06,15,2.99,19.16,0.53
			C1618.56,269.66,1614.95,232.26,1606.63,229.8z"/>
		<path class="st16" d="M1528.13,95.45c-20.46,8.25-41.12,12.71-63.29,12.84c-10.91,0.07-21.82,0.07-32.53,2.46
			c-8.8,2-18.34,5.92-23.73,13.31c-1.02,1.4,0.95,3.19,2.39,2.33c8.05-5.12,15.82-8.65,25.37-10.18c11.25-1.73,22.98-0.6,34.3-0.6
			c20.6,0.07,42.42-3.39,59.88-14.64C1533.31,99.17,1531.61,94.05,1528.13,95.45z"/>
		<path class="st16" d="M1566.12,108.02c-10.91,6.39-21.62,12.91-33.42,17.5c-11.87,4.59-24.35,6.92-37.1,6.99
			c-13.84,0.07-27.42-3.19-41.26-3.13c-11.25,0.07-24.07,2.93-31.92,11.31c-1.36,1.4,0.48,4.13,2.25,2.79
			c22.91-16.9,50.6-2.46,76.04-2.33c24.96,0.13,53.06-8.85,70.58-26.62C1574.57,111.15,1570.34,105.56,1566.12,108.02z"/>
		<path class="st16" d="M1411.65,149.08c-12.55-2.66-21.21,14.17-20.6,24.16c0.14,2.6,3.75,3.79,5.18,1.4
			c2.52-4.19,3.68-8.98,6.07-13.31c2.25-4.13,6-5.86,9.89-8.05C1413.9,152.28,1413.7,149.48,1411.65,149.08z"/>
		<path class="st16" d="M1400.53,138.84c-6.68-1.6-11.73,3.46-16.09,7.72c-4.5,4.33-8.25,9.52-7.23,15.9c0.34,2.13,3.41,1.73,4.02,0
			c1.43-4.13,3.68-7.72,6.55-10.98c3.07-3.53,7.02-8.52,12.14-8.38C1402.38,143.09,1402.92,139.43,1400.53,138.84z"/>
		<path class="st8" d="M1468.73,622.89c-15.82-2.66-30.82-10.38-40.44-23.09c-1.7-2.2-5.52-0.13-3.82,2.2
			c10.16,14.17,25.85,23.89,43.71,24.95C1470.5,627.01,1471.05,623.29,1468.73,622.89z"/>
		<path class="st8" d="M1559.71,597.6c-6,3.53-11.59,7.45-17.12,11.58c-5.59,4.13-11.59,8.98-18.69,10.25
			c-2.39,0.4-1.84,4.26,0.55,4.13c7.23-0.4,12.96-3.99,18.89-7.72c6.89-4.39,13.23-9.18,19.16-14.71
			C1564.34,599.33,1561.89,596.27,1559.71,597.6z"/>
		<path class="st8" d="M1410.63,405.82c-4.71,12.91-7.71,26.88-7.16,40.66c0.07,1.86,2.66,1.8,2.86,0
			c1.57-13.51,3.61-26.68,7.84-39.73C1414.92,404.55,1411.45,403.69,1410.63,405.82z"/>
		<path class="st8" d="M1401.63,461.18c0.07,1.33,0.14,2.6,0.2,3.93c0.07,1.4,2.11,1.4,2.18,0c0.07-1.33,0.14-2.6,0.2-3.93
			C1404.35,459.52,1401.56,459.52,1401.63,461.18z"/>
		<path class="st8" d="M1556.16,390.04c-0.82-1.66-3.27-0.2-2.52,1.4c6.27,13.11,8.66,26.62,10.91,40.79
			c0.27,1.8,3.14,1.33,3.21-0.4C1567.89,417.39,1562.71,402.75,1556.16,390.04z"/>
		<path class="st8" d="M1569.32,443.75c-0.34-1.73-3-1-2.66,0.73c0.48,2.4,0.61,4.99,0.55,7.45c0,1.06,1.64,1.33,1.91,0.27
			C1569.94,449.27,1569.94,446.61,1569.32,443.75z"/>
		<path class="st8" d="M1411.99,1054.17c-3.27-1.6-7.16-1.8-10.78-2.4c-0.14,0-0.27-0.07-0.41-0.07c0.14-2.46,0.14-4.92,0.27-7.19
			c0.2-2.33-3.82-2.86-4.23-0.53c-0.41,2.2-1.02,4.53-1.5,6.92l-6.07-0.93c-1.91-0.33-2.8,2.4-0.82,2.93
			c2.11,0.53,4.16,1.06,6.27,1.6c-0.27,2-0.34,3.99,0,5.92c0.34,1.86,3.48,2.26,4.23,0.53c0.68-1.53,1.16-3.26,1.43-4.99
			c3.41,0.87,7.02,2.2,10.5,2.06C1412.88,1057.83,1413.9,1055.1,1411.99,1054.17z"/>
		<path class="st8" d="M1605.47,1053.43c-2.39-1.26-5.05-1.26-7.71-1.2c0.68-1.93,1.23-3.79,1.91-5.59
			c1.02-2.66-3.55-4.53-4.71-1.93c-1.09,2.53-2.46,5.12-3.61,7.79c-2.25,0.13-4.43,0.27-6.68,0.4c-3.21,0.2-3.27,4.79,0,4.86
			c1.57,0.07,3.14,0.13,4.71,0.13c-0.27,0.93-0.41,1.8-0.55,2.73c-0.34,2.53,3.21,2.73,4.43,1.2c0.82-1.06,1.57-2.33,2.18-3.59
			c0.14,0,0.27,0,0.48,0c3.41,0.2,6.48,0.67,9.62-0.6C1607.24,1056.9,1607.03,1054.23,1605.47,1053.43z"/>
		<path class="st17" d="M1487.42,272.33c3.41-0.6,13.16-3.26,9.89-8.32c-2.73-4.26-6.34-7.92-9.27-11.98
			c-0.95-1.4,1.02-3.39,2.39-2.33c3.21,2.33,6,5.26,8.59,8.25c2.32,2.66,4.98,5.39,4.84,9.12c-0.34,7.25-10.43,10.65-16.44,9.72
			C1485.17,276.38,1485.17,272.72,1487.42,272.33z"/>
		<path class="st14" d="M1507.19,190.08c7.09-1.8,17.53,0.47,19.78,8.32c0.89,3.06-2.18,6.26-5.46,5.32
			c-4.02-1.2-6.68-2.99-10.91-1.4C1502.9,205.11,1499.01,192.14,1507.19,190.08z"/>
		<path class="st14" d="M1434.84,198.99c2.11-3.59,5.18-5.52,9.07-7.05s9.96-1.53,12.75,1.93c2.8,3.53,2.39,7.45-1.36,10.18
			c-2.52,1.8-5.73,1.46-8.66,1.46c-1.64,0-3.89,0.6-5.86,1.06C1436.34,207.64,1432.52,203.05,1434.84,198.99z"/>
		<g class="st18">
			<path class="st19" d="M1511.29,215.43c1.3-0.47,2.8-0.6,4.64-0.27c12,2.33,10.64,22.49,0.2,26.09c-5.25,1.8-7.71-2.46-8.73-6.32
				c-0.75-1.66-1.16-3.46-1.36-5.26C1505.35,224.94,1506.17,217.36,1511.29,215.43z"/>
			<path class="st20" d="M1514.42,221.48c0.34-0.6,1.09-1.26,1.84-1.33c0.27-0.07,0.61-0.07,0.89-0.13c0.75,0,1.09,0.2,1.7,0.47
				c0.41,0.2,0.75,0.53,1.09,0.87c1.09,1,1.3,2.4,0.82,3.73c-0.41,1.2-1.43,2-2.73,2.06c-0.14,0-0.27,0-0.41,0
				c-0.95-0.07-1.7-0.33-2.39-1c-0.34-0.33-0.48-0.53-0.68-0.93c-0.34-0.67-0.61-1.33-0.55-2.13
				C1514.01,222.42,1514.15,222.02,1514.42,221.48z"/>
		</g>
		<g class="st18">
			<path class="st19" d="M1447.04,220.82c1.3-0.47,2.8-0.6,4.64-0.27c12,2.33,10.64,22.49,0.2,26.09c-5.25,1.8-7.71-2.46-8.73-6.32
				c-0.75-1.66-1.16-3.46-1.36-5.26C1441.11,230.33,1441.93,222.75,1447.04,220.82z"/>
			<path class="st20" d="M1450.18,226.87c0.34-0.6,1.09-1.26,1.84-1.33c0.27-0.07,0.61-0.07,0.89-0.13c0.75,0,1.09,0.2,1.7,0.47
				c0.41,0.2,0.75,0.53,1.09,0.87c1.09,1,1.3,2.4,0.82,3.73c-0.41,1.2-1.43,2-2.73,2.06c-0.14,0-0.27,0-0.41,0
				c-0.95-0.07-1.7-0.33-2.39-1c-0.34-0.33-0.48-0.53-0.68-0.93c-0.34-0.67-0.61-1.33-0.55-2.13
				C1449.77,227.81,1449.91,227.41,1450.18,226.87z"/>
		</g>
		<path class="st21" d="M1476.64,293.09c2.59-5.52,30.14-5.92,36.14-2.46c6,3.39,2.66,20.16-15.41,21.76
			C1479.23,313.85,1474.73,297.08,1476.64,293.09z"/>
		<path class="st22" d="M1514.9,300.01c1.23-4.06,0.41-7.99-2.18-9.38c-6-3.39-33.55-3.06-36.14,2.46c-0.82,1.66-0.48,5.59,1.5,9.45
			c6.21-3.39,13.23-5.39,20.39-5.46C1504.13,296.95,1509.72,297.95,1514.9,300.01z"/>
	</g>
	<g>
		<path class="st23" d="M484.17,1041.86c-14.94,6.99-29.94,13.97-44.87,20.96c-2.8,1.33-5.86,2.86-7.09,5.59
			c-1.36,3.06-0.07,6.79,2.39,9.18c2.46,2.4,5.8,3.59,9.07,4.59c14.66,4.33,30.21,4.39,45.49,4.46c12.07,0,25.23-0.33,34.58-7.85
			c9.96-7.92,12.41-23.42,5.46-33.94C522.16,1034.34,495.77,1036.47,484.17,1041.86z"/>
		<path class="st23" d="M650.16,1041.86c14.94,6.99,29.94,13.97,44.87,20.96c2.8,1.33,5.86,2.86,7.09,5.59
			c1.36,3.06,0.07,6.79-2.39,9.18c-2.46,2.4-5.8,3.59-9.07,4.59c-14.66,4.33-30.21,4.39-45.49,4.46c-12.07,0-25.23-0.33-34.58-7.85
			c-9.96-7.92-12.41-23.42-5.46-33.94C612.18,1034.34,638.57,1036.47,650.16,1041.86z"/>
		<path class="st24" d="M484.99,690.96c0,0-17.59,338.12-12.41,348.17c5.18,10.05,53.81,9.05,63.08,6.06
			c9.27-2.99,15.48-289.67,18.62-297.72c3.07-8.05,22.78-5.06,27.89,1c5.18,6.06,9.27,287.61,14.46,293.66s53.81,5.06,64.11-5.06
			c10.3-10.11-9.27-345.17-15.48-356.28s-163.4,10.11-163.4,10.11"/>
		<path class="st25" d="M530.48,365.02c0,0-18.62,7.05-23.8,13.11c-5.18,6.06-39.28,294.73-33.08,315.89
			c6.21,21.16,167.56,20.16,185.15,12.11c17.59-8.05,1.09-303.38-7.23-318.22c-8.32-14.84-84.84,4.33-84.84,4.33L530.48,365.02z"/>
		<path class="st20" d="M541.94,388.71l34.1-5.32l39.15,17.43l-14.73,48.31c0,0-29.73,106.14-30.89,104.81
			c-1.16-1.33-21.07-114.92-21.07-114.92L541.94,388.71z"/>
		<path class="st26" d="M549.1,328.69c0,0-3.07,32.27-5.18,51.44c-2.05,19.17,78.63,6.06,78.63,6.06s-16.57-44.39-16.57-64.62
			S549.1,328.69,549.1,328.69z"/>
		<path class="st27" d="M385.9,436.49c0,0,0.82-19.83-16.09-28.02c-16.91-8.25-21.21-11.65-28.37-23.29s-27.35,4.46-7.71,17.77
			c0,0-20.73-6.19-33.35-24.75c-12.62-18.57-20.46-20.9-24.89-13.77c-4.43,7.12,5.8,36.6,26.94,44.98
			c21.14,8.45,37.99,27.22,51.69,38.66C367.83,459.52,385.9,436.49,385.9,436.49z"/>
		<path class="st25" d="M507.77,377.4c0,0-0.41,0.87-1.23,2.4c-8.18,15.51-54.01,102.15-58.72,107.67
			c-5.18,6.06-53.81-74.66-60.01-75.66c-6.21-1-41.4,36.33-43.44,42.39c-2.05,6.06,75.49,100.95,92.07,105.94
			c16.57,5.06,52.72-45.38,66.22-72.67"/>
		<polygon class="st28" points="569.01,413 555.37,475.22 569.62,554.81 601.68,491.53 580.81,409.94 		"/>
		<path class="st29" d="M556.26,398.69c0,0,1.84,22.43,19.03,22.43s20.87-26.49,20.87-26.49l-21.75-12.24L556.26,398.69z"/>
		<path class="st30" d="M627.05,359.97l-52.65,22.49c0,0,16.3,34.67,27.21,35.67c10.91,1,20.87-21.43,20.87-21.43L627.05,359.97z"/>
		<ellipse class="st26" cx="676.35" cy="238.85" rx="24.82" ry="25.22"/>
		<ellipse class="st26" cx="504.63" cy="238.85" rx="24.82" ry="25.22"/>
		<path class="st27" d="M502.45,212.63c0,0-17.19,130.16,69.7,136.22c89.75,6.26,103.05-92.83,98-146.33s-65.67-70.67-65.67-70.67
			l-75.77-2l-28.3,28.28l-3,35.34L502.45,212.63z"/>
		<path class="st31" d="M509.2,72.96c5.66-0.2,9.82,4.86,13.84,8.72c13.98,13.51,35.26,16.57,54.9,16.24
			c19.64-0.33,39.62-3.39,58.79,0.8c28.85,6.32,52.92,30.08,59.06,58.29c6.14,28.28-13.23,77.86-29.8,76.66
			c-11.39-1.8-1.64-45.98-15.69-63.68c-6.27-7.92-16.98-11.31-27.21-11.58c-10.23-0.27-20.32,2.13-30.42,3.66
			c-25.1,3.79-51.01,2.46-75.49-4.06c-1.64,19.83-3.21,39.66-4.84,59.49c-0.2,2.79-0.55,5.86-2.52,7.85c-3,3.06-8.59,2.2-11.66-0.73
			c-3.14-2.93-4.3-7.32-5.05-11.51c-3.82-21.36,0.68-43.85-6.07-64.55c-6.82-20.96-24.89-39.13-23.53-61.09
			c0.41-6.52,3.89-13.97,10.5-14.91c13.57-1.8,15.96,23.09,29.53,24.75c-2.46-4.39-4.57-9.32-4.02-14.31
			C500.06,78.08,504.02,73.15,509.2,72.96z"/>
		<path class="st24" d="M627.05,359.97c3.21-4.46,21.75,19.3,24.48,27.95c2.73,8.65-21.75,63.68-21.75,63.68l-22.71-4.79
			l10.91,26.02c0,0-44.46,75.26-48.08,82.98C569.9,555.74,578.08,427.44,627.05,359.97z"/>
		<path class="st30" d="M539.96,361.9c0,0,29.94,19.5,34.51,20.56c4.57,1.06-16.3,25.49-24.48,31.61
			c-8.18,6.12-24.48-20.36-24.48-20.36L539.96,361.9z"/>
		<path class="st24" d="M569.9,555.74c1.57,2.53-14.53-167.83-29.94-193.91c0,0-8.18-1.93-12.68,0c-4.57,1.93-9.96,65.61-8.18,68.48
			c1.84,2.86,14.53,11.58,14.53,11.58l-10.02,20.3C523.59,462.18,562.67,544.16,569.9,555.74z"/>
		<path class="st32" d="M702.2,558.8c0,0-100.32,0-113.75,6.06c-13.43,6.06,4.16,155.45,11.39,161.51
			c7.23,6.06,190.34,12.11,213.05,1s-6.21-162.5-9.27-168.56C800.47,552.75,737.39,557.8,702.2,558.8z"/>
		<path class="st27" d="M698.04,664.74c0,0-9.27,13.11-19.64,27.22c-10.37,14.11-19.64,24.22-9.27,25.22
			c10.37,1,15.48-7.05,15.48-7.05s-10.37,29.28-3.07,32.27c7.23,2.99,16.57,0,16.57,0s4.16,7.05,14.46,2.99
			c0,0,13.43,2.99,19.64-5.06c6.21-8.05,8.25-62.55-3.07-79.72C717.82,643.45,698.04,664.74,698.04,664.74z"/>
		<path class="st25" d="M718.5,499.24c-20.05-54.63-49.78-96.09-66.22-112.13c-0.2,0.33-0.41,0.67-0.61,1
			c2.86,5.79,6.62,43.79,9.68,91.7c7.3,24.09,18.07,62.69,22.5,94.03c6.96,49.44,1.98,91.83,4.98,93.83c3,2,23.12,1.93,41.67,4.06
			C739.37,672.8,743.32,566.85,718.5,499.24z"/>
		<ellipse class="st24" cx="569.83" cy="594.14" rx="10.37" ry="10.11"/>
		<ellipse class="st24" cx="566.69" cy="663.75" rx="10.37" ry="10.11"/>
		<path class="st33" d="M534.78,99.44c20.46,8.25,41.12,12.71,63.29,12.84c10.91,0.07,21.82,0.07,32.53,2.46
			c8.8,2,18.34,5.92,23.73,13.31c1.02,1.4-0.95,3.19-2.39,2.33c-8.05-5.12-15.82-8.65-25.37-10.18c-11.25-1.73-22.98-0.6-34.3-0.6
			c-20.6,0.07-42.42-3.39-59.88-14.64C529.59,103.17,531.37,98.04,534.78,99.44z"/>
		<path class="st33" d="M496.86,112.02c10.91,6.39,21.62,12.91,33.42,17.5c11.87,4.59,24.35,6.92,37.1,6.99
			c13.84,0.07,27.42-3.19,41.26-3.13c11.25,0.07,24.07,2.93,31.92,11.31c1.36,1.4-0.48,4.13-2.25,2.79
			c-22.91-16.9-50.6-2.46-76.04-2.33c-24.96,0.13-53.06-8.85-70.58-26.62C488.4,115.14,492.63,109.56,496.86,112.02z"/>
		<path class="st33" d="M651.32,153.01c12.55-2.66,21.21,14.17,20.6,24.16c-0.14,2.6-3.75,3.79-5.18,1.4
			c-2.52-4.19-3.68-8.98-6.07-13.31c-2.25-4.13-6-5.86-9.89-8.05C649.07,156.2,649.28,153.48,651.32,153.01z"/>
		<path class="st33" d="M662.44,142.83c6.68-1.6,11.73,3.46,16.09,7.72c4.5,4.33,8.25,9.52,7.23,15.9c-0.34,2.13-3.41,1.73-4.02,0
			c-1.43-4.13-3.68-7.72-6.55-10.98c-3.07-3.53-7.02-8.52-12.14-8.38C660.53,147.09,660.05,143.43,662.44,142.83z"/>
		<path class="st34" d="M657.12,628.28c-6.96-0.8-12.62,5.86-11.93,12.24c0.34,3.33,1.91,6.06,4.16,7.92
			c0.2,0.13,0.41,0.33,0.61,0.47c0.07,0.07,0.07,0.07,0.14,0.13c0.95,0.67,1.98,1.2,3.14,1.6c6.62,2.06,14.12-1.86,15.21-8.72
			C669.67,634.47,664.35,629.14,657.12,628.28z"/>
		<path class="st34" d="M644.98,625.08c-7.64-9.65-16.5-18.57-25.03-27.42c-9.14-9.52-18.55-18.7-28.17-27.68
			c-1.36-1.26-3.34,0.73-2.05,2c9.07,8.92,17.87,18.03,26.53,27.28c8.66,9.25,16.64,19.17,25.37,28.35
			C643.28,629.27,646.48,626.95,644.98,625.08z"/>
		<path class="st34" d="M649.55,657.09c-7.16,10.85-14.18,21.76-21,32.81c-3.55,5.72-6.96,11.51-10.3,17.3
			c-2.8,4.79-7.84,10.85-7.98,16.57c0,1.46,1.84,2.66,3.21,1.8c4.5-3.06,6.62-9.58,9.14-14.17c3.21-5.92,6.55-11.78,9.75-17.63
			c6.48-11.78,13.09-23.49,19.91-35.07C653.37,656.89,650.64,655.43,649.55,657.09z"/>
		<path class="st34" d="M801.83,563.39c-0.41-0.6-0.89-1-1.57-1.33c-0.61-0.4-1.5-0.53-2.18-0.73c-0.95-0.27-1.98,0.33-2.25,1.26
			c-0.27,1,0.34,1.86,1.3,2.2c0.55,0.2,1.09,0.47,1.7,0.67c0.61,0.27,1.57,0.13,2.18,0C801.83,565.26,802.38,564.13,801.83,563.39z"
			/>
		<path class="st34" d="M801.9,569.65l-1.91-0.27c-0.75-0.13-1.5,0.33-1.5,1.13c0,0.8,0.75,1.26,1.5,1.13
			c0.61-0.07,1.3-0.2,1.91-0.27C802.72,571.18,802.72,569.78,801.9,569.65z"/>
		<path class="st34" d="M801.49,578.57c-0.34-0.07-0.61-0.13-0.95-0.2c-0.95-0.27-1.98,0.47-1.98,1.46c0,1,1.02,1.73,1.98,1.46
			c0.34-0.07,0.61-0.13,0.95-0.2C802.72,580.7,802.72,578.83,801.49,578.57z"/>
		<path class="st34" d="M804.9,587.75c-0.48-0.2-1.02-0.53-1.57-0.53c-0.41,0-0.82,0-1.23,0c-1.02,0-1.84,0.8-1.84,1.8
			s0.82,1.73,1.84,1.8c0.34,0,0.75,0,1.09,0c0.61,0,1.16-0.27,1.7-0.53C805.93,589.95,805.93,588.22,804.9,587.75z"/>
		<path class="st34" d="M807.29,600.73l-0.27-0.27c-0.34-0.33-0.68-0.47-1.09-0.6c-0.41-0.13-0.82-0.27-1.23-0.4
			c-1.02-0.33-2.18,0.4-2.46,1.4c-0.27,0.93,0.34,2.26,1.43,2.4c0.34,0.07,0.75,0.13,1.09,0.2c0.48,0.07,0.89,0.13,1.3,0.07
			l0.55-0.13C807.7,603.06,808.18,601.53,807.29,600.73z"/>
		<path class="st34" d="M808.24,609.64c-0.27-0.33-0.48-0.6-0.82-0.73c-0.27-0.13-0.55-0.2-0.82-0.33c-0.48-0.2-0.95-0.33-1.5-0.2
			c-0.48,0.13-0.89,0.47-1.16,0.87c-0.61,1.06-0.07,2.46,1.16,2.79c0.27,0.07,0.55,0.13,0.82,0.2c0.55,0.13,1.02,0.07,1.57-0.07
			c0.55-0.13,0.95-0.53,1.09-1.06C808.79,610.51,808.59,610.04,808.24,609.64z"/>
		<path class="st34" d="M810.77,619.29c-1.16-1-2.52-1.6-4.16-1.4c-1.16,0.13-2.11,0.87-2.11,2.06c0,1.4,1.36,2.26,2.66,2
			c0.07,0,0.07,0,0.07,0c0.07,0,0.07,0,0.2,0c0.14,0,1.16-0.13,0.61-0.07c0.41-0.07,0.89,0,1.16,0.07c0.68,0.13,1.43-0.07,1.77-0.73
			C811.38,620.62,811.31,619.76,810.77,619.29z"/>
		<path class="st34" d="M811.31,629.07c-0.2-0.27-0.48-0.53-0.68-0.8c-0.89-1-2.59-0.67-3.21,0.4c-0.34,0.6-0.34,1.4,0,2
			c0.41,0.67,1.02,0.93,1.77,1c0.34,0,0.68,0.07,1.02,0.07c0.55,0.07,1.16-0.33,1.43-0.8C811.93,630.41,811.79,629.67,811.31,629.07
			z"/>
		<path class="st34" d="M812.95,638.99c-0.61-0.27-1.16-0.53-1.77-0.73c-0.61-0.2-1.36-0.13-2.05-0.13c-1.57-0.07-1.77,2.2-0.34,2.6
			c0.61,0.2,1.3,0.47,1.98,0.47c0.61,0,1.23-0.07,1.91-0.07C813.97,641.05,814.11,639.46,812.95,638.99z"/>
		<path class="st34" d="M814.04,649.9c-1.3-1.2-3.14-1.4-4.91-1.4c-1.7,0-1.64,2.4,0,2.53c1.36,0.13,2.66,0.67,4.02,0.8
			C814.25,652.03,814.79,650.57,814.04,649.9z"/>
		<path class="st34" d="M815.27,662.08c-1.09-0.8-2.46-1.26-3.75-1.73c-1.43-0.6-2.39,1.8-1.02,2.4c1.3,0.53,2.52,1.2,3.89,1.46
			C815.75,664.34,816.36,662.81,815.27,662.08z"/>
		<path class="st34" d="M815.75,674.86c-1.16-0.73-2.46-1-3.75-1.33c-1.7-0.47-2.39,2.06-0.75,2.6l1.7,0.53
			c0.75,0.27,1.36,0.33,2.11,0.33C816.36,677.12,816.77,675.46,815.75,674.86z"/>
		<path class="st34" d="M816.36,688.9c-0.2-0.07-0.34-0.13-0.55-0.27c-0.14-0.13-0.34-0.2-0.55-0.27c-0.07,0-0.07,0-0.07,0
			c-0.2-0.07-0.34-0.2-0.55-0.27c-0.14-0.13-0.2-0.13-0.07-0.07c-0.07-0.07-0.14-0.13-0.2-0.2c-0.68-0.6-1.77-0.67-2.39,0
			c-0.61,0.6-0.75,1.8,0,2.33c0.61,0.47,1.16,0.8,1.84,1.06c0.75,0.27,1.43,0.27,2.18,0.07
			C817.11,691.03,817.45,689.37,816.36,688.9z"/>
		<path class="st34" d="M816.22,701.68c-0.27-0.27-0.55-0.6-0.89-0.87c-0.41-0.4-1.02-0.67-1.57-0.87
			c-1.02-0.47-2.25-0.27-2.86,0.73c-0.68,1.13-0.07,2.66,1.3,3.06c0.41,0.13,0.89,0.27,1.3,0.33c0.61,0.07,1.16,0,1.77,0
			C816.43,703.94,817.11,702.61,816.22,701.68z"/>
		<path class="st34" d="M813.77,711.99c-0.61-0.27-1.23-0.6-1.77-0.87c-0.82-0.4-1.91-0.07-2.18,0.87c-0.27,0.93,0.48,1.8,1.43,1.86
			c0.68,0,1.36,0.07,1.98,0.07C814.25,713.99,814.72,712.46,813.77,711.99z"/>
		<path class="st34" d="M810.43,721.37c-0.48-0.07-0.95-0.2-1.43-0.27c-0.82-0.2-1.7,0.4-1.7,1.26c0,0.87,0.89,1.46,1.7,1.26
			c0.48-0.07,0.95-0.2,1.43-0.27C811.45,723.04,811.45,721.57,810.43,721.37z"/>
		<path class="st24" d="M541.32,626.15c-6.27-2.73-12.48-6.12-17.8-10.38c-5.59-4.53-8.93-10.18-13.23-15.7
			c-1.09-1.4-3.41-0.6-3,1.2c1.77,6.92,7.37,13.31,12.48,18.1c5.59,5.26,12.21,8.92,19.78,10.71
			C541.94,630.67,543.71,627.21,541.32,626.15z"/>
		<path class="st24" d="M657.73,405.08c-0.27-1.53-2.59-0.87-2.39,0.67c1.64,10.45,2.25,20.96,2.8,31.54c0.07,1.66,2.52,1.66,2.59,0
			C661.21,426.44,659.85,415.73,657.73,405.08z"/>
		<path class="st24" d="M659.78,455.06c-0.27-1.66-3-1-2.59,0.67c0.48,2,0.55,3.99,0.41,5.99c-0.07,1.13,1.77,1.33,1.98,0.27
			C660.19,459.65,660.19,457.39,659.78,455.06z"/>
		<path class="st24" d="M506.54,394.9c-6.41,18.1-12.34,37.33-13.71,56.56c-0.14,1.6,2.52,1.93,2.86,0.4
			c4.09-18.9,7.23-37.8,13.16-56.3C509.27,394.1,507.02,393.5,506.54,394.9z"/>
		<path class="st24" d="M493.04,465.64c-0.34,4.19-1.09,8.52-0.68,12.71c0.14,1.66,2.66,2.2,3.14,0.4c1.16-4.26,1.16-8.78,1.5-13.11
			C497.2,463.18,493.24,463.18,493.04,465.64z"/>
		<path class="st24" d="M479.33,1059.09c-1.16-3.19-4.02-3.59-7.02-4.53c-0.14-0.07-0.27-0.07-0.41-0.13
			c0.61-2.26,1.16-4.59,1.57-6.72c0.48-2.53-3.14-4.39-4.43-1.86c-1.09,2.13-2.11,4.39-3.07,6.79c-2.66-0.73-5.32-1.53-7.98-2.26
			c-2.73-0.8-3.75,3.13-1.16,4.13c2.46,0.93,4.98,1.93,7.43,2.93c-0.82,2.6-1.36,5.19-1.64,7.72c-0.2,2.4,3.21,2.93,4.36,1.13
			c1.3-2,2.32-4.19,3.21-6.59c2.11,0.8,4.23,1.46,6.34,2.06C478.1,1062.29,479.88,1060.69,479.33,1059.09z"/>
		<path class="st24" d="M672.67,1046.05c-1.16,0.67-2.25,1.4-3.41,2.13c-1.16-1.26-2.39-2.46-3.48-3.73c-1.84-2-5.32,0.6-3.82,2.86
			c0.89,1.33,1.77,2.79,2.66,4.19c-1.36,1.13-2.59,2.33-3.75,3.66c-1.7,2.06,0.41,5.26,3,3.79c1.5-0.87,2.86-1.73,4.23-2.73
			c0.89,1,1.84,1.86,2.86,2.66c1.77,1.26,4.57-0.87,3.75-2.86c-0.48-1.2-1.09-2.26-1.77-3.33c0.82-0.6,1.7-1.2,2.59-1.8
			C678.6,1048.84,675.87,1044.12,672.67,1046.05z"/>
		<path class="st35" d="M571.87,274.72c-3.41-0.6-13.16-3.26-9.89-8.32c2.73-4.26,6.34-7.92,9.27-11.98
			c0.95-1.4-1.02-3.39-2.39-2.33c-3.21,2.33-6,5.26-8.59,8.25c-2.32,2.66-4.98,5.39-4.84,9.12c0.34,7.25,10.43,10.65,16.44,9.72
			C574.12,278.78,574.06,275.12,571.87,274.72z"/>
		<path class="st31" d="M552.03,192.47c-7.09-1.8-17.53,0.47-19.78,8.32c-0.89,3.06,2.18,6.26,5.46,5.32
			c4.02-1.2,6.68-2.99,10.91-1.4C556.33,207.51,560.21,194.53,552.03,192.47z"/>
		<path class="st31" d="M624.39,201.39c-2.11-3.59-5.18-5.52-9.07-7.05c-3.89-1.53-9.96-1.53-12.75,1.93
			c-2.8,3.53-2.39,7.45,1.36,10.18c2.52,1.8,5.73,1.46,8.66,1.46c1.64,0,3.89,0.6,5.86,1.06
			C622.89,210.04,626.77,205.45,624.39,201.39z"/>
		<g>
			<path class="st19" d="M548.01,217.82c-1.3-0.47-2.8-0.6-4.64-0.27c-12,2.33-10.64,22.49-0.2,26.09c5.25,1.8,7.71-2.46,8.73-6.32
				c0.75-1.66,1.16-3.46,1.36-5.26C553.87,227.34,553.05,219.75,548.01,217.82z"/>
			<path class="st20" d="M544.8,223.88c-0.34-0.6-1.09-1.26-1.84-1.33c-0.27-0.07-0.61-0.07-0.89-0.13c-0.75,0-1.09,0.2-1.7,0.47
				c-0.41,0.2-0.75,0.53-1.09,0.87c-1.09,1-1.3,2.4-0.82,3.73c0.41,1.2,1.43,2,2.73,2.06c0.14,0,0.27,0,0.41,0
				c0.95-0.07,1.7-0.33,2.39-1c0.34-0.33,0.48-0.53,0.68-0.93c0.34-0.67,0.61-1.33,0.55-2.13
				C545.21,224.81,545.07,224.41,544.8,223.88z"/>
		</g>
		<g>
			<path class="st19" d="M612.25,223.21c-1.3-0.47-2.8-0.6-4.64-0.27c-12,2.33-10.64,22.49-0.2,26.09c5.25,1.8,7.71-2.46,8.73-6.32
				c0.75-1.66,1.16-3.46,1.36-5.26C618.18,232.73,617.29,225.14,612.25,223.21z"/>
			<path class="st20" d="M609.04,229.27c-0.34-0.6-1.09-1.26-1.84-1.33c-0.27-0.07-0.61-0.07-0.89-0.13c-0.75,0-1.09,0.2-1.7,0.47
				c-0.41,0.2-0.75,0.53-1.09,0.87c-1.09,1-1.3,2.4-0.82,3.73c0.41,1.2,1.43,2,2.73,2.06c0.14,0,0.27,0,0.41,0
				c0.95-0.07,1.7-0.33,2.39-1c0.34-0.33,0.48-0.53,0.68-0.93c0.34-0.67,0.61-1.33,0.55-2.13
				C609.45,230.2,609.38,229.8,609.04,229.27z"/>
		</g>
		<path class="st20" d="M540.37,287.23c1.5-1.86,14.66,6.26,31.64,5.86c16.98-0.4,39.55-5.52,43.31-2.6
			c3.75,2.93-8.25,24.22-36.49,26.82C550.53,319.97,535.12,293.89,540.37,287.23z"/>
		<path class="st36" d="M598.61,299.87c-15.21,3.13-29.32,3.66-44.33-0.6c-1.23-0.33-2.05,1.53-0.89,2
			c14.12,6.12,31.71,7.65,46.24,2.06C601.81,302.54,601.06,299.41,598.61,299.87z"/>
	</g>
</g>
</svg>
