<?xml version="1.0" encoding="utf-8"?>
<!-- Generator: Adobe Illustrator 24.0.1, SVG Export Plug-In . SVG Version: 6.00 Build 0)  -->
<svg version="1.1" id="Layer_1" xmlns="http://www.w3.org/2000/svg" xmlns:xlink="http://www.w3.org/1999/xlink" x="0px" y="0px"
	 viewBox="0 0 1200 1200" style="enable-background:new 0 0 1200 1200;" xml:space="preserve">
<style type="text/css">
	.st0{display:none;fill:#CBD2D6;}
	.st1{display:none;}
	.st2{display:inline;fill:#92552E;}
	.st3{display:inline;fill:#BF7641;}
	.st4{display:inline;fill:#FAB077;}
	.st5{display:inline;fill:#FDCA93;}
	.st6{display:inline;fill:#102125;}
	.st7{display:inline;fill:#1C3036;}
	.st8{display:inline;fill:#30464C;}
	.st9{display:inline;fill:#FFFFFF;}
	.st10{display:inline;fill:#ED1A39;}
	.st11{display:inline;fill:#B9121D;}
	.st12{display:inline;fill:#BAD6E4;}
	.st13{display:inline;fill:#FBAE34;}
	.st14{display:inline;fill:#FFFFFF;stroke:#000000;stroke-linecap:round;stroke-linejoin:round;stroke-miterlimit:10;}
	.st15{display:inline;fill:#FFD459;}
	.st16{display:inline;fill:#CA7E4B;}
	.st17{display:inline;}
	.st18{fill:#5E3616;}
	.st19{fill:#FFFFFF;}
	.st20{display:inline;fill:#EE3047;}
	.st21{display:inline;fill:#BC102C;}
	.st22{fill:#CBD2D6;}
	.st23{fill:#102125;}
	.st24{fill:#1C3036;}
	.st25{fill:#30464C;}
	.st26{fill:#FAB077;}
	.st27{fill:#FDCA93;}
	.st28{fill:#ED1A39;}
	.st29{fill:#B9121D;}
	.st30{fill:#BAD6E4;}
	.st31{fill:#FBAE34;}
	.st32{fill:#DA8E4A;}
	.st33{fill:#FFD459;}
	.st34{fill:#A26A35;}
	.st35{fill:#CA7E4B;}
	.st36{fill:#D8D9DA;}
</style>
<g id="Object">
	<ellipse class="st0" cx="1079.7" cy="1084.1" rx="170.4" ry="34.6"/>
	<ellipse class="st0" cx="1533.9" cy="1084.1" rx="170.4" ry="34.6"/>
	<g class="st1">
		<path class="st2" d="M1213.3,703c0,0,5.5,0,15.5,7.6s7,36.3,7,36.3l16.3-0.7c0,0,0.8-28-6.2-40.1s-31.8-16.6-31.8-16.6L1213.3,703
			z"/>
		<path class="st2" d="M1276.9,742.4c11.7,0,27.1,0,27.1,0s1.6,132.5,0.8,137.8c-0.8,5.3-28.7,10.6-28.7,10.6l-24.1-57.5l-1.6-46.2
			L1276.9,742.4z"/>
		<path class="st3" d="M1110.9,737.8c3.9-5.3,166,4.5,166,4.5s3.9,142.3-0.8,148.3s-142.7,1.5-153.6-0.7
			C1111.7,887.7,1110.9,737.8,1110.9,737.8z"/>
		<path class="st4" d="M1207.9,641.7c0,0,0,11.4,6.2,23.5s3.9,26.5,3.9,26.5l-17.9,6.8l-27.1-5.5l-6.3-24.8l8.5-30.3l16.3-3.8
			L1207.9,641.7z"/>
		<path class="st5" d="M1185.4,712.1c11.2-2.7,10.8,0.7,15.5,0s3.1,4.5,11.7,3s10.1,0,11.7-4.5c1.6-4.5-0.8-30.3-7.8-30.3
			c-7,0-11.7,6.8-11.7,6.8s-7.8-13.6-13.2-10.6c-5.5,3-5.5,9-5.5,9s-2.3-8.3-9.3-4.5C1169.8,684.8,1176,714.4,1185.4,712.1z"/>
		<path class="st6" d="M1173.8,1043.8c14.9,7,29.9,14,44.9,21c2.8,1.3,5.9,2.9,7.1,5.6c1.4,3.1,0.1,6.8-2.4,9.2
			c-2.5,2.4-5.8,3.6-9.1,4.6c-14.7,4.3-30.2,4.4-45.5,4.5c-12.1,0-25.2-0.3-34.6-7.8c-10-7.9-12.4-23.4-5.5-33.9
			C1135.9,1036.2,1162.3,1038.4,1173.8,1043.8z"/>
		<path class="st6" d="M1007.9,1043.8c-14.9,7-29.9,14-44.9,21c-2.8,1.3-5.9,2.9-7.1,5.6c-1.4,3.1-0.1,6.8,2.4,9.2
			c2.5,2.4,5.8,3.6,9.1,4.6c14.7,4.3,30.2,4.4,45.5,4.5c12.1,0,25.2-0.3,34.6-7.8c10-7.9,12.4-23.4,5.5-33.9
			C1045.8,1036.2,1019.5,1038.4,1007.9,1043.8z"/>
		<path class="st7" d="M1176.1,692.9c0,0-157.2-21.2-163.4-10.1c-6.2,11.1-25.8,346.2-15.5,356.3s58.9,11.1,64.1,5.1
			c5.2-6.1,9.3-287.6,14.5-293.7c5.2-6.1,24.8-9,27.9-1c3.1,8,9.3,294.7,18.6,297.7s57.9,4.1,63.1-6.1S1173,692.9,1173,692.9
			L1176.1,692.9L1176.1,692.9L1176.1,692.9z"/>
		<path class="st8" d="M1127.5,366.9c0,0,18.6,7,23.8,13.1s39.3,294.7,33.1,315.9c-6.2,21.2-167.6,20.2-185.2,12.1
			s-1.1-303.4,7.2-318.2s24.5-18.4,24.5-18.4L1127.5,366.9z"/>
		<path class="st9" d="M1049.1,392.7l33.7-7.4l40.2,15l-0.6,56.9c0,0-33.8,99.9-35.1,98.7c-1.2-1.2-28.4-113.4-28.4-113.4
			L1049.1,392.7z"/>
		<path class="st8" d="M1151.3,380c19.3,10.3,61.2,201.1,63.6,263.9c0,0-22.5,6.1-41.9,5.3c-19.4-0.7-24.8-174.1-24.8-174.1
			L1151.3,380z"/>
		<path class="st4" d="M1108.9,330.6c0,0,3.1,32.3,5.2,51.4c2.1,19.2-78.6,6.1-78.6,6.1s16.6-44.4,16.6-64.6
			S1108.9,330.6,1108.9,330.6z"/>
		<polygon class="st10" points="1089,414.9 1102.7,477.1 1088.2,557.1 1056.3,493.4 1077.2,411.8 		"/>
		<path class="st11" d="M1101.8,400.6c0,0-1.8,22.4-19,22.4c-17.3,0-20.9-26.5-20.9-26.5l21.8-12.2L1101.8,400.6z"/>
		<path class="st12" d="M1031,361.9l52.6,22.5c0,0-16.3,34.7-27.2,35.7c-10.9,1-20.9-21.4-20.9-21.4L1031,361.9z"/>
		<ellipse class="st4" cx="981.7" cy="240.8" rx="24.8" ry="25.2"/>
		<ellipse class="st4" cx="1153.4" cy="240.8" rx="24.8" ry="25.2"/>
		<path class="st5" d="M1155.6,214.5c0,0,17.2,130.2-69.7,136.2c-89.8,6.3-103-92.8-98-146.3s65.7-70.7,65.7-70.7l75.8-2l28.3,28.3
			l3,35.3L1155.6,214.5z"/>
		<path class="st13" d="M1148.8,74.9c-5.7-0.2-9.8,4.9-13.8,8.7c-14,13.5-35.3,16.6-54.9,16.2c-19.6-0.4-39.6-3.4-58.8,0.8
			c-28.8,6.3-52.9,30.1-59.1,58.3c-6.1,28.3,13.2,77.9,29.8,76.7c11.4-1.8,1.6-46,15.7-63.7c6.3-7.9,17-11.3,27.2-11.6
			c10.2-0.3,20.3,2.1,30.4,3.7c25.1,3.8,51,2.5,75.5-4.1c1.6,19.8,3.2,39.7,4.8,59.5c0.2,2.8,0.6,5.9,2.5,7.9
			c3,3.1,8.6,2.2,11.7-0.7c3.1-2.9,4.3-7.3,5.1-11.5c3.8-21.4-0.7-43.9,6.1-64.6c6.8-21,24.9-39.1,23.5-61.1
			c-0.4-6.5-3.9-14-10.5-14.9c-13.6-1.8-16,23.1-29.5,24.8c2.5-4.4,4.6-9.3,4-14.3S1154,75.1,1148.8,74.9z"/>
		<path class="st7" d="M1031,361.9c-3.2-4.5-17.5,14.6-20.2,23.2s17.5,68.4,17.5,68.4l22.7-4.8l-10.9,26c0,0,44.5,75.3,48.1,83
			C1088.1,557.6,1079.9,429.3,1031,361.9z"/>
		<path class="st12" d="M1118.1,363.8c0,0-29.9,19.5-34.5,20.6c-4.6,1,16.3,25.5,24.5,31.6c8.2,6.1,24.5-20.4,24.5-20.4
			L1118.1,363.8z"/>
		<path class="st7" d="M1088.1,557.6c-1.6,2.5,14.5-167.8,29.9-193.9c0,0,8.5-1.8,13,0.1c4.6,1.9,9.7,65.5,7.9,68.3
			c-1.8,2.9-14.5,11.6-14.5,11.6l10,20.2C1134.4,464.1,1095.4,546.1,1088.1,557.6z"/>
		<path class="st5" d="M961.5,668.1c0,0,9.3,13.1,19.6,27.2s19.6,24.2,9.3,25.2s-15.5-7-15.5-7s10.4,29.3,3.1,32.3
			c-7.2,3-16.6,0-16.6,0s-4.2,7-14.5,3c0,0-13.4,3-19.6-5.1s-8.3-62.5,3.1-79.7C941.8,647,961.5,668.1,961.5,668.1z"/>
		<path class="st14" d="M1151.3,380"/>
		<path class="st8" d="M1006.8,391c-16.5,16.3-45.9,57.5-65.8,111.7c-24.8,67.6-20.8,173.6-11.9,172.5c18.5-2.1,38.7-2,41.7-4.1
			c3-2-2-44.4,5-93.8c4.4-31.3,15.1-69.9,22.5-94c2.9-46.6,6.6-83.9,9.4-91.2C1007.4,391.7,1007.1,391.4,1006.8,391z"/>
		<path class="st14" d="M1183.8,692.4"/>
		<ellipse class="st7" cx="1088.9" cy="588.5" rx="10.4" ry="10.1"/>
		<ellipse class="st7" cx="1088.9" cy="658.1" rx="10.4" ry="10.1"/>
		<path class="st15" d="M1122.2,100.6c-20.5,8.3-41.1,12.7-63.3,12.8c-10.9,0.1-21.8,0.1-32.5,2.5c-8.8,2-18.3,5.9-23.7,13.3
			c-1,1.4,1,3.2,2.4,2.3c8-5.1,15.8-8.6,25.4-10.2c11.3-1.7,23-0.6,34.3-0.6c20.6,0.1,42.4-3.4,59.9-14.6
			C1127.3,104.3,1125.6,99.2,1122.2,100.6z"/>
		<path class="st15" d="M1160.1,113.3c-10.9,6.4-21.6,12.9-33.4,17.5c-11.9,4.6-24.3,6.9-37.1,7c-13.8,0.1-27.4-3.2-41.3-3.1
			c-11.3,0.1-24.1,2.9-31.9,11.3c-1.4,1.4,0.5,4.1,2.3,2.8c22.9-16.9,50.6-2.5,76-2.3c25,0.1,53.1-8.9,70.6-26.6
			C1168.6,116.4,1164.4,110.8,1160.1,113.3z"/>
		<path class="st15" d="M1005.7,154.2c-12.5-2.7-21.2,14.2-20.6,24.2c0.1,2.6,3.8,3.8,5.2,1.4c2.5-4.2,3.7-9,6.1-13.3
			c2.3-4.1,6-5.9,9.9-8.1C1007.9,157.4,1007.7,154.6,1005.7,154.2z"/>
		<path class="st15" d="M994.6,144.1c-6.7-1.6-11.7,3.5-16.1,7.7c-4.5,4.3-8.3,9.5-7.2,15.9c0.3,2.1,3.4,1.7,4,0
			c1.4-4.1,3.7-7.7,6.5-11c3.1-3.5,7-8.5,12.1-8.4C996.4,148.3,996.9,144.6,994.6,144.1z"/>
		<path class="st7" d="M1050.8,622.3c-5-3.2-9.8-6.7-14.4-10.4c-4.8-3.9-8.6-8.6-13-12.7c-1.5-1.4-3.8,0.4-2.8,2.1
			c3.1,5.3,8,9.8,12.5,13.8c4.8,4.3,10,7.6,15.8,10.3C1051.1,626.5,1052.9,623.6,1050.8,622.3z"/>
		<path class="st7" d="M1158.3,597c-11.6,7.8-20.9,18.2-35,22.2c-2.1,0.6-1.2,3.5,0.9,3.1c14.1-2.7,27.3-11.6,36.6-22
			C1162.3,598.5,1160.3,595.6,1158.3,597z"/>
		<path class="st7" d="M1156.5,417.2c-0.2-1.3-2.5-1-2.3,0.3c2.1,18.2,3.2,36.5,5.9,54.7c0.2,1.4,2.5,1.1,2.5-0.3
			C1162.2,453.6,1159.3,435.3,1156.5,417.2z"/>
		<path class="st7" d="M1165.8,494c-0.9-3.6-1.8-7.2-2.2-10.9c-0.3-2.2-3.8-2.2-3.6,0c0.5,4.1,1.3,7.9,2.9,11.6
			C1163.7,496.5,1166.3,495.9,1165.8,494z"/>
		<path class="st7" d="M1006.5,408.5c-2,8.4-4.1,17-4.4,25.7c0,1.2,2,1.5,2.3,0.3c1.5-8.5,2.1-17,3.8-25.5
			C1008.3,407.9,1006.8,407.5,1006.5,408.5z"/>
		<path class="st7" d="M1001.4,457.7c-0.3-2.1-0.3-4.3-0.2-6.4c0.1-1.9-3-1.9-3.1,0c-0.1,2.3,0.2,4.5,0.9,6.6
			C999.5,459.2,1001.6,459,1001.4,457.7z"/>
		<path class="st7" d="M1003.6,1058.3c-2.5-1.8-5.8-2.3-8.8-3c0.5-2.6,0.8-5.3,0.8-7.9c-0.1-2.5-4-3.1-4.5-0.6
			c-0.5,2.4-1.1,4.7-1.8,6.9c-2.3-0.7-4.7-1.5-7-1.9c-2.1-0.5-3.5,2.5-1.5,3.5c2.3,1.2,4.7,2.1,7.2,2.9c-0.6,1.9-1.2,3.8-1.8,5.7
			c-0.5,2,2.3,3.9,3.7,2.1c1.5-1.8,2.7-3.9,3.6-6.1c3.2,1.1,6.5,2.1,9.8,1.7C1005,1061.4,1004.8,1059.1,1003.6,1058.3z"/>
		<path class="st7" d="M1201.5,1053c-2.1-1.3-4.8-1.9-7.6-2c0.1-1.7,0.3-3.4,0.3-5.2c0.1-2-3.1-3-4-1.1c-0.8,1.7-1.4,3.9-1.7,6.3
			c-2.7,0.2-5.4,0.6-7.6,1c-2,0.3-1.5,3.5,0.5,3.4c2.4-0.1,4.7-0.1,7,0.1c0.2,3,1,5.8,2.9,7.6c1,1,3.2,0.7,3.5-0.9
			c0.3-2.1-0.1-3.9-0.5-5.9c2.1,0.4,4.1,0.9,6.1,0.7C1202.6,1056.8,1203.5,1054.2,1201.5,1053z"/>
		<path class="st3" d="M1284.9,748.4c-0.1-2.1-3.4-2.1-3.3,0c0.1,2.5,0.1,4.9,0,7.3c-0.1,1.5,2.2,1.7,2.6,0.3
			C1284.9,753.4,1285.1,751.1,1284.9,748.4z"/>
		<path class="st3" d="M1285.4,765.6c0-2.1-3.3-2.1-3.3,0c-0.1,2.3-0.1,4.4,0.3,6.6c0.2,1.3,2.5,1.3,2.8,0
			C1285.5,770.1,1285.4,767.9,1285.4,765.6z"/>
		<path class="st3" d="M1284.5,783.8c-0.9-0.3-1.8,0.5-1.8,1.3c0,0.7-0.1,1.5-0.1,2.2c-0.1,1.3,1.9,1.5,2.3,0.3
			c0.2-0.7,0.4-1.4,0.7-2.1C1285.7,784.8,1285.2,784,1284.5,783.8z"/>
		<path class="st3" d="M1284.1,794.4c-0.7,0-1.4,0.6-1.4,1.3l0.2,2.2c0.1,1.5,2.2,1.5,2.3,0l0.2-2.2
			C1285.5,795,1284.7,794.4,1284.1,794.4z"/>
		<path class="st3" d="M1285.7,812.6c-0.3-1.6-3-0.9-2.5,0.7c0.6,1.8,0.7,3.7,0.5,5.5c-0.1,0.9,1.3,0.9,1.6,0.2
			C1286.2,817,1286.2,814.9,1285.7,812.6z"/>
		<path class="st3" d="M1284.1,827.1c-1,0-1.6,0.8-1.8,1.7c-0.2,2-0.3,3.9-0.3,5.9c0.1,1.5,2.3,1.8,2.7,0.3c0.6-2.1,0.9-4.1,1.2-6.3
			C1285.9,827.9,1284.9,827.1,1284.1,827.1z"/>
		<path class="st3" d="M1285.2,843.9c-0.2-2.2-3.3-1.8-3.1,0.4c0.3,2.5,0.1,5.3-0.6,7.8c-0.3,1.1,1.4,1.9,1.9,0.8
			C1285,850,1285.6,847.1,1285.2,843.9z"/>
		<path class="st3" d="M1283.2,863.7c-0.1-1.8-3-1.8-2.9,0c0.2,2.3,0.2,4.7,0.8,6.9c0.3,1.3,2.2,0.9,2.3-0.3
			C1283.6,868.1,1283.3,865.9,1283.2,863.7z"/>
		<path class="st3" d="M1284.2,877.8c-0.9-0.3-2.1,0.3-2.3,1.3c-0.2,1.4-0.4,2.7-0.4,4.1c0,0.6,0.5,1.2,1.1,1.3
			c0.8,0.2,1.5-0.3,1.8-1c0.5-1.2,0.8-2.3,1.2-3.6C1285.7,879.1,1285.1,878.1,1284.2,877.8z"/>
		<path class="st3" d="M1302.9,748c-0.1-0.8-0.6-1.5-1.5-1.5c-0.8,0-1.6,0.7-1.5,1.5c0.1,1.3,0,2.7-0.1,4.1
			c-0.1,1.2,1.9,1.7,2.4,0.6C1302.8,751.1,1303,749.7,1302.9,748z"/>
		<path class="st3" d="M1298.9,764.1c0,1.5,0.1,2.9,0.2,4.4c0.1,1.4,2.1,1.4,2.3,0c0.1-1.5,0.2-2.9,0.2-4.4
			C1301.6,762.5,1298.9,762.5,1298.9,764.1z"/>
		<path class="st3" d="M1299.5,777.4c-0.3,1.9-0.6,3.7-0.6,5.5c0,1.1,1.7,1.3,2,0.3c0.6-1.8,0.8-3.6,1-5.5
			C1302.2,775.9,1299.7,775.6,1299.5,777.4z"/>
		<path class="st3" d="M1298.6,790.2c0,2.3,0.1,4.4,0.3,6.6c0.1,1.3,1.8,1.3,2,0c0.2-2.2,0.3-4.4,0.3-6.6
			C1301.2,788.6,1298.6,788.6,1298.6,790.2z"/>
		<path class="st3" d="M1298.3,806.1c-0.1,1.3-0.3,2.7-0.4,4.1c0,0.9,1.4,1.1,1.6,0.2c0.4-1.3,0.7-2.7,1-4
			C1301,804.7,1298.5,804.4,1298.3,806.1z"/>
		<path class="st3" d="M1300.7,818.2c-0.3-1.5-2.7-0.9-2.4,0.7c0.3,1.3,0.2,2.7,0.2,4.1c0,1.1,1.6,1.2,1.9,0.3
			C1301.1,821.6,1301,819.9,1300.7,818.2z"/>
		<path class="st3" d="M1301.4,828.9c-0.2-1.3-2.6-1-2.5,0.3c0.3,1.9,0.4,3.9,0.9,5.8c0.3,1.1,2.1,0.9,2.2-0.3
			C1302.1,832.7,1301.7,830.8,1301.4,828.9z"/>
		<path class="st3" d="M1301,842.6c-1.1,0-1.9,1.1-1.6,2.1c0.1,0.6,0.3,1.1,0.5,1.7c0.3,1.1,1.9,1.1,2.3,0c0.1-0.6,0.3-1.1,0.5-1.7
			C1302.9,843.7,1302.1,842.6,1301,842.6z"/>
		<path class="st3" d="M1302.7,856.4c0-2.5-4-2.5-4,0c0,1.8-0.1,3.5,0.4,5.2c0.5,1.5,2.7,1.5,3.2,0
			C1302.7,859.8,1302.6,858.1,1302.7,856.4z"/>
		<path class="st3" d="M1302.7,869.2c-0.1-0.9-0.7-1.6-1.6-1.6c-0.8,0-1.8,0.7-1.6,1.6c0.2,1.5,0.1,2.9,0,4.4
			c-0.1,1.2,1.8,1.8,2.5,0.7C1302.6,872.7,1302.8,871,1302.7,869.2z"/>
		<path class="st16" d="M1083,274.6c3.4-0.6,13.2-3.3,9.9-8.3c-2.7-4.3-6.3-7.9-9.3-12c-0.9-1.4,1-3.4,2.4-2.3
			c3.2,2.3,6,5.3,8.6,8.3c2.3,2.7,5,5.4,4.8,9.1c-0.3,7.3-10.4,10.6-16.4,9.7C1080.8,278.6,1080.8,274.9,1083,274.6z"/>
		<path class="st13" d="M1102.9,192.2c7.1-1.8,17.5,0.5,19.8,8.3c0.9,3.1-2.2,6.3-5.5,5.3c-4-1.2-6.7-3-10.9-1.4
			C1098.6,207.3,1094.7,194.4,1102.9,192.2z"/>
		<path class="st13" d="M1030.5,201.2c2.1-3.6,5.2-5.5,9.1-7.1s10-1.5,12.8,1.9c2.8,3.5,2.4,7.4-1.4,10.2c-2.5,1.8-5.7,1.5-8.7,1.5
			c-1.6,0-3.9,0.6-5.9,1.1C1032,209.8,1028.1,205.3,1030.5,201.2z"/>
		<g class="st17">
			<path class="st18" d="M1106.9,217.7c1.3-0.5,2.8-0.6,4.6-0.3c12,2.3,10.6,22.5,0.2,26.1c-5.3,1.8-7.7-2.5-8.7-6.3
				c-0.8-1.7-1.2-3.5-1.4-5.3C1100.9,227.2,1101.8,219.6,1106.9,217.7z"/>
			<path class="st19" d="M1110.1,223.7c0.3-0.6,1.1-1.3,1.8-1.3c0.3-0.1,0.6-0.1,0.9-0.1c0.8,0,1.1,0.2,1.7,0.5
				c0.4,0.2,0.8,0.5,1.1,0.9c1.1,1,1.3,2.4,0.8,3.7c-0.4,1.2-1.4,2-2.7,2.1c-0.1,0-0.3,0-0.4,0c-0.9-0.1-1.7-0.3-2.4-1
				c-0.3-0.3-0.5-0.5-0.7-0.9c-0.3-0.7-0.6-1.3-0.6-2.1C1109.7,224.7,1109.8,224.3,1110.1,223.7z"/>
		</g>
		<g class="st17">
			<path class="st18" d="M1042.6,223.1c1.3-0.5,2.8-0.6,4.6-0.3c12,2.3,10.6,22.5,0.2,26.1c-5.3,1.8-7.7-2.5-8.7-6.3
				c-0.8-1.7-1.2-3.5-1.4-5.3C1036.7,232.6,1037.6,225,1042.6,223.1z"/>
			<path class="st19" d="M1045.8,229c0.3-0.6,1.1-1.3,1.8-1.3c0.3-0.1,0.6-0.1,0.9-0.1c0.8,0,1.1,0.2,1.7,0.5
				c0.4,0.2,0.8,0.5,1.1,0.9c1.1,1,1.3,2.4,0.8,3.7c-0.4,1.2-1.4,2-2.7,2.1c-0.1,0-0.3,0-0.4,0c-0.9-0.1-1.7-0.3-2.4-1
				c-0.3-0.3-0.5-0.5-0.7-0.9c-0.3-0.7-0.6-1.3-0.6-2.1C1045.4,230,1045.5,229.6,1045.8,229z"/>
		</g>
		<path class="st16" d="M1070.7,295.9c8.7,1.8,18.7,5.3,26.4-1.1c1.5-1.2,3.3,0.6,2.1,2.1c-7.4,8.6-20.1,7.3-29.7,3.4
			C1066.7,299.2,1067.7,295.3,1070.7,295.9z"/>
		<path class="st16" d="M1081.5,306c1.4,0,2.9,0,4.4-0.3c2-0.3,2.8,2.5,0.8,2.9c-1.9,0.5-3.7,0.6-5.5-0.1
			C1079.7,308.2,1079.9,306,1081.5,306z"/>
	</g>
	<g class="st1">
		<path class="st6" d="M1620.3,1043.8c14.9,7,29.9,14,44.9,21c2.8,1.3,5.9,2.9,7.1,5.6c1.4,3.1,0.1,6.8-2.4,9.2
			c-2.5,2.4-5.8,3.6-9.1,4.6c-14.7,4.3-30.2,4.4-45.5,4.5c-12.1,0-25.2-0.3-34.6-7.8c-10-7.9-12.4-23.4-5.5-33.9
			C1582.3,1036.2,1608.7,1038.4,1620.3,1043.8z"/>
		<path class="st6" d="M1454.4,1043.8c-14.9,7-29.9,14-44.9,21c-2.8,1.3-5.9,2.9-7.1,5.6c-1.4,3.1-0.1,6.8,2.4,9.2
			c2.5,2.4,5.8,3.6,9.1,4.6c14.7,4.3,30.2,4.4,45.5,4.5c12.1,0,25.2-0.3,34.6-7.8c10-7.9,12.4-23.4,5.5-33.9
			C1492.3,1036.2,1465.9,1038.4,1454.4,1043.8z"/>
		<path class="st7" d="M1622.7,692.9c0,0-157.2-21.2-163.4-10.1c-6.2,11.1-25.8,346.2-15.5,356.3s58.9,11.1,64.1,5.1
			c5.2-6.1,9.3-287.6,14.5-293.7c5.2-6.1,24.8-9,27.9-1c3.1,8,9.3,294.7,18.6,297.7s57.9,4.1,63.1-6.1
			c5.2-10.1-12.4-348.2-12.4-348.2L1622.7,692.9L1622.7,692.9L1622.7,692.9z"/>
		<path class="st8" d="M1574,366.9c0,0,18.6,7,23.8,13.1s39.3,294.7,33.1,315.9c-6.2,21.2-167.6,20.2-185.2,12.1
			c-17.6-8-1.1-303.4,7.2-318.2s24.5-18.4,24.5-18.4L1574,366.9z"/>
		<path class="st9" d="M1495.9,393.3l33.7-7.4l40.2,15l-0.6,56.9c0,0-33.8,99.9-35.1,98.7s-28.4-113.4-28.4-113.4L1495.9,393.3z"/>
		<path class="st4" d="M1632.7,350.8c0,0-24.8-19.2-29.5-29.3s14-21.2,14-21.2l36.7,3.5c0,0,8.8,21.7,7.2,38.9
			C1659.5,359.9,1632.7,350.8,1632.7,350.8z"/>
		<path class="st8" d="M1626.5,351.3c3.6-2.5,40.3-15.6,44.5-13.6c4.2,2,52.2,119.6,51.7,150.4s-28.4,37.9-42.4,32.8
			c-14-5.1-76.5-55.5-76.5-55.5l-14.5-75.2l9.3-8.6l58.9,55L1626.5,351.3z"/>
		<path class="st8" d="M1645.1,243.8c0,0-14.5-47.9-21.2-50c-6.8-2.1-49.1,15.1-56.9,22.7c-7.8,7.6,28.4,106.5,34.1,108.5
			s46-11.6,52.7-15.6C1660.5,305.3,1646.6,250.3,1645.1,243.8z"/>
		<path class="st7" d="M1637.2,247.1c0,0-11.1-37.7-16.3-39.2c-5.2-1.6-37.8,11.9-43.8,17.8s21.9,83.6,26.3,85.2
			c4.4,1.6,35.4-9.1,40.6-12.3C1649.1,295.5,1638.3,252.3,1637.2,247.1z"/>
		<path class="st4" d="M1555.4,330.6c0,0,3.1,32.3,5.2,51.4c2.1,19.2-78.6,6.1-78.6,6.1s16.6-44.4,16.6-64.6
			S1555.4,330.6,1555.4,330.6z"/>
		<polygon class="st10" points="1535.6,414.9 1549.2,477.1 1534.8,557.2 1502.9,493.4 1523.8,411.8 		"/>
		<path class="st11" d="M1548.2,400.6c0,0-1.8,22.4-19,22.4c-17.3,0-20.9-26.5-20.9-26.5l21.8-12.2L1548.2,400.6z"/>
		<path class="st12" d="M1477.5,361.9l52.7,22.5c0,0-16.3,34.7-27.2,35.7c-10.9,1-20.9-21.4-20.9-21.4L1477.5,361.9z"/>
		<ellipse class="st4" cx="1428.2" cy="240.8" rx="24.8" ry="25.2"/>
		<ellipse class="st4" cx="1599.9" cy="240.8" rx="24.8" ry="25.2"/>
		<path class="st5" d="M1602.1,214.5c0,0,17.2,130.2-69.7,136.2c-89.8,6.3-103.1-92.8-98-146.3s65.7-70.7,65.7-70.7l75.8-2
			l28.3,28.3l3,35.3L1602.1,214.5z"/>
		<path class="st13" d="M1595.4,74.9c-5.7-0.2-9.8,4.9-13.8,8.7c-14,13.5-35.3,16.6-54.9,16.2s-39.6-3.4-58.8,0.8
			c-28.8,6.3-52.9,30.1-59.1,58.3c-6.1,28.2,13.2,77.9,29.8,76.7c11.4-1.8,1.6-46,15.7-63.7c6.3-7.9,17-11.3,27.2-11.6
			s20.3,2.1,30.4,3.7c25.1,3.8,51,2.5,75.5-4.1c1.6,19.8,3.2,39.7,4.8,59.5c0.2,2.8,0.6,5.9,2.5,7.9c3,3.1,8.6,2.2,11.7-0.7
			c3.1-2.9,4.3-7.3,5.1-11.5c3.8-21.4-0.7-43.9,6.1-64.6c6.8-21,24.9-39.1,23.5-61.1c-0.4-6.5-3.9-14-10.5-14.9
			c-13.6-1.8-16,23.1-29.5,24.8c2.5-4.4,4.6-9.3,4-14.3C1604.4,80,1600.6,75.1,1595.4,74.9z"/>
		<path class="st7" d="M1477.5,361.9c-3.2-4.5-17.5,14.6-20.1,23.2s17.5,68.4,17.5,68.4l22.7-4.8l-10.9,26c0,0,44.5,75.3,48.1,83
			C1534.7,557.6,1526.5,429.3,1477.5,361.9z"/>
		<path class="st12" d="M1564.6,363.8c0,0-29.9,19.5-34.5,20.6c-4.6,1,16.3,25.5,24.5,31.6c8.2,6.1,24.5-20.4,24.5-20.4
			L1564.6,363.8z"/>
		<path class="st7" d="M1534.7,557.6c-1.6,2.5,14.5-167.8,29.9-193.9c0,0,8.5-1.8,13,0.1c4.6,1.9,9.7,65.5,7.9,68.3
			c-1.8,2.9-14.5,11.6-14.5,11.6l10,20.2C1580.9,464.1,1541.9,546.1,1534.7,557.6z"/>
		<path class="st5" d="M1412.1,666.6c0,0,9.3,13.1,19.6,27.2s19.6,24.2,9.3,25.2s-15.5-7-15.5-7s10.4,29.3,3.1,32.3s-16.6,0-16.6,0
			s-4.2,7-14.5,3c0,0-13.4,3-19.6-5.1s-8.3-62.5,3.1-79.7C1392.5,645.5,1412.1,666.6,1412.1,666.6z"/>
		<path class="st14" d="M1597.8,380"/>
		<path class="st8" d="M1453.9,391.9c-16.5,16.3-45.9,57.5-65.8,111.7c-24.8,67.6-20.8,173.6-11.9,172.5c18.6-2.1,38.7-2,41.7-4.1
			c3-2-2-44.4,5-93.8c4.4-31.3,15.1-69.9,22.5-94c2.9-46.6,6.6-83.9,9.4-91.2C1454.4,392.7,1454.1,392.3,1453.9,391.9z"/>
		<path class="st14" d="M1630.4,692.4"/>
		<ellipse class="st7" cx="1535.4" cy="588.5" rx="10.4" ry="10.1"/>
		<ellipse class="st7" cx="1535.4" cy="658.1" rx="10.4" ry="10.1"/>
		<path class="st5" d="M1649.2,231.7c-7.6-2.3-24.1,0-21.4,7.1c2.8,7.1,11.1,8.1,11.1,8.1s-14.5,4.5-11.9,9.1
			c2.6,4.5,15.5,6.1,15.5,6.1s-10.4,6.6-4.6,11.6c5.7,5.1,15,3,19.2,0.5S1657.5,234.2,1649.2,231.7z"/>
		<path class="st15" d="M1570.7,97.4c-20.5,8.3-41.1,12.7-63.3,12.8c-10.9,0.1-21.8,0.1-32.5,2.5c-8.8,2-18.3,5.9-23.7,13.3
			c-1,1.4,0.9,3.2,2.4,2.3c8.1-5.1,15.8-8.7,25.4-10.2c11.3-1.7,23-0.6,34.3-0.6c20.6,0.1,42.4-3.4,59.9-14.6
			C1575.9,101.1,1574.2,96,1570.7,97.4z"/>
		<path class="st15" d="M1608.7,109.9c-10.9,6.4-21.6,12.9-33.4,17.5c-11.9,4.6-24.3,6.9-37.1,7c-13.8,0.1-27.4-3.2-41.3-3.1
			c-11.3,0.1-24.1,2.9-31.9,11.3c-1.4,1.4,0.5,4.1,2.3,2.8c22.9-16.9,50.6-2.5,76-2.3c25,0.1,53.1-8.9,70.6-26.6
			C1617.1,113.1,1612.9,107.5,1608.7,109.9z"/>
		<path class="st15" d="M1454.2,151c-12.6-2.7-21.2,14.2-20.6,24.2c0.1,2.6,3.8,3.8,5.2,1.4c2.5-4.2,3.7-9,6.1-13.3
			c2.3-4.1,6-5.9,9.9-8.1C1456.5,154.2,1456.3,151.4,1454.2,151z"/>
		<path class="st15" d="M1443.1,140.7c-6.7-1.6-11.7,3.5-16.1,7.7c-4.5,4.3-8.3,9.5-7.2,15.9c0.3,2.1,3.4,1.7,4,0
			c1.4-4.1,3.7-7.7,6.6-11c3.1-3.5,7-8.5,12.1-8.4C1444.9,145,1445.5,141.3,1443.1,140.7z"/>
		<path class="st7" d="M1511.3,624.8c-15.8-2.7-30.8-10.4-40.4-23.1c-1.7-2.2-5.5-0.1-3.8,2.2c10.2,14.2,25.8,23.9,43.7,25
			C1513.1,628.9,1513.6,625.2,1511.3,624.8z"/>
		<path class="st7" d="M1602.3,599.5c-6,3.5-11.6,7.5-17.1,11.6c-5.6,4.1-11.6,9-18.7,10.3c-2.4,0.4-1.8,4.3,0.6,4.1
			c7.2-0.4,13-4,18.9-7.7c6.9-4.4,13.2-9.2,19.2-14.7C1606.9,601.2,1604.4,598.2,1602.3,599.5z"/>
		<path class="st7" d="M1453.2,407.7c-4.7,12.9-7.7,26.9-7.2,40.7c0.1,1.9,2.7,1.8,2.9,0c1.6-13.5,3.6-26.7,7.8-39.7
			C1457.5,406.5,1454,405.6,1453.2,407.7z"/>
		<path class="st7" d="M1444.2,463.1c0.1,1.3,0.1,2.6,0.2,3.9c0.1,1.4,2.1,1.4,2.2,0c0.1-1.3,0.1-2.6,0.2-3.9
			C1446.9,461.4,1444.1,461.4,1444.2,463.1z"/>
		<path class="st7" d="M1598.7,391.9c-0.8-1.7-3.3-0.2-2.5,1.4c6.3,13.1,8.7,26.6,10.9,40.8c0.3,1.8,3.1,1.3,3.2-0.4
			C1610.4,419.3,1605.3,404.7,1598.7,391.9z"/>
		<path class="st7" d="M1611.9,445.7c-0.3-1.7-3-1-2.7,0.7c0.5,2.4,0.6,5,0.6,7.5c0,1.1,1.6,1.3,1.9,0.3
			C1612.5,451.2,1612.5,448.5,1611.9,445.7z"/>
		<path class="st7" d="M1454.5,1056.1c-3.3-1.6-7.2-1.8-10.8-2.4c-0.1,0-0.3-0.1-0.4-0.1c0.1-2.5,0.1-4.9,0.3-7.2
			c0.2-2.3-3.8-2.9-4.2-0.5c-0.4,2.2-1,4.5-1.5,6.9l-6.1-0.9c-1.9-0.3-2.8,2.4-0.8,2.9c2.1,0.5,4.2,1.1,6.3,1.6c-0.3,2-0.3,4,0,5.9
			c0.3,1.9,3.5,2.3,4.2,0.5c0.7-1.5,1.2-3.3,1.4-5c3.4,0.9,7,2.2,10.5,2.1C1455.4,1059.7,1456.5,1057,1454.5,1056.1z"/>
		<path class="st7" d="M1648,1055.3c-2.4-1.3-5.1-1.3-7.7-1.2c0.7-1.9,1.2-3.8,1.9-5.6c1-2.7-3.6-4.5-4.7-1.9
			c-1.1,2.5-2.5,5.1-3.6,7.8c-2.3,0.1-4.4,0.3-6.7,0.4c-3.2,0.2-3.3,4.8,0,4.9c1.6,0.1,3.1,0.1,4.7,0.1c-0.3,0.9-0.4,1.8-0.6,2.7
			c-0.3,2.5,3.2,2.7,4.4,1.2c0.8-1.1,1.6-2.3,2.2-3.6c0.1,0,0.3,0,0.5,0c3.4,0.2,6.5,0.7,9.6-0.6
			C1649.8,1058.8,1649.6,1056.1,1648,1055.3z"/>
		<path class="st16" d="M1530,274.2c3.4-0.6,13.2-3.3,9.9-8.3c-2.7-4.3-6.3-7.9-9.3-12c-0.9-1.4,1-3.4,2.4-2.3
			c3.2,2.3,6,5.3,8.6,8.3c2.3,2.7,5,5.4,4.8,9.1c-0.3,7.3-10.4,10.6-16.4,9.7C1527.7,278.3,1527.7,274.6,1530,274.2z"/>
		<path class="st13" d="M1549.7,192c7.1-1.8,17.5,0.5,19.8,8.3c0.9,3.1-2.2,6.3-5.5,5.3c-4-1.2-6.7-3-10.9-1.4
			C1545.5,207,1541.6,194,1549.7,192z"/>
		<path class="st13" d="M1477.4,200.9c2.1-3.6,5.2-5.5,9.1-7.1s10-1.5,12.8,1.9c2.8,3.5,2.4,7.4-1.4,10.2c-2.5,1.8-5.7,1.5-8.7,1.5
			c-1.6,0-3.9,0.6-5.9,1.1C1478.9,209.5,1475.1,205,1477.4,200.9z"/>
		<g class="st17">
			<path class="st18" d="M1553.8,217.3c1.3-0.5,2.8-0.6,4.6-0.3c12,2.3,10.6,22.5,0.2,26.1c-5.3,1.8-7.7-2.5-8.7-6.3
				c-0.8-1.7-1.2-3.5-1.4-5.3C1547.9,226.8,1548.7,219.3,1553.8,217.3z"/>
			<path class="st19" d="M1557,223.4c0.3-0.6,1.1-1.3,1.8-1.3c0.3-0.1,0.6-0.1,0.9-0.1c0.8,0,1.1,0.2,1.7,0.5
				c0.4,0.2,0.8,0.5,1.1,0.9c1.1,1,1.3,2.4,0.8,3.7c-0.4,1.2-1.4,2-2.7,2.1c-0.1,0-0.3,0-0.4,0c-0.9-0.1-1.7-0.3-2.4-1
				c-0.3-0.3-0.5-0.5-0.7-0.9c-0.3-0.7-0.6-1.3-0.6-2.1C1556.6,224.3,1556.7,223.9,1557,223.4z"/>
		</g>
		<g class="st17">
			<path class="st18" d="M1489.6,222.7c1.3-0.5,2.8-0.6,4.6-0.3c12,2.3,10.6,22.5,0.2,26.1c-5.3,1.8-7.7-2.5-8.7-6.3
				c-0.8-1.7-1.2-3.5-1.4-5.3C1483.7,232.2,1484.5,224.7,1489.6,222.7z"/>
			<path class="st19" d="M1492.7,228.8c0.3-0.6,1.1-1.3,1.8-1.3c0.3-0.1,0.6-0.1,0.9-0.1c0.8,0,1.1,0.2,1.7,0.5
				c0.4,0.2,0.8,0.5,1.1,0.9c1.1,1,1.3,2.4,0.8,3.7c-0.4,1.2-1.4,2-2.7,2.1c-0.1,0-0.3,0-0.4,0c-0.9-0.1-1.7-0.3-2.4-1
				c-0.3-0.3-0.5-0.5-0.7-0.9c-0.3-0.7-0.6-1.3-0.6-2.1C1492.3,229.7,1492.5,229.3,1492.7,228.8z"/>
		</g>
		<path class="st20" d="M1519.2,295c2.6-5.5,30.1-5.9,36.1-2.5c6,3.4,2.7,20.2-15.4,21.8C1521.8,315.8,1517.3,299,1519.2,295z"/>
		<path class="st21" d="M1557.5,301.9c1.2-4.1,0.4-8-2.2-9.4c-6-3.4-33.6-3.1-36.1,2.5c-0.8,1.7-0.5,5.6,1.5,9.5
			c6.2-3.4,13.2-5.4,20.4-5.5C1546.7,298.9,1552.3,299.9,1557.5,301.9z"/>
	</g>
</g>
<ellipse class="st22" cx="626.2" cy="1098.2" rx="170.4" ry="34.6"/>
<g>
	<path class="st23" d="M541.1,1057.9c-14.9,7-29.9,14-44.9,21c-2.8,1.3-5.9,2.9-7.1,5.6c-1.4,3.1-0.1,6.8,2.4,9.2
		c2.5,2.4,5.8,3.6,9.1,4.6c14.7,4.3,30.2,4.4,45.5,4.5c12.1,0,25.2-0.3,34.6-7.8c10-7.9,12.4-23.4,5.5-33.9
		C579.1,1050.4,552.7,1052.5,541.1,1057.9z"/>
	<path class="st23" d="M707.1,1057.9c14.9,7,29.9,14,44.9,21c2.8,1.3,5.9,2.9,7.1,5.6c1.4,3.1,0.1,6.8-2.4,9.2
		c-2.5,2.4-5.8,3.6-9.1,4.6c-14.7,4.3-30.2,4.4-45.5,4.5c-12.1,0-25.2-0.3-34.6-7.8c-10-7.9-12.4-23.4-5.5-33.9
		C669.1,1050.4,695.5,1052.5,707.1,1057.9z"/>
	<path class="st24" d="M541.9,707c0,0-17.6,338.1-12.4,348.2c5.2,10.1,53.8,9.1,63.1,6.1c9.3-3,15.5-289.7,18.6-297.7
		c3.1-8,22.8-5.1,27.9,1c5.2,6.1,9.3,287.6,14.5,293.7s53.8,5.1,64.1-5.1c10.3-10.1-9.3-345.2-15.5-356.3s-163.4,10.1-163.4,10.1"/>
	<path class="st25" d="M587.4,381.1c0,0-18.6,7-23.8,13.1s-39.3,294.7-33.1,315.9c6.2,21.2,167.6,20.2,185.2,12.1
		s1.1-303.4-7.2-318.2s-84.8,4.3-84.8,4.3L587.4,381.1z"/>
	<path class="st19" d="M598.9,404.7l34.1-5.3l39.2,17.4l-14.7,48.3c0,0-29.7,106.1-30.9,104.8c-1.2-1.3-21.1-114.9-21.1-114.9
		L598.9,404.7z"/>
	<path class="st26" d="M606,344.7c0,0-3.1,32.3-5.2,51.4c-2,19.2,78.6,6.1,78.6,6.1s-16.6-44.4-16.6-64.6S606,344.7,606,344.7z"/>
	<path class="st27" d="M442.8,452.5c0,0,0.8-19.8-16.1-28c-16.9-8.3-21.2-11.6-28.4-23.3s-27.4,4.5-7.7,17.8c0,0-20.7-6.2-33.4-24.8
		c-12.6-18.6-20.5-20.9-24.9-13.8c-4.4,7.1,5.8,36.6,26.9,45c21.1,8.5,38,27.2,51.7,38.7C424.8,475.6,442.8,452.5,442.8,452.5z"/>
	<path class="st25" d="M564.7,393.4c0,0-0.4,0.9-1.2,2.4c-8.2,15.5-54,102.1-58.7,107.7c-5.2,6.1-53.8-74.7-60-75.7
		c-6.2-1-41.4,36.3-43.4,42.4c-2,6.1,75.5,101,92.1,105.9c16.6,5.1,52.7-45.4,66.2-72.7"/>
	<polygon class="st28" points="626,429 612.3,491.3 626.6,570.8 658.6,507.6 637.8,426 	"/>
	<path class="st29" d="M613.2,414.7c0,0,1.8,22.4,19,22.4s20.9-26.5,20.9-26.5l-21.8-12.2L613.2,414.7z"/>
	<path class="st30" d="M684,376l-52.7,22.5c0,0,16.3,34.7,27.2,35.7c10.9,1,20.9-21.4,20.9-21.4L684,376z"/>
	<ellipse class="st26" cx="733.3" cy="254.9" rx="24.8" ry="25.2"/>
	<ellipse class="st26" cx="561.6" cy="254.9" rx="24.8" ry="25.2"/>
	<path class="st27" d="M559.4,228.7c0,0-17.2,130.2,69.7,136.2c89.8,6.3,103-92.8,98-146.3s-65.7-70.7-65.7-70.7l-75.8-2l-28.3,28.3
		l-3,35.3L559.4,228.7z"/>
	<path class="st31" d="M566.1,89c5.7-0.2,9.8,4.9,13.8,8.7c14,13.5,35.3,16.6,54.9,16.2s39.6-3.4,58.8,0.8
		c28.8,6.3,52.9,30.1,59.1,58.3c6.1,28.3-13.2,77.9-29.8,76.7c-11.4-1.8-1.6-46-15.7-63.7c-6.3-7.9-17-11.3-27.2-11.6
		c-10.2-0.3-20.3,2.1-30.4,3.7c-25.1,3.8-51,2.5-75.5-4.1c-1.6,19.8-3.2,39.7-4.8,59.5c-0.2,2.8-0.5,5.9-2.5,7.9
		c-3,3.1-8.6,2.2-11.7-0.7c-3.1-2.9-4.3-7.3-5-11.5c-3.8-21.4,0.7-43.9-6.1-64.6c-6.8-21-24.9-39.1-23.5-61.1
		c0.4-6.5,3.9-14,10.5-14.9c13.6-1.8,16,23.1,29.5,24.8c-2.5-4.4-4.6-9.3-4-14.3C557,94.1,561,89.2,566.1,89z"/>
	<path class="st24" d="M684,376c3.2-4.5,21.8,19.3,24.5,28c2.7,8.6-21.8,63.7-21.8,63.7l-22.7-4.8l10.9,26c0,0-44.5,75.3-48.1,83
		C626.8,571.8,635,443.5,684,376z"/>
	<path class="st30" d="M596.9,377.9c0,0,29.9,19.5,34.5,20.6s-16.3,25.5-24.5,31.6c-8.2,6.1-24.5-20.4-24.5-20.4L596.9,377.9z"/>
	<path class="st24" d="M626.8,571.8c1.6,2.5-14.5-167.8-29.9-193.9c0,0-8.2-1.9-12.7,0c-4.6,1.9-10,65.6-8.2,68.5
		c1.8,2.9,14.5,11.6,14.5,11.6l-10,20.3C580.5,478.2,619.6,560.2,626.8,571.8z"/>
	<path class="st32" d="M759.1,574.8c0,0-100.3,0-113.8,6.1s4.2,155.5,11.4,161.5c7.2,6.1,190.3,12.1,213,1s-6.2-162.5-9.3-168.6
		C857.4,568.8,794.3,573.8,759.1,574.8z"/>
	<path class="st27" d="M755,680.8c0,0-9.3,13.1-19.6,27.2s-19.6,24.2-9.3,25.2s15.5-7,15.5-7s-10.4,29.3-3.1,32.3
		c7.2,3,16.6,0,16.6,0s4.2,7,14.5,3c0,0,13.4,3,19.6-5.1s8.3-62.5-3.1-79.7C774.8,659.5,755,680.8,755,680.8z"/>
	<path class="st25" d="M775.4,515.3c-20-54.6-49.8-96.1-66.2-112.1c-0.2,0.3-0.4,0.7-0.6,1c2.9,5.8,6.6,43.8,9.7,91.7
		c7.3,24.1,18.1,62.7,22.5,94c7,49.4,2,91.8,5,93.8s23.1,1.9,41.7,4.1C796.3,688.8,800.3,582.9,775.4,515.3z"/>
	<ellipse class="st24" cx="626.8" cy="610.2" rx="10.4" ry="10.1"/>
	<ellipse class="st24" cx="623.6" cy="679.8" rx="10.4" ry="10.1"/>
	<path class="st33" d="M591.7,115.5c20.5,8.3,41.1,12.7,63.3,12.8c10.9,0.1,21.8,0.1,32.5,2.5c8.8,2,18.3,5.9,23.7,13.3
		c1,1.4-1,3.2-2.4,2.3c-8-5.1-15.8-8.7-25.4-10.2c-11.3-1.7-23-0.6-34.3-0.6c-20.6,0.1-42.4-3.4-59.9-14.6
		C586.5,119.2,588.3,114.1,591.7,115.5z"/>
	<path class="st33" d="M553.8,128.1c10.9,6.4,21.6,12.9,33.4,17.5c11.9,4.6,24.3,6.9,37.1,7c13.8,0.1,27.4-3.2,41.3-3.1
		c11.3,0.1,24.1,2.9,31.9,11.3c1.4,1.4-0.5,4.1-2.3,2.8c-22.9-16.9-50.6-2.5-76-2.3c-25,0.1-53.1-8.9-70.6-26.6
		C545.3,131.2,549.6,125.6,553.8,128.1z"/>
	<path class="st33" d="M708.3,169c12.5-2.7,21.2,14.2,20.6,24.2c-0.1,2.6-3.8,3.8-5.2,1.4c-2.5-4.2-3.7-9-6.1-13.3
		c-2.3-4.1-6-5.9-9.9-8.1C706,172.2,706.2,169.5,708.3,169z"/>
	<path class="st33" d="M719.4,158.9c6.7-1.6,11.7,3.5,16.1,7.7c4.5,4.3,8.3,9.5,7.2,15.9c-0.3,2.1-3.4,1.7-4,0
		c-1.4-4.1-3.7-7.7-6.5-11c-3.1-3.5-7-8.5-12.1-8.4C717.5,163.1,717,159.5,719.4,158.9z"/>
	<path class="st34" d="M714.1,644.3c-7-0.8-12.6,5.9-11.9,12.2c0.3,3.3,1.9,6.1,4.2,7.9c0.2,0.1,0.4,0.3,0.6,0.5
		c0.1,0.1,0.1,0.1,0.1,0.1c1,0.7,2,1.2,3.1,1.6c6.6,2.1,14.1-1.9,15.2-8.7C726.6,650.5,721.3,645.2,714.1,644.3z"/>
	<path class="st34" d="M701.9,641.1c-7.6-9.7-16.5-18.6-25-27.4c-9.1-9.5-18.5-18.7-28.2-27.7c-1.4-1.3-3.3,0.7-2,2
		c9.1,8.9,17.9,18,26.5,27.3c8.7,9.3,16.6,19.2,25.4,28.3C700.2,645.3,703.4,643,701.9,641.1z"/>
	<path class="st34" d="M706.5,673.1c-7.2,10.8-14.2,21.8-21,32.8c-3.5,5.7-7,11.5-10.3,17.3c-2.8,4.8-7.8,10.8-8,16.6
		c0,1.5,1.8,2.7,3.2,1.8c4.5-3.1,6.6-9.6,9.1-14.2c3.2-5.9,6.5-11.8,9.8-17.6c6.5-11.8,13.1-23.5,19.9-35.1
		C710.3,672.9,707.6,671.5,706.5,673.1z"/>
	<path class="st34" d="M858.8,579.4c-0.4-0.6-0.9-1-1.6-1.3c-0.6-0.4-1.5-0.5-2.2-0.7c-1-0.3-2,0.3-2.3,1.3c-0.3,1,0.3,1.9,1.3,2.2
		c0.5,0.2,1.1,0.5,1.7,0.7c0.6,0.3,1.6,0.1,2.2,0C858.8,581.3,859.3,580.2,858.8,579.4z"/>
	<path class="st34" d="M858.8,585.7l-1.9-0.3c-0.8-0.1-1.5,0.3-1.5,1.1s0.8,1.3,1.5,1.1c0.6-0.1,1.3-0.2,1.9-0.3
		C859.7,587.2,859.7,585.8,858.8,585.7z"/>
	<path class="st34" d="M858.4,594.6c-0.3-0.1-0.6-0.1-1-0.2c-1-0.3-2,0.5-2,1.5c0,1,1,1.7,2,1.5c0.3-0.1,0.6-0.1,1-0.2
		C859.7,596.7,859.7,594.9,858.4,594.6z"/>
	<path class="st34" d="M861.8,603.8c-0.5-0.2-1-0.5-1.6-0.5c-0.4,0-0.8,0-1.2,0c-1,0-1.8,0.8-1.8,1.8s0.8,1.7,1.8,1.8
		c0.3,0,0.8,0,1.1,0c0.6,0,1.2-0.3,1.7-0.5C862.9,606,862.9,604.3,861.8,603.8z"/>
	<path class="st34" d="M864.2,616.8l-0.3-0.3c-0.3-0.3-0.7-0.5-1.1-0.6c-0.4-0.1-0.8-0.3-1.2-0.4c-1-0.3-2.2,0.4-2.5,1.4
		c-0.3,0.9,0.3,2.3,1.4,2.4c0.3,0.1,0.8,0.1,1.1,0.2c0.5,0.1,0.9,0.1,1.3,0.1l0.5-0.1C864.6,619.1,865.1,617.6,864.2,616.8z"/>
	<path class="st34" d="M865.2,625.7c-0.3-0.3-0.5-0.6-0.8-0.7c-0.3-0.1-0.5-0.2-0.8-0.3c-0.5-0.2-1-0.3-1.5-0.2
		c-0.5,0.1-0.9,0.5-1.2,0.9c-0.6,1.1-0.1,2.5,1.2,2.8c0.3,0.1,0.5,0.1,0.8,0.2c0.5,0.1,1,0.1,1.6-0.1c0.5-0.1,1-0.5,1.1-1.1
		C865.7,626.5,865.5,626.1,865.2,625.7z"/>
	<path class="st34" d="M867.7,635.3c-1.2-1-2.5-1.6-4.2-1.4c-1.2,0.1-2.1,0.9-2.1,2.1c0,1.4,1.4,2.3,2.7,2c0.1,0,0.1,0,0.1,0
		c0.1,0,0.1,0,0.2,0c0.1,0,1.2-0.1,0.6-0.1c0.4-0.1,0.9,0,1.2,0.1c0.7,0.1,1.4-0.1,1.8-0.7C868.3,636.7,868.3,635.8,867.7,635.3z"/>
	<path class="st34" d="M868.3,645.1c-0.2-0.3-0.5-0.5-0.7-0.8c-0.9-1-2.6-0.7-3.2,0.4c-0.3,0.6-0.3,1.4,0,2c0.4,0.7,1,0.9,1.8,1
		c0.3,0,0.7,0.1,1,0.1c0.5,0.1,1.2-0.3,1.4-0.8C868.9,646.4,868.7,645.7,868.3,645.1z"/>
	<path class="st34" d="M869.9,655c-0.6-0.3-1.2-0.5-1.8-0.7c-0.6-0.2-1.4-0.1-2-0.1c-1.6-0.1-1.8,2.2-0.3,2.6c0.6,0.2,1.3,0.5,2,0.5
		c0.6,0,1.2-0.1,1.9-0.1C870.9,657.1,871.1,655.5,869.9,655z"/>
	<path class="st34" d="M871,665.9c-1.3-1.2-3.1-1.4-4.9-1.4c-1.7,0-1.6,2.4,0,2.5c1.4,0.1,2.7,0.7,4,0.8
		C871.2,668.1,871.7,666.6,871,665.9z"/>
	<path class="st34" d="M872.2,678.1c-1.1-0.8-2.5-1.3-3.8-1.7c-1.4-0.6-2.4,1.8-1,2.4c1.3,0.5,2.5,1.2,3.9,1.5
		C872.7,680.4,873.3,678.8,872.2,678.1z"/>
	<path class="st34" d="M872.7,690.9c-1.2-0.7-2.5-1-3.8-1.3c-1.7-0.5-2.4,2.1-0.8,2.6l1.7,0.5c0.8,0.3,1.4,0.3,2.1,0.3
		C873.3,693.2,873.7,691.5,872.7,690.9z"/>
	<path class="st34" d="M873.3,704.9c-0.2-0.1-0.3-0.1-0.5-0.3c-0.1-0.1-0.3-0.2-0.5-0.3c-0.1,0-0.1,0-0.1,0
		c-0.2-0.1-0.3-0.2-0.5-0.3c-0.1-0.1-0.2-0.1-0.1-0.1c-0.1-0.1-0.1-0.1-0.2-0.2c-0.7-0.6-1.8-0.7-2.4,0c-0.6,0.6-0.8,1.8,0,2.3
		c0.6,0.5,1.2,0.8,1.8,1.1c0.8,0.3,1.4,0.3,2.2,0.1C874.1,707.1,874.4,705.4,873.3,704.9z"/>
	<path class="st34" d="M873.2,717.7c-0.3-0.3-0.5-0.6-0.9-0.9c-0.4-0.4-1-0.7-1.6-0.9c-1-0.5-2.3-0.3-2.9,0.7
		c-0.7,1.1-0.1,2.7,1.3,3.1c0.4,0.1,0.9,0.3,1.3,0.3c0.6,0.1,1.2,0,1.8,0C873.4,720,874.1,718.6,873.2,717.7z"/>
	<path class="st34" d="M870.7,728c-0.6-0.3-1.2-0.6-1.8-0.9c-0.8-0.4-1.9-0.1-2.2,0.9c-0.3,0.9,0.5,1.8,1.4,1.9c0.7,0,1.4,0.1,2,0.1
		C871.2,730,871.7,728.5,870.7,728z"/>
	<path class="st34" d="M867.4,737.4c-0.5-0.1-1-0.2-1.4-0.3c-0.8-0.2-1.7,0.4-1.7,1.3c0,0.9,0.9,1.5,1.7,1.3c0.5-0.1,1-0.2,1.4-0.3
		C868.4,739.1,868.4,737.6,867.4,737.4z"/>
	<path class="st24" d="M598.3,642.2c-6.3-2.7-12.5-6.1-17.8-10.4c-5.6-4.5-8.9-10.2-13.2-15.7c-1.1-1.4-3.4-0.6-3,1.2
		c1.8,6.9,7.4,13.3,12.5,18.1c5.6,5.3,12.2,8.9,19.8,10.7C598.9,646.7,600.7,643.2,598.3,642.2z"/>
	<path class="st24" d="M714.7,421.1c-0.3-1.5-2.6-0.9-2.4,0.7c1.6,10.5,2.3,21,2.8,31.5c0.1,1.7,2.5,1.7,2.6,0
		C718.2,442.5,716.8,431.8,714.7,421.1z"/>
	<path class="st24" d="M716.7,471.1c-0.3-1.7-3-1-2.6,0.7c0.5,2,0.5,4,0.4,6c-0.1,1.1,1.8,1.3,2,0.3
		C717.1,475.7,717.1,473.4,716.7,471.1z"/>
	<path class="st24" d="M563.5,410.9c-6.4,18.1-12.3,37.3-13.7,56.6c-0.1,1.6,2.5,1.9,2.9,0.4c4.1-18.9,7.2-37.8,13.2-56.3
		C566.2,410.1,564,409.5,563.5,410.9z"/>
	<path class="st24" d="M550,481.7c-0.3,4.2-1.1,8.5-0.7,12.7c0.1,1.7,2.7,2.2,3.1,0.4c1.2-4.3,1.2-8.8,1.5-13.1
		C554.1,479.2,550.2,479.2,550,481.7z"/>
	<path class="st24" d="M536.3,1075.1c-1.2-3.2-4-3.6-7-4.5c-0.1-0.1-0.3-0.1-0.4-0.1c0.6-2.3,1.2-4.6,1.6-6.7
		c0.5-2.5-3.1-4.4-4.4-1.9c-1.1,2.1-2.1,4.4-3.1,6.8c-2.7-0.7-5.3-1.5-8-2.3c-2.7-0.8-3.8,3.1-1.2,4.1c2.5,0.9,5,1.9,7.4,2.9
		c-0.8,2.6-1.4,5.2-1.6,7.7c-0.2,2.4,3.2,2.9,4.4,1.1c1.3-2,2.3-4.2,3.2-6.6c2.1,0.8,4.2,1.5,6.3,2.1
		C535,1078.3,536.8,1076.7,536.3,1075.1z"/>
	<path class="st24" d="M729.6,1062.1c-1.2,0.7-2.3,1.4-3.4,2.1c-1.2-1.3-2.4-2.5-3.5-3.7c-1.8-2-5.3,0.6-3.8,2.9
		c0.9,1.3,1.8,2.8,2.7,4.2c-1.4,1.1-2.6,2.3-3.8,3.7c-1.7,2.1,0.4,5.3,3,3.8c1.5-0.9,2.9-1.7,4.2-2.7c0.9,1,1.8,1.9,2.9,2.7
		c1.8,1.3,4.6-0.9,3.8-2.9c-0.5-1.2-1.1-2.3-1.8-3.3c0.8-0.6,1.7-1.2,2.6-1.8C735.5,1064.9,732.8,1060.2,729.6,1062.1z"/>
	<path class="st35" d="M628.8,290.8c-3.4-0.6-13.2-3.3-9.9-8.3c2.7-4.3,6.3-7.9,9.3-12c1-1.4-1-3.4-2.4-2.3c-3.2,2.3-6,5.3-8.6,8.3
		c-2.3,2.7-5,5.4-4.8,9.1c0.3,7.3,10.4,10.6,16.4,9.7C631.1,294.8,631,291.2,628.8,290.8z"/>
	<path class="st31" d="M609,208.5c-7.1-1.8-17.5,0.5-19.8,8.3c-0.9,3.1,2.2,6.3,5.5,5.3c4-1.2,6.7-3,10.9-1.4
		C613.3,223.5,617.2,210.6,609,208.5z"/>
	<path class="st31" d="M681.3,217.4c-2.1-3.6-5.2-5.5-9.1-7.1s-10-1.5-12.8,1.9c-2.8,3.5-2.4,7.4,1.4,10.2c2.5,1.8,5.7,1.5,8.7,1.5
		c1.6,0,3.9,0.6,5.9,1.1C679.8,226.1,683.7,221.5,681.3,217.4z"/>
	<g>
		<path class="st18" d="M605,233.9c-1.3-0.5-2.8-0.6-4.6-0.3c-12,2.3-10.6,22.5-0.2,26.1c5.3,1.8,7.7-2.5,8.7-6.3
			c0.8-1.7,1.2-3.5,1.4-5.3C610.8,243.4,610,235.8,605,233.9z"/>
		<path class="st19" d="M601.7,239.9c-0.3-0.6-1.1-1.3-1.8-1.3c-0.3-0.1-0.6-0.1-0.9-0.1c-0.8,0-1.1,0.2-1.7,0.5
			c-0.4,0.2-0.8,0.5-1.1,0.9c-1.1,1-1.3,2.4-0.8,3.7c0.4,1.2,1.4,2,2.7,2.1c0.1,0,0.3,0,0.4,0c1-0.1,1.7-0.3,2.4-1
			c0.3-0.3,0.5-0.5,0.7-0.9c0.3-0.7,0.6-1.3,0.5-2.1C602.2,240.8,602,240.4,601.7,239.9z"/>
	</g>
	<g>
		<path class="st18" d="M669.2,239.2c-1.3-0.5-2.8-0.6-4.6-0.3c-12,2.3-10.6,22.5-0.2,26.1c5.3,1.8,7.7-2.5,8.7-6.3
			c0.8-1.7,1.2-3.5,1.4-5.3C675.1,248.8,674.2,241.2,669.2,239.2z"/>
		<path class="st19" d="M666,245.3c-0.3-0.6-1.1-1.3-1.8-1.3c-0.3-0.1-0.6-0.1-0.9-0.1c-0.8,0-1.1,0.2-1.7,0.5
			c-0.4,0.2-0.8,0.5-1.1,0.9c-1.1,1-1.3,2.4-0.8,3.7c0.4,1.2,1.4,2,2.7,2.1c0.1,0,0.3,0,0.4,0c1-0.1,1.7-0.3,2.4-1
			c0.3-0.3,0.5-0.5,0.7-0.9c0.3-0.7,0.6-1.3,0.5-2.1C666.4,246.2,666.3,245.8,666,245.3z"/>
	</g>
	<path class="st19" d="M597.3,303.3c1.5-1.9,14.7,6.3,31.6,5.9c17-0.4,39.5-5.5,43.3-2.6c3.8,2.9-8.3,24.2-36.5,26.8
		C607.5,336,592.1,309.9,597.3,303.3z"/>
	<path class="st36" d="M655.6,315.9c-15.2,3.1-29.3,3.7-44.3-0.6c-1.2-0.3-2,1.5-0.9,2c14.1,6.1,31.7,7.6,46.2,2.1
		C658.8,318.6,658,315.4,655.6,315.9z"/>
</g>
</svg>
