<?xml version="1.0" encoding="utf-8"?>
<!-- Generator: Adobe Illustrator 24.0.1, SVG Export Plug-In . SVG Version: 6.00 Build 0)  -->
<svg version="1.1" id="_x31_dff4cb4-53bd-4ffc-acc1-5e8a2ceb72de"
	 xmlns="http://www.w3.org/2000/svg" xmlns:xlink="http://www.w3.org/1999/xlink" x="0px" y="0px" viewBox="0 0 864.8 658.5"
	 style="enable-background:new 0 0 864.8 658.5;" xml:space="preserve">
<style type="text/css">
	.st0{opacity:0.7;}
	.st1{fill:url(#SVGID_1_);}
	.st2{fill:#E0E0E0;}
	.st3{opacity:0.1;enable-background:new    ;}
	.st4{fill:#55198B;}
	.st5{fill:#FDB797;}
	.st6{fill:#333333;}
	.st7{fill:url(#SVGID_2_);}
	.st8{fill:url(#SVGID_3_);}
	.st9{fill:#252F3E;}
	.st10{fill:#FF9900;}
	.st11{fill:url(#SVGID_4_);}
	.st12{fill:#FFFFFF;}
	.st13{fill:#C79732;}
	.st14{fill:url(#SVGID_5_);}
	.st15{fill:url(#SVGID_6_);}
	.st16{opacity:0.837;fill:url(#SVGID_7_);enable-background:new    ;}
	.st17{fill:none;stroke:#BB9400;stroke-width:1.63;}
	.st18{opacity:0.384;fill:#FFFFFF;enable-background:new    ;}
	.st19{fill:url(#SVGID_8_);}
	.st20{opacity:0.377;fill:url(#SVGID_9_);enable-background:new    ;}
	.st21{fill:none;stroke:#274E70;stroke-width:1.63;}
	.st22{opacity:0.165;fill:#FFFFFF;enable-background:new    ;}
	.st23{fill:#75A928;}
	.st24{fill:#BC1142;}
</style>
<title>cloud hosting</title>
<g class="st0">
	
		<linearGradient id="SVGID_1_" gradientUnits="userSpaceOnUse" x1="477.0436" y1="-119.2169" x2="477.0436" y2="539.2499" gradientTransform="matrix(1 0 0 -1 -167.6 539.22)">
		<stop  offset="0" style="stop-color:#808080;stop-opacity:0.25"/>
		<stop  offset="0.54" style="stop-color:#808080;stop-opacity:0.12"/>
		<stop  offset="1" style="stop-color:#808080;stop-opacity:0.1"/>
	</linearGradient>
	<path class="st1" d="M338.8,353.2l-0.6-0.1v-22.6c46.6-11.5,81.9-49.7,89.8-97.1h0.3c5.8,0,10.4-8.8,10.4-19.6
		c0-6.7-1.8-12.6-4.5-16.1c0.4-4.1,0.6-8.3,0.6-12.6c0-34.2-13.9-66.9-38.6-90.5c-1.7-8.4-4.7-16.4-8.9-23.8
		c-8.9-15.7-23.7-32-17.7-49l-39.1,4L330.2,0c-12.2,2.2-17.3,16.3-24.5,26.4c-17.4,24.2-52.4,27.6-75.5,46.4
		c-7.9,6.4-25.5,25.9-22.2,38.7c-15.5,21.4-23.9,47.1-23.8,73.5c0,4.2,0.2,8.4,0.6,12.6c-2.7,3.5-4.5,9.4-4.5,16.1
		c0,10.8,4.7,19.6,10.4,19.6h0.3c7.8,47.4,43.2,85.6,89.8,97.1V353l-0.6,0.1c-13.5-1.6-149.3-11.9-119.5,211.5l18.3,67.4l4.1-0.2
		c1.2,15.8,15.1,27.6,30.9,26.4c12.2-1,22.4-9.5,25.5-21.3c25.9-0.1,55.1-0.2,70-0.2s44.2,0.1,70,0.2c4,15.4,19.7,24.6,35,20.6
		c11.9-3.1,20.5-13.4,21.4-25.7l4.1,0.2l18.3-67.4C488.1,341.2,352.3,351.6,338.8,353.2z"/>
</g>
<rect y="625.2" class="st2" width="645.6" height="21.9"/>
<rect x="27.4" y="647" class="st2" width="590.9" height="9"/>
<rect x="27.4" y="647" class="st3" width="590.9" height="3"/>
<path class="st3" d="M193.4,626.8c0,0,86.6-0.3,116.1-0.3s116.1,0.3,116.1,0.3v-12.6H193.4V626.8z"/>
<path class="st4" d="M425.6,624.3c0,0-86.6-0.3-116.1-0.3s-116.1,0.3-116.1,0.3V465c0-64.1,52-116.1,116.1-116.1l0,0
	c64.1,0,116.1,52,116.1,116.1c0,0,0,0,0,0V624.3z"/>
<path class="st5" d="M298.5,290.8h22c9.3,0,16.8,7.5,16.8,16.8c0,0,0,0,0,0v46.3c0,15.3-12.4,27.8-27.8,27.8c0,0,0,0,0,0l0,0
	c-15.3,0-27.8-12.4-27.8-27.8c0,0,0,0,0,0v-46.3C281.7,298.3,289.2,290.8,298.5,290.8C298.5,290.8,298.5,290.8,298.5,290.8z"/>
<path class="st3" d="M281.7,332.9c18.2,4.5,37.3,4.5,55.5,0v-39.5h-55.5V332.9z"/>
<circle class="st6" cx="309.5" cy="189.9" r="121.1"/>
<circle class="st5" cx="309.5" cy="217.6" r="116.1"/>
<path class="st6" d="M232.8,81.4c22.3-18.2,56.1-21.5,72.9-44.9c7-9.7,11.9-23.4,23.7-25.5l0.4,24.9l37.8-3.9
	c-5.8,16.4,8.5,32.2,17.1,47.4c6.3,11.2,9.8,23.8,10.1,36.7c-13.1,7.9-29.4-0.7-44-5.3c-14.2-4.5-29.3-4.9-44.2-5.3
	c-7.6-0.2-15.4-0.4-22.8,1.3c-6.5,1.5-12.6,4.3-18.8,6.9c-10,4.2-41.8,20.1-51.1,9.9C203.3,111.8,224.2,88.4,232.8,81.4z"/>
<path class="st3" d="M239.1,159.4c6.2,3.7,13.4,5.2,20.5,6.2c29.7,4.1,60,0.7,88.1-9.9c4.6,11.7,15.8,19.7,27.8,23.5
	s24.7,4,37.2,4.1c2.8,0,5.7,0,8-1.5c5.6-3.8,2.9-12.4-0.4-18.3l-16.2-29.3c-4.8-8.7-9.7-17.5-17.1-24.1
	c-9.3-8.2-21.6-12.1-33.8-14.5c-28.7-5.7-58.4-4.7-86.6,2.9C236.5,106.7,197.7,134.3,239.1,159.4z"/>
<path class="st6" d="M239.1,156.9c6.2,3.7,13.4,5.2,20.5,6.2c29.7,4.1,60,0.7,88.1-9.9c4.6,11.7,15.8,19.7,27.8,23.5
	s24.7,4,37.2,4.1c2.8,0,5.7,0,8-1.5c5.6-3.8,2.9-12.4-0.4-18.3l-16.2-29.3c-4.8-8.7-9.7-17.5-17.1-24.1
	c-9.3-8.2-21.6-12.1-33.8-14.5c-28.7-5.7-58.4-4.7-86.6,2.9C236.5,104.2,197.7,131.8,239.1,156.9z"/>
<ellipse class="st5" cx="424.3" cy="217.6" rx="10.1" ry="18.9"/>
<ellipse class="st5" cx="194.7" cy="217.6" rx="10.1" ry="18.9"/>
<path class="st4" d="M336.8,352.5c0,0,146.8-22.9,116.6,204.3l-17.7,65.1l-50.5-2c0,0,32.8-75.7,12.6-126.2S336.8,352.5,336.8,352.5
	z"/>
<path class="st4" d="M282.2,352.5c0,0-146.8-22.9-116.6,204.3l17.7,65.1l50.5-2c0,0-32.8-75.7-12.6-126.2S282.2,352.5,282.2,352.5z"
	/>
<path class="st3" d="M218.6,452.6c0,0-10.1,78,7.6,100.7"/>
<path class="st3" d="M400.4,454.6c0,0,10.1,76-7.6,98.7"/>
<circle class="st5" cx="404.1" cy="619.7" r="27.8"/>
<circle class="st5" cx="214.9" cy="619.7" r="27.8"/>
<g class="st0">
	
		<linearGradient id="SVGID_2_" gradientUnits="userSpaceOnUse" x1="309.425" y1="37" x2="309.425" y2="199" gradientTransform="matrix(1 0 0 -1 0 660)">
		<stop  offset="0" style="stop-color:#808080;stop-opacity:0.25"/>
		<stop  offset="0.54" style="stop-color:#808080;stop-opacity:0.12"/>
		<stop  offset="1" style="stop-color:#808080;stop-opacity:0.1"/>
	</linearGradient>
	<path class="st7" d="M239.4,461h140.1c11.8,0,21.3,9.6,21.3,21.3v119.3c0,11.8-9.6,21.3-21.3,21.3H239.4
		c-11.8,0-21.3-9.6-21.3-21.3V482.3C218,470.6,227.6,461,239.4,461z"/>
</g>
<path class="st2" d="M242.8,464h133.3c11.8,0,21.3,9.6,21.3,21.3v113.3c0,11.8-9.6,21.3-21.3,21.3H242.8c-11.8,0-21.3-9.6-21.3-21.3
	V485.3C221.4,473.6,231,464,242.8,464z"/>
<g class="st0">
	
		<linearGradient id="SVGID_3_" gradientUnits="userSpaceOnUse" x1="773.425" y1="111" x2="773.425" y2="273" gradientTransform="matrix(1 0 0 -1 0 660)">
		<stop  offset="0" style="stop-color:#808080;stop-opacity:0.25"/>
		<stop  offset="0.54" style="stop-color:#808080;stop-opacity:0.12"/>
		<stop  offset="1" style="stop-color:#808080;stop-opacity:0.1"/>
	</linearGradient>
	<path class="st8" d="M703.4,387h140.1c11.8,0,21.3,9.6,21.3,21.3v119.3c0,11.8-9.6,21.3-21.3,21.3H703.4
		c-11.8,0-21.3-9.6-21.3-21.3V408.3C682,396.6,691.6,387,703.4,387z"/>
</g>
<path class="st2" d="M706.8,390h133.3c11.8,0,21.3,9.6,21.3,21.3v113.3c0,11.8-9.6,21.3-21.3,21.3H706.8c-11.8,0-21.3-9.6-21.3-21.3
	V411.3C685.4,399.6,695,390,706.8,390z"/>
<path class="st9" d="M742,456.2c0,1.4,0.1,2.9,0.5,4.3c0.4,1.2,0.9,2.3,1.5,3.5c0.2,0.3,0.3,0.7,0.3,1.1c-0.1,0.6-0.4,1.1-0.9,1.4
	l-3,2c-0.4,0.3-0.8,0.4-1.3,0.4c-0.5,0-1.1-0.3-1.4-0.7c-0.6-0.7-1.2-1.4-1.7-2.3c-0.5-0.8-1-1.7-1.5-2.8c-3.4,4.3-8.6,6.7-14.1,6.6
	c-4,0-7.2-1.2-9.6-3.5c-5-5.5-4.7-14,0.8-19.1c2.9-2.5,6.8-3.7,11.7-3.7c1.7,0,3.4,0.1,5.1,0.4c1.8,0.2,3.6,0.6,5.5,1v-3.5
	c0-3.6-0.8-6.2-2.3-7.7s-4.1-2.2-7.8-2.2c-1.7,0-3.5,0.2-5.2,0.6c-1.8,0.4-3.5,1-5.2,1.6c-0.5,0.2-1.1,0.5-1.7,0.6
	c-0.2,0.1-0.5,0.1-0.8,0.1c-0.7,0-1-0.5-1-1.5v-2.3c-0.1-0.6,0.1-1.2,0.3-1.7c0.4-0.4,0.8-0.8,1.3-1c1.9-0.9,3.9-1.7,6-2.2
	c2.4-0.6,5-0.9,7.5-0.9c5.7,0,9.9,1.3,12.6,3.9c2.7,2.6,4,6.5,4,11.8L742,456.2L742,456.2z M722.6,463.5c1.7,0,3.3-0.3,4.9-0.9
	c1.8-0.6,3.3-1.7,4.5-3.1c0.8-0.9,1.3-1.9,1.6-3.1c0.3-1.4,0.5-2.8,0.5-4.2v-2c-1.5-0.4-2.9-0.6-4.4-0.8c-1.5-0.2-3-0.3-4.5-0.3
	c-3.2,0-5.6,0.6-7.1,1.9c-3.1,2.2-3.7,6.5-1.5,9.6C718,462.6,720.2,463.7,722.6,463.5L722.6,463.5z M761,468.7
	c-0.6,0.1-1.3-0.1-1.8-0.5c-0.5-0.5-0.8-1.2-1-1.9l-11.3-37c-0.2-0.6-0.4-1.3-0.4-1.9c-0.1-0.6,0.3-1.1,0.9-1.2c0.1,0,0.2,0,0.3,0
	h4.7c0.7-0.1,1.3,0.1,1.9,0.5c0.5,0.5,0.8,1.2,1,1.9l8,31.7l7.5-31.7c0.1-0.7,0.4-1.4,0.9-1.9c0.6-0.4,1.2-0.5,1.9-0.5h3.8
	c0.7-0.1,1.4,0.1,1.9,0.5c0.5,0.5,0.8,1.2,0.9,1.9l7.6,32.1l8.3-32.1c0.2-0.7,0.5-1.3,1-1.9c0.6-0.4,1.2-0.5,1.9-0.5h4.4
	c0.6-0.1,1.1,0.3,1.2,0.9c0,0.1,0,0.2,0,0.3c0,0.3,0,0.5-0.1,0.8c-0.1,0.4-0.2,0.8-0.3,1.2l-11.5,37c-0.1,0.7-0.5,1.4-1,1.9
	c-0.5,0.3-1.2,0.5-1.8,0.5h-4.1c-0.7,0.1-1.4-0.1-1.9-0.5c-0.5-0.5-0.8-1.2-0.9-1.9l-7.4-30.9l-7.4,30.8c-0.1,0.7-0.4,1.4-0.9,1.9
	c-0.6,0.4-1.2,0.5-1.9,0.5L761,468.7z M822.6,470c-2.5,0-5-0.3-7.4-0.9c-1.9-0.4-3.8-1-5.5-1.9c-0.6-0.3-1.1-0.8-1.5-1.3
	c-0.2-0.4-0.3-0.9-0.3-1.3v-2.4c0-1,0.4-1.5,1.1-1.5c0.3,0,0.6,0,0.9,0.1c0.3,0.1,0.7,0.3,1.2,0.5c1.7,0.7,3.5,1.3,5.3,1.7
	c1.9,0.4,3.8,0.6,5.7,0.6c2.4,0.1,4.9-0.4,7-1.6c1.6-1,2.5-2.7,2.5-4.5c0-1.2-0.4-2.5-1.3-3.3c-1.4-1.2-3.1-2-4.8-2.5l-7-2.2
	c-3.5-1.1-6.1-2.7-7.7-4.9c-1.5-2-2.4-4.4-2.4-6.9c0-1.9,0.4-3.7,1.3-5.3c0.9-1.5,2-2.9,3.4-3.9c1.5-1.1,3.2-2,5-2.5
	c2-0.6,4-0.8,6-0.8c1.1,0,2.1,0.1,3.2,0.2c1.1,0.1,2.1,0.3,3.1,0.5s1.9,0.5,2.7,0.8c0.7,0.2,1.4,0.5,2,0.9c0.6,0.3,1.1,0.7,1.4,1.2
	c0.3,0.5,0.5,1,0.4,1.6v2.3c0,1-0.4,1.5-1.1,1.5c-0.6-0.1-1.3-0.3-1.8-0.6c-2.9-1.3-6-1.9-9.2-1.9c-2.2-0.1-4.4,0.3-6.4,1.3
	c-1.5,0.9-2.4,2.5-2.3,4.3c0,1.3,0.5,2.5,1.4,3.4c1.6,1.2,3.3,2.1,5.3,2.6l6.8,2.2c3.4,1.1,5.9,2.6,7.4,4.6c1.5,1.9,2.2,4.3,2.2,6.7
	c0,1.9-0.4,3.8-1.3,5.6c-0.9,1.6-2,3.1-3.5,4.2c-1.6,1.2-3.4,2.1-5.3,2.7C827.1,469.6,824.8,470,822.6,470L822.6,470z"/>
<path class="st10" d="M831.6,493.2C815.8,504.9,793,511,773.3,511c-26.3,0.1-51.7-9.5-71.2-27.2c-1.5-1.3-0.1-3.2,1.6-2.1
	c38.3,22.1,84.8,25,125.6,7.8C831.9,488.4,834.2,491.3,831.6,493.2L831.6,493.2z"/>
<path class="st10" d="M838.2,485.8c-2-2.6-13.3-1.3-18.4-0.6c-1.5,0.2-1.8-1.2-0.4-2.2c9-6.3,23.8-4.5,25.5-2.4
	c1.7,2.1-0.5,17-8.9,24c-1.3,1.1-2.5,0.5-2-0.9C835.9,499,840.2,488.3,838.2,485.8z"/>
<g class="st0">
	
		<linearGradient id="SVGID_4_" gradientUnits="userSpaceOnUse" x1="664.425" y1="383" x2="664.425" y2="545" gradientTransform="matrix(1 0 0 -1 0 660)">
		<stop  offset="0" style="stop-color:#808080;stop-opacity:0.25"/>
		<stop  offset="0.54" style="stop-color:#808080;stop-opacity:0.12"/>
		<stop  offset="1" style="stop-color:#808080;stop-opacity:0.1"/>
	</linearGradient>
	<path class="st11" d="M594.4,115h140.1c11.8,0,21.3,9.6,21.3,21.3v119.3c0,11.8-9.6,21.3-21.3,21.3H594.4
		c-11.8,0-21.3-9.6-21.3-21.3V136.3C573,124.6,582.6,115,594.4,115z"/>
</g>
<path class="st12" d="M664.4,214.4c-10.2,0-18.4-8.3-18.4-18.4s8.3-18.4,18.4-18.4c10.2,0,18.4,8.3,18.4,18.4
	C682.8,206.1,674.6,214.3,664.4,214.4"/>
<path class="st12" d="M636.8,151.5c-2,0-3.6-1.6-3.6-3.6s1.6-3.6,3.6-3.6c2,0,3.6,1.6,3.6,3.6l0,0
	C640.3,149.9,638.7,151.5,636.8,151.5 M695.1,148c0,1.8-1.4,3.3-3.3,3.3c-1.8,0-3.3-1.4-3.3-3.3c0,0,0-0.1,0-0.1
	c0-1.8,1.5-3.3,3.3-3.3C693.6,144.7,695.1,146.2,695.1,148z"/>
<path class="st13" d="M668,255.6h2c1.3-0.8,2.5-1.8,3.3-3.2l11.9-21h-12.6L668,255.6"/>
<path class="st12" d="M636.8,246.9c-2,0-3.6-1.6-3.6-3.6s1.6-3.6,3.6-3.6c2,0,3.6,1.6,3.6,3.6l0,0
	C640.3,245.3,638.7,246.9,636.8,246.9 M609,199.5c-2,0-3.6-1.6-3.6-3.6s1.6-3.6,3.6-3.6c2,0,3.6,1.6,3.6,3.6l0,0
	C612.6,197.9,611,199.5,609,199.5"/>
<radialGradient id="SVGID_5_" cx="130.6087" cy="-618.9074" r="36.4715" gradientTransform="matrix(1.6 0 0 -0.5518 100.016 247.967)" gradientUnits="userSpaceOnUse">
	<stop  offset="0" style="stop-color:#000000"/>
	<stop  offset="1" style="stop-color:#000000;stop-opacity:0"/>
</radialGradient>
<path class="st14" d="M367.3,589.5c0,11.1-26.1,20.1-58.4,20.1c-32.2,0-58.3-9-58.4-20.1c0-11.1,26.1-20.1,58.4-20.1
	C341.2,569.3,367.3,578.3,367.3,589.5C367.3,589.5,367.3,589.5,367.3,589.5z"/>
<linearGradient id="SVGID_6_" gradientUnits="userSpaceOnUse" x1="1274.8445" y1="-1327.5522" x2="1268.238" y2="-1565.4237" gradientTransform="matrix(0.3539 0 0 -0.3539 -124.2921 41.1095)">
	<stop  offset="0" style="stop-color:#FFE253"/>
	<stop  offset="1" style="stop-color:#FFCA1C"/>
</linearGradient>
<path class="st15" d="M338.9,581.9c0,8.1-7,12.2-14.2,14.3c-10.7,3.1-19.4,2.6-28.3,0c-7.5-2.2-14.2-6.6-14.2-14.3v-26.7
	c0-7.7,6.4-14.3,14.2-14.3l27.9-1.8c9.4,0,15.6-5.9,15.6-15.6l2.6-12.9h10.6c8.3,0,12.1,6.1,14.2,14.3c2.8,11.3,3,19.7,0,28.5
	c-2.9,8.5-5.9,14.3-14.2,14.3h-14.2h-28.3v-0.1C335,567.6,338.9,557.7,338.9,581.9L338.9,581.9z"/>
<path class="st12" d="M321.2,583.7c0-3,2.4-5.3,5.3-5.3c3,0,5.3,2.4,5.3,5.3c0,3-2.4,5.4-5.3,5.4C323.6,589,321.2,586.6,321.2,583.7
	z"/>
<linearGradient id="SVGID_7_" gradientUnits="userSpaceOnUse" x1="1242.7499" y1="-1451.8549" x2="1242.7499" y2="-1308.0381" gradientTransform="matrix(0.3539 0 0 -0.3539 -114.1993 51.1612)">
	<stop  offset="0" style="stop-color:#FFFFFF"/>
	<stop  offset="1" style="stop-color:#FFFFFF;stop-opacity:0.165"/>
</linearGradient>
<path class="st16" d="M342.4,510.6v12.5c-10.1,17.8-29.4,17.8-45.5,17.8l-6,0.6c-8.4,7.2-8.7,18.8-8.7,29
	c18.5-20.7,38.3-22.3,48.2-22.2c19.7,0.1,29-4.8,38.4-15.4c0-0.2,0-0.4,0-0.6c-0.4-2.4-1-4.9-1.7-7.6c-1-3.8-2.2-7.2-4.2-9.7
	c0,0-0.1-0.1-0.2-0.1c0,0-0.1,0-0.1,0c-0.1-0.1-0.1-0.2-0.1-0.3c-0.1-0.1-0.2-0.2-0.3-0.3c0,0-0.1,0-0.1,0c-2.1-1.4-4.8-2.4-7.4-2.9
	c-2.4-0.4-4.8-0.7-7.3-0.9h-1.5L342.4,510.6L342.4,510.6z"/>
<path class="st17" d="M340.3,581.9c0,8.1-8.5,12.2-15.6,14.3c-10.7,3.1-19.4,2.6-28.3,0c-7.5-2.2-14.2-6.6-14.3-14.3l0-27.5
	c0-9.1,6.8-14.9,14.4-14.8l25.1,0c9.6,0,19-9.8,19-19.4v-9.6h12.5c8.3,0,12.1,6.1,14.2,14.3c2.8,11.3,3,19.7,0,28.5
	c-2.9,8.5-5.9,15.3-14.2,15.3h-12.8h-29.8v-0.1l29.8,0.1L340.3,581.9z"/>
<path class="st18" d="M343,513v7.1c0,11.1-10.4,21.9-22.2,21.9h-24.5c-8.5,0-11.9,6.4-11.9,13.2l0.2,26.7c0,3.1,1.2,5.4,3.4,7.4
	c2.2,2,5.6,3.5,9.1,4.5c8.7,2.5,16.5,3,26.9,0c3.4-1,7.8-2.8,10.1-4.7c2.2-1.9,3.9-3.8,3.9-7.2v-10.8h-29.8v-5l45,0.1
	c3.6,0,5.3-1.4,7.1-3.5c1.8-2.1,3.3-6.1,4.7-10.3c2.8-8.3,2.8-16.2,0-27.2c-1-3.9-2.4-7-4.2-9.1c-1.9-2.1-4-3.3-7.6-3.3H343z
	 M347.9,517.8h5.3c1.5,0,3.6,1.2,3.9,1.7c1.1,1.2,2.3,3.7,3.2,7.1c2.6,10.5,2.6,17.1,0.1,24.5c-1.3,4-2.7,7.8-3.8,8.9
	c-0.9,1-3,1.5-3.5,1.5l-14.2-0.2h-35.7V576h29.8v5.9c0,2.2-2.9,3.5-3.4,3.9c-1.4,1.3-4,2.5-7,3.3c-9.6,2.7-16.3,2.3-24.3,0
	c-3-0.9-5.7-2.2-7.1-3.4s-1.6-2.3-1.9-3.8l-0.2-26.7c0-6,1.9-8.3,7-8.3h24.5c14.6,0,27-12.9,27-26.7
	C347.9,519.3,347.9,518.6,347.9,517.8z"/>
<linearGradient id="SVGID_8_" gradientUnits="userSpaceOnUse" x1="1057.4084" y1="-1356.8876" x2="1303.4194" y2="-1356.8876" gradientTransform="matrix(0.3539 0 0 -0.3539 -125.2819 39.6945)">
	<stop  offset="0" style="stop-color:#3778AE"/>
	<stop  offset="1" style="stop-color:#366C99"/>
</linearGradient>
<path class="st19" d="M279.3,492.1c0-8.1,2.2-12.5,14.2-14.6c8.2-1.4,18.6-1.6,28.3,0c7.7,1.3,14.2,7,14.2,14.6v26.8
	c0,7.8-6.3,14.3-14.2,14.3l-25.7,1.4c-9.6,0-19.6,8.4-19.6,17.7l-0.8,11.2H266c-8.2,0-13-5.9-15.1-14.3c-2.7-11.2-2.6-17.8,0-28.5
	c2.3-9.3,9.5-14.3,16.9-14.3h10.6c0,0,26.5-0.1,0-0.1v-14.2l0,0L279.3,492.1z"/>
<path class="st12" d="M286.4,490.3c0-3,2.4-5.4,5.3-5.4c2.9,0,5.3,2.4,5.3,5.4c0,3-2.4,5.3-5.3,5.3
	C288.7,495.7,286.4,493.3,286.4,490.3z"/>
<linearGradient id="SVGID_9_" gradientUnits="userSpaceOnUse" x1="1180.4724" y1="-1388.0906" x2="1180.4724" y2="-1244.2738" gradientTransform="matrix(0.3539 0 0 -0.3539 -125.2819 39.6945)">
	<stop  offset="0" style="stop-color:#FFFFFF"/>
	<stop  offset="1" style="stop-color:#FFFFFF;stop-opacity:0.165"/>
</linearGradient>
<path class="st20" d="M305.2,476.3c-4.2,0.1-8.2,0.6-11.8,1.2c-12,2.1-14.1,6.6-14.1,14.7l-0.9,14.2l-9.9,0
	c-8.2,0-15.4,4.9-17.7,14.2c-1.5,6.3-2.2,11.2-2,16.5c18.7-21.2,38.7-22.7,48.7-22.7c19.7,0.1,29-4.8,38.4-15.4v-6.8
	c0-7.6-6.5-13.4-14.2-14.7C316.3,476.6,310.6,476.1,305.2,476.3z"/>
<path class="st21" d="M293.2,478.2c10.7-3.1,19.4-2.6,28.3,0c7.5,2.2,14.2,6.6,14.2,14.3v28.9c0,4.1-5.9,13.4-14.2,13.4h-26.4
	c-7.4,0-17.8,8.1-17.8,17.8v11.3h-12.5c-8.3,0-12.1-6.1-14.2-14.3c-2.8-11.3-3-19.7,0-28.5c2.9-8.5,5.9-15.3,14.2-15.3h12.8h29.8
	v0.1l-29.8-0.1l0.1-14.5C277.6,485.2,284.9,480.6,293.2,478.2L293.2,478.2z"/>
<path class="st22" d="M275,561.3V553c0-11.1,10.1-20.9,20.9-20.9h25.8c6.4,0,11.9-6.7,11.9-13l-0.2-26.7c0-3.1-1.1-5.4-3.3-7.4
	c-2.2-2-5.6-3.5-9.1-4.5c-8.7-2.5-16.5-3-26.9,0c-3.4,1-7.8,2.8-10.1,4.7c-2.3,1.9-3.9,3.8-3.9,7.2v10.8h29.8v5l-45-0.2
	c-3.6,0-5.3,1.4-7.1,3.5c-1.8,2.1-3.3,6.1-4.7,10.3c-2.8,8.3-2.8,16.2,0,27.2c1,3.9,2.4,7,4.2,9.1c1.9,2.1,4,3.3,7.6,3.3L275,561.3
	L275,561.3z M270.1,556.5h-5.3c-1.5,0-3.6-1.2-3.9-1.7c-1.1-1.2-2.3-3.7-3.2-7.1c-2.6-10.5-2.6-17.1-0.1-24.5c1.3-4,2.7-7.8,3.8-8.9
	c0.9-1,2.9-1.5,3.5-1.5l49.9,0.2v-14.7h-29.8v-5.9c0-2.2,2.9-3.5,3.4-3.9c1.4-1.3,4-2.5,7-3.3c9.6-2.7,16.3-2.3,24.3,0
	c3,0.9,5.7,2.2,7.1,3.5c0.5,0.4,0.8,0.9,1.2,1.4c0.6,0.7,0.5,1.6,0.6,2.4v26.7c0,3.7-3.1,8.2-6.8,8.2h-25.8
	c-13.6,0-25.7,11.9-25.7,25.7C270.1,554.2,270.1,556.5,270.1,556.5L270.1,556.5z"/>
<path d="M642.2,134.3c-0.7,0-1.4,0.3-2.2,0.9c-2-0.8-3.9-1-5.6,0.5c-2.6-0.3-3.5,0.4-4.2,1.2c-0.6,0-4.4-0.6-6.1,2
	c-4.3-0.5-5.7,2.6-4.2,5.4c-0.9,1.4-1.8,2.7,0.3,5.4c-0.7,1.5-0.3,3,1.5,5c-0.5,2.1,0.4,3.5,2.1,4.6c-0.3,2.8,2.6,4.4,3.4,5
	c0.3,1.6,1,3.2,4.3,4c0.5,2.4,2.5,2.9,4.4,3.4c-6.3,3.7-11.7,8.5-11.7,20.4l-0.9,1.7c-7.2,4.4-13.8,18.6-3.6,30.1
	c0.7,3.6,1.8,6.2,2.8,9.1c1.5,11.5,11.2,16.9,13.7,17.6c3.7,2.9,7.7,5.6,13.1,7.5c5.1,5.3,10.6,7.3,16.2,7.3c0.1,0,0.2,0,0.2,0
	c5.5,0,11.1-2,16.2-7.3c5.4-1.9,9.4-4.6,13.1-7.5c2.6-0.6,12.3-6,13.7-17.6c1-2.9,2.1-5.5,2.8-9.1c10.2-11.5,3.7-25.7-3.6-30.1
	l-0.9-1.7c0-11.9-5.4-16.7-11.7-20.4c1.9-0.5,3.9-0.9,4.4-3.4c3.3-0.9,4-2.4,4.3-4c0.9-0.6,3.7-2.2,3.4-5c1.6-1.1,2.5-2.6,2.1-4.6
	c1.7-1.9,2.2-3.5,1.5-5c2.1-2.6,1.2-4,0.3-5.4c1.6-2.9,0.2-5.9-4.2-5.4c-1.7-2.6-5.5-2-6.1-2c-0.7-0.8-1.5-1.5-4.2-1.2
	c-1.7-1.6-3.6-1.3-5.6-0.5c-2.4-1.9-3.9-0.4-5.7,0.2c-2.8-0.9-3.5,0.3-4.9,0.9c-3.1-0.7-4,0.8-5.5,2.3l-1.7,0
	c-4.7,2.8-7,8.4-7.8,11.3c-0.8-2.9-3.1-8.5-7.8-11.3l-1.7,0c-1.5-1.5-2.4-2.9-5.5-2.3c-1.4-0.5-2-1.8-4.9-0.9
	C644.5,135,643.5,134.3,642.2,134.3z"/>
<path class="st23" d="M632.9,146.4c12.4,6.4,19.6,11.6,23.6,16c-2,8.1-12.6,8.5-16.5,8.3c0.8-0.4,1.5-0.8,1.7-1.5
	c-1-0.7-4.4-0.1-6.8-1.4c0.9-0.2,1.4-0.4,1.8-1.1c-2.3-0.7-4.7-1.3-6.1-2.5c0.8,0,1.5,0.2,2.5-0.5c-2-1.1-4.2-2-5.9-3.6
	c1.1,0,2.2,0,2.5-0.4c-1.9-1.2-3.4-2.4-4.7-3.8c1.5,0.2,2.1,0,2.4-0.2c-1.4-1.4-3.2-2.7-4-4.4c1.1,0.4,2.1,0.5,2.8,0
	c-0.5-1.1-2.5-1.7-3.7-4.2c1.1,0.1,2.4,0.3,2.6,0c-0.5-2.2-1.4-3.4-2.3-4.7c2.5,0,6.2,0,6-0.2l-1.5-1.6c2.4-0.6,4.9,0.1,6.6,0.7
	c0.8-0.6,0-1.4-1-2.2c2,0.3,3.9,0.7,5.6,1.4c0.9-0.8-0.6-1.6-1.3-2.4c3.2,0.6,4.5,1.4,5.8,2.3c1-0.9,0.1-1.7-0.6-2.5
	c2.4,0.9,3.6,2,4.9,3.1c0.4-0.6,1.1-1,0.3-2.4c1.7,1,3,2.1,3.9,3.4c1-0.7,0.6-1.6,0.6-2.4c1.8,1.4,2.9,2.9,4.2,4.4
	c0.3-0.2,0.5-0.9,0.7-1.9c4.2,4.1,10.1,14.3,1.5,18.3C651.3,154.1,642.6,149.7,632.9,146.4z"/>
<path class="st23" d="M698.8,146.4c-12.4,6.4-19.6,11.6-23.6,16c2,8.1,12.6,8.5,16.5,8.3c-0.8-0.4-1.5-0.8-1.7-1.5
	c1-0.7,4.4-0.1,6.8-1.4c-0.9-0.2-1.4-0.4-1.8-1.1c2.3-0.7,4.7-1.3,6.1-2.5c-0.8,0-1.5,0.2-2.5-0.5c2-1.1,4.2-2,5.9-3.6
	c-1.1,0-2.2,0-2.5-0.4c1.9-1.2,3.4-2.4,4.7-3.8c-1.5,0.2-2.1,0-2.4-0.2c1.4-1.4,3.2-2.7,4-4.4c-1.1,0.4-2.1,0.5-2.8,0
	c0.5-1.1,2.5-1.7,3.7-4.2c-1.1,0.1-2.4,0.3-2.6,0c0.5-2.2,1.4-3.4,2.3-4.7c-2.5,0-6.2,0-6-0.2l1.5-1.6c-2.4-0.6-4.9,0.1-6.6,0.7
	c-0.8-0.6,0-1.4,1-2.2c-2,0.3-3.9,0.7-5.6,1.4c-0.9-0.8,0.6-1.6,1.3-2.4c-3.2,0.6-4.5,1.4-5.8,2.3c-1-0.9-0.1-1.7,0.6-2.5
	c-2.4,0.9-3.6,2-4.9,3.1c-0.4-0.6-1.1-1-0.3-2.4c-1.7,1-3,2.1-3.9,3.4c-1-0.7-0.6-1.6-0.6-2.4c-1.8,1.4-2.9,2.9-4.2,4.4
	c-0.3-0.2-0.5-0.9-0.7-1.9c-4.2,4.1-10.1,14.3-1.5,18.3C680.4,154.1,689.1,149.7,698.8,146.4L698.8,146.4z"/>
<path class="st24" d="M680.9,229.1c0,7.6-6.7,13.7-14.9,13.7s-14.9-6.1-14.9-13.7s6.7-13.7,14.9-13.7S680.9,221.5,680.9,229.1z"/>
<path class="st24" d="M657.4,189.9c6.2,4,7.3,13.2,2.5,20.4c-4.8,7.3-13.7,9.9-19.8,5.8l0,0c-6.2-4-7.3-13.2-2.5-20.4
	C642.3,188.5,651.2,185.9,657.4,189.9L657.4,189.9z"/>
<path class="st24" d="M674,189.2c-6.2,4-7.3,13.2-2.5,20.4c4.8,7.3,13.7,9.9,19.8,5.8l0,0c6.2-4,7.3-13.2,2.5-20.4
	C689.1,187.7,680.2,185.1,674,189.2L674,189.2z"/>
<path class="st24" d="M626.6,196.5c6.7-1.8,2.2,27.5-3.2,25.1C617.5,216.8,615.5,202.8,626.6,196.5z"/>
<path class="st24" d="M703.5,196.1c-6.7-1.8-2.2,27.5,3.2,25.1C712.6,216.5,714.5,202.5,703.5,196.1z"/>
<path class="st24" d="M680.9,174.3c11.5-1.9,21,4.9,20.7,17.3C701.2,196.4,676.6,175,680.9,174.3L680.9,174.3z"/>
<path class="st24" d="M649.1,174c-11.5-1.9-21,4.9-20.7,17.3C628.9,196.1,653.4,174.7,649.1,174z"/>
<path class="st24" d="M665.6,171c-6.9-0.2-13.4,5.1-13.4,8.1c0,3.7,5.4,7.5,13.5,7.6c8.2,0.1,13.5-3,13.5-6.9
	C679.3,175.6,671.7,171,665.6,171L665.6,171z"/>
<path class="st24" d="M666.1,247.1c6-0.3,14,1.9,14,4.8c0.1,2.8-7.3,9.2-14.4,9.1c-7.4,0.3-14.6-6.1-14.5-8.3
	C651,249.5,660.1,247,666.1,247.1z"/>
<path class="st24" d="M644,230c4.3,5.1,6.2,14.1,2.6,16.8c-3.4,2-11.5,1.2-17.3-7.1c-3.9-7-3.4-14.1-0.7-16.2
	C632.8,220.9,639.1,224.3,644,230z"/>
<path class="st24" d="M687.3,228.3c-4.6,5.4-7.2,15.2-3.8,18.4c3.2,2.5,11.8,2.1,18.2-6.7c4.6-5.9,3.1-15.8,0.4-18.5
	C698.2,218.5,692.6,222.4,687.3,228.3z"/>
</svg>
