<?xml version="1.0" encoding="utf-8"?>
<!-- Generator: Adobe Illustrator 24.0.1, SVG Export Plug-In . SVG Version: 6.00 Build 0)  -->
<svg version="1.1" id="Layer_1" xmlns="http://www.w3.org/2000/svg" xmlns:xlink="http://www.w3.org/1999/xlink" x="0px" y="0px"
	 viewBox="0 0 1200 1200" style="enable-background:new 0 0 1200 1200;" xml:space="preserve">
<style type="text/css">
	.st0{fill:#09376E;}
	.st1{fill:#FFFFFF;stroke:#000000;stroke-width:0.5;stroke-miterlimit:10;}
	.st2{fill:#448CC7;}
	.st3{fill:#FFFFFF;}
</style>
<g>
	<g>
		<polygon class="st0" points="697.18,755.44 611.44,755.44 588.56,755.44 502.82,755.44 457.07,912.64 588.56,912.64 
			611.44,912.64 742.93,912.64 		"/>
		<path class="st1" d="M33.37,614.69v146.14c0,11.53,9.35,20.88,20.89,20.88h1091.49c11.53,0,20.88-9.35,20.88-20.88V614.69H33.37z"
			/>
		<path class="st0" d="M1145.75,29.86H54.25c-11.53,0-20.89,9.35-20.89,20.89v563.94h1133.26V50.75
			C1166.63,39.21,1157.28,29.86,1145.75,29.86z"/>
		<rect x="82.46" y="74.5" class="st2" width="1035.09" height="540.19"/>
		<path class="st3" d="M828.65,922.64c0,11.84-9.6,21.44-21.44,21.44H392.78c-11.84,0-21.44-9.6-21.44-21.44l0,0
			c0-11.84,9.6-21.44,21.44-21.44h414.43C819.06,901.21,828.65,910.81,828.65,922.64L828.65,922.64z"/>
	</g>
	<g>
		<g>
			<path class="st3" d="M219.57,176.98h-0.27l-15.12,8.17l-2.27-8.99L220.91,166h10.03v87.01h-11.38V176.98z"/>
			<path class="st3" d="M320.5,208.56c0,29.59-10.98,45.93-30.26,45.93c-17.01,0-28.51-15.94-28.78-44.71
				c0-29.19,12.58-45.25,30.26-45.25C310.06,164.53,320.5,180.87,320.5,208.56z M273.23,209.92c0,22.61,6.97,35.46,17.68,35.46
				c12.04,0,17.8-14.04,17.8-36.28c0-21.42-5.49-35.46-17.67-35.46C280.74,173.64,273.23,186.2,273.23,209.92z"/>
			<path class="st3" d="M389.17,208.56c0,29.59-10.98,45.93-30.26,45.93c-17.01,0-28.51-15.94-28.78-44.71
				c0-29.19,12.58-45.25,30.26-45.25C378.73,164.53,389.17,180.87,389.17,208.56z M341.9,209.92c0,22.61,6.97,35.46,17.68,35.46
				c12.04,0,17.8-14.04,17.8-36.28c0-21.42-5.49-35.46-17.68-35.46C349.41,173.64,341.9,186.2,341.9,209.92z"/>
			<path class="st3" d="M425.57,176.98h-0.27l-15.12,8.17l-2.27-8.99L426.91,166h10.03v87.01h-11.38V176.98z"/>
			<path class="st3" d="M526.51,208.56c0,29.59-10.98,45.93-30.26,45.93c-17.01,0-28.51-15.94-28.78-44.71
				c0-29.19,12.58-45.25,30.26-45.25C516.07,164.53,526.51,180.87,526.51,208.56z M479.25,209.92c0,22.61,6.97,35.46,17.68,35.46
				c12.04,0,17.8-14.04,17.8-36.28c0-21.42-5.49-35.46-17.68-35.46C486.75,173.64,479.25,186.2,479.25,209.92z"/>
			<path class="st3" d="M562.91,176.98h-0.27l-15.12,8.17l-2.27-8.99L564.26,166h10.03v87.01h-11.38V176.98z"/>
			<path class="st3" d="M631.58,176.98h-0.27l-15.12,8.17l-2.28-8.99L632.93,166h10.03v87.01h-11.38V176.98z"/>
			<path class="st3" d="M700.26,176.98h-0.27l-15.12,8.17l-2.27-8.99L701.61,166h10.03v87.01h-11.38V176.98z"/>
			<path class="st3" d="M801.2,208.56c0,29.59-10.98,45.93-30.26,45.93c-17.01,0-28.51-15.94-28.78-44.71
				c0-29.19,12.58-45.25,30.26-45.25C790.76,164.53,801.2,180.87,801.2,208.56z M753.93,209.92c0,22.61,6.96,35.46,17.67,35.46
				c12.04,0,17.8-14.04,17.8-36.28c0-21.42-5.49-35.46-17.68-35.46C761.44,173.64,753.93,186.2,753.93,209.92z"/>
			<path class="st3" d="M837.6,176.98h-0.27l-15.12,8.17l-2.27-8.99L838.95,166h10.03v87.01H837.6V176.98z"/>
			<path class="st3" d="M906.26,176.98h-0.27l-15.12,8.17l-2.27-8.99L907.61,166h10.03v87.01h-11.38V176.98z"/>
			<path class="st3" d="M1007.2,208.56c0,29.59-10.98,45.93-30.26,45.93c-17.01,0-28.51-15.94-28.78-44.71
				c0-29.19,12.58-45.25,30.26-45.25C996.76,164.53,1007.2,180.87,1007.2,208.56z M959.94,209.92c0,22.61,6.96,35.46,17.67,35.46
				c12.04,0,17.8-14.04,17.8-36.28c0-21.42-5.49-35.46-17.68-35.46C967.44,173.64,959.94,186.2,959.94,209.92z"/>
		</g>
		<g>
			<path class="st3" d="M219.57,312.7h-0.27l-15.12,8.17l-2.27-8.99l19.01-10.16h10.03v87.01h-11.38V312.7z"/>
			<path class="st3" d="M288.22,312.7h-0.27l-15.12,8.17l-2.27-8.99l19.01-10.16h10.03v87.01h-11.38V312.7z"/>
			<path class="st3" d="M389.17,344.28c0,29.59-10.98,45.93-30.26,45.93c-17.01,0-28.51-15.94-28.78-44.71
				c0-29.19,12.58-45.25,30.26-45.25C378.73,300.24,389.17,316.58,389.17,344.28z M341.9,345.64c0,22.61,6.97,35.46,17.68,35.46
				c12.04,0,17.8-14.04,17.8-36.29c0-21.42-5.49-35.46-17.68-35.46C349.41,309.35,341.9,321.92,341.9,345.64z"/>
			<path class="st3" d="M425.57,312.7h-0.27l-15.12,8.17l-2.27-8.99l19.01-10.16h10.03v87.01h-11.38V312.7z"/>
			<path class="st3" d="M526.51,344.28c0,29.59-10.98,45.93-30.26,45.93c-17.01,0-28.51-15.94-28.78-44.71
				c0-29.19,12.58-45.25,30.26-45.25C516.07,300.24,526.51,316.58,526.51,344.28z M479.25,345.64c0,22.61,6.97,35.46,17.68,35.46
				c12.04,0,17.8-14.04,17.8-36.29c0-21.42-5.49-35.46-17.68-35.46C486.75,309.35,479.25,321.92,479.25,345.64z"/>
			<path class="st3" d="M562.91,312.7h-0.27l-15.12,8.17l-2.27-8.99l19.01-10.16h10.03v87.01h-11.38V312.7z"/>
			<path class="st3" d="M663.86,344.28c0,29.59-10.98,45.93-30.26,45.93c-17.01,0-28.51-15.94-28.78-44.71
				c0-29.19,12.58-45.25,30.26-45.25C653.42,300.24,663.86,316.58,663.86,344.28z M616.59,345.64c0,22.61,6.96,35.46,17.68,35.46
				c12.04,0,17.8-14.04,17.8-36.29c0-21.42-5.49-35.46-17.68-35.46C624.09,309.35,616.59,321.92,616.59,345.64z"/>
			<path class="st3" d="M700.26,312.7h-0.27l-15.12,8.17l-2.27-8.99l19.01-10.16h10.03v87.01h-11.38V312.7z"/>
			<path class="st3" d="M801.2,344.28c0,29.59-10.98,45.93-30.26,45.93c-17.01,0-28.51-15.94-28.78-44.71
				c0-29.19,12.58-45.25,30.26-45.25C790.76,300.24,801.2,316.58,801.2,344.28z M753.93,345.64c0,22.61,6.96,35.46,17.67,35.46
				c12.04,0,17.8-14.04,17.8-36.29c0-21.42-5.49-35.46-17.68-35.46C761.44,309.35,753.93,321.92,753.93,345.64z"/>
			<path class="st3" d="M837.6,312.7h-0.27l-15.12,8.17l-2.27-8.99l19.01-10.16h10.03v87.01H837.6V312.7z"/>
			<path class="st3" d="M938.53,344.28c0,29.59-10.98,45.93-30.26,45.93c-17.01,0-28.51-15.94-28.78-44.71
				c0-29.19,12.58-45.25,30.26-45.25C928.09,300.24,938.53,316.58,938.53,344.28z M891.26,345.64c0,22.61,6.97,35.46,17.68,35.46
				c12.04,0,17.8-14.04,17.8-36.29c0-21.42-5.49-35.46-17.68-35.46C898.77,309.35,891.26,321.92,891.26,345.64z"/>
			<path class="st3" d="M1007.2,344.28c0,29.59-10.98,45.93-30.26,45.93c-17.01,0-28.51-15.94-28.78-44.71
				c0-29.19,12.58-45.25,30.26-45.25C996.76,300.24,1007.2,316.58,1007.2,344.28z M959.94,345.64c0,22.61,6.96,35.46,17.67,35.46
				c12.04,0,17.8-14.04,17.8-36.29c0-21.42-5.49-35.46-17.68-35.46C967.44,309.35,959.94,321.92,959.94,345.64z"/>
		</g>
		<g>
			<path class="st3" d="M251.84,479.99c0,29.59-10.98,45.93-30.26,45.93c-17.01,0-28.51-15.94-28.78-44.71
				c0-29.19,12.58-45.25,30.26-45.25C241.4,435.96,251.84,452.3,251.84,479.99z M204.57,481.35c0,22.61,6.96,35.46,17.68,35.46
				c12.04,0,17.8-14.04,17.8-36.28c0-21.42-5.49-35.46-17.68-35.46C212.08,445.06,204.57,457.63,204.57,481.35z"/>
			<path class="st3" d="M288.22,448.41h-0.27l-15.12,8.17l-2.27-8.99l19.01-10.16h10.03v87.01h-11.38V448.41z"/>
			<path class="st3" d="M356.9,448.41h-0.27l-15.12,8.17l-2.28-8.99l19.02-10.16h10.03v87.01H356.9V448.41z"/>
			<path class="st3" d="M425.57,448.41h-0.27l-15.12,8.17l-2.27-8.99l19.01-10.16h10.03v87.01h-11.38V448.41z"/>
			<path class="st3" d="M494.24,448.41h-0.27l-15.12,8.17l-2.28-8.99l19.02-10.16h10.03v87.01h-11.38V448.41z"/>
			<path class="st3" d="M595.18,479.99c0,29.59-10.98,45.93-30.26,45.93c-17.01,0-28.51-15.94-28.78-44.71
				c0-29.19,12.58-45.25,30.26-45.25C584.74,435.96,595.18,452.3,595.18,479.99z M547.92,481.35c0,22.61,6.97,35.46,17.68,35.46
				c12.04,0,17.8-14.04,17.8-36.28c0-21.42-5.49-35.46-17.68-35.46C555.42,445.06,547.92,457.63,547.92,481.35z"/>
			<path class="st3" d="M663.86,479.99c0,29.59-10.98,45.93-30.26,45.93c-17.01,0-28.51-15.94-28.78-44.71
				c0-29.19,12.58-45.25,30.26-45.25C653.42,435.96,663.86,452.3,663.86,479.99z M616.59,481.35c0,22.61,6.96,35.46,17.68,35.46
				c12.04,0,17.8-14.04,17.8-36.28c0-21.42-5.49-35.46-17.68-35.46C624.09,445.06,616.59,457.63,616.59,481.35z"/>
			<path class="st3" d="M732.53,479.99c0,29.59-10.98,45.93-30.26,45.93c-17.01,0-28.51-15.94-28.78-44.71
				c0-29.19,12.58-45.25,30.26-45.25C722.09,435.96,732.53,452.3,732.53,479.99z M685.26,481.35c0,22.61,6.96,35.46,17.68,35.46
				c12.04,0,17.8-14.04,17.8-36.28c0-21.42-5.49-35.46-17.68-35.46C692.77,445.06,685.26,457.63,685.26,481.35z"/>
			<path class="st3" d="M801.2,479.99c0,29.59-10.98,45.93-30.26,45.93c-17.01,0-28.51-15.94-28.78-44.71
				c0-29.19,12.58-45.25,30.26-45.25C790.76,435.96,801.2,452.3,801.2,479.99z M753.93,481.35c0,22.61,6.96,35.46,17.67,35.46
				c12.04,0,17.8-14.04,17.8-36.28c0-21.42-5.49-35.46-17.68-35.46C761.44,445.06,753.93,457.63,753.93,481.35z"/>
			<path class="st3" d="M837.6,448.41h-0.27l-15.12,8.17l-2.27-8.99l19.01-10.16h10.03v87.01H837.6V448.41z"/>
			<path class="st3" d="M938.53,479.99c0,29.59-10.98,45.93-30.26,45.93c-17.01,0-28.51-15.94-28.78-44.71
				c0-29.19,12.58-45.25,30.26-45.25C928.09,435.96,938.53,452.3,938.53,479.99z M891.26,481.35c0,22.61,6.97,35.46,17.68,35.46
				c12.04,0,17.8-14.04,17.8-36.28c0-21.42-5.49-35.46-17.68-35.46C898.77,445.06,891.26,457.63,891.26,481.35z"/>
			<path class="st3" d="M974.93,448.41h-0.27l-15.12,8.17l-2.28-8.99l19.02-10.16h10.03v87.01h-11.38V448.41z"/>
		</g>
	</g>
	<path class="st2" d="M629.92,705.51c0,16.53-13.4,29.92-29.92,29.92c-16.52,0-29.92-13.4-29.92-29.92
		c0-16.52,13.4-29.92,29.92-29.92C616.52,675.59,629.92,688.99,629.92,705.51z"/>
</g>
</svg>
