<?xml version="1.0" encoding="utf-8"?>
<!-- Generator: Adobe Illustrator 24.0.1, SVG Export Plug-In . SVG Version: 6.00 Build 0)  -->
<svg version="1.1" id="_x31_6" xmlns="http://www.w3.org/2000/svg" xmlns:xlink="http://www.w3.org/1999/xlink" x="0px" y="0px"
	 viewBox="0 0 1000 800" style="enable-background:new 0 0 1000 800;" xml:space="preserve">
<style type="text/css">
	.Graphic_x0020_Style_x0020_263{fill:#5FC7B1;}
	.st0{fill:#9DDDCF;}
	.st1{fill:#76CFBC;}
	.st2{fill:#545454;}
	.st3{fill:#636363;}
	.st4{fill:#FFFFFF;}
	.st5{fill:#FF6654;}
	.st6{fill:#FF4D38;}
	.st7{fill:#F7D7C7;}
	.st8{fill:#FFE62B;}
	.st9{fill:#424242;}
	.st10{fill:#373737;}
	.st11{fill:#FFE629;}
	.st12{fill:#4D4D4D;}
	.st13{fill:#ECECEC;}
	.st14{fill:#D3D3D3;}
	.st15{fill:#DCDCDC;}
	.st16{fill:#878787;}
</style>
<g>
	
		<rect x="683.8" y="68.3" transform="matrix(0.9536 0.3012 -0.3012 0.9536 70.7938 -203.1104)" class="st0" width="20.5" height="119.4"/>
	
		<rect x="683.8" y="68.3" transform="matrix(0.4613 0.8873 -0.8873 0.4613 487.454 -546.8027)" class="st0" width="20.5" height="119.4"/>
	
		<rect x="683.8" y="68.3" transform="matrix(-0.3012 0.9536 -0.9536 -0.3012 1025.1104 -495.2061)" class="st0" width="20.5" height="119.4"/>
	
		<rect x="683.8" y="68.3" transform="matrix(-0.8873 0.4613 -0.4613 -0.8873 1368.8027 -78.546)" class="st0" width="20.5" height="119.4"/>
	<ellipse transform="matrix(0.7071 -0.7071 0.7071 0.7071 112.7582 528.2224)" class="st0" cx="694" cy="128" rx="51.2" ry="51.2"/>
	<circle class="st1" cx="694" cy="128" r="34.1"/>
</g>
<g>
	
		<rect x="751.4" y="218.6" transform="matrix(0.9588 -0.2842 0.2842 0.9588 -53.1469 229.7021)" class="st0" width="27.2" height="158.8"/>
	
		<rect x="751.4" y="218.6" transform="matrix(0.8789 0.477 -0.477 0.8789 234.7768 -328.8113)" class="st0" width="27.2" height="158.8"/>
	
		<rect x="751.4" y="218.6" transform="matrix(0.2842 0.9588 -0.9588 0.2842 833.2979 -520.1469)" class="st0" width="27.2" height="158.8"/>
	
		<rect x="751.4" y="218.6" transform="matrix(-0.477 0.8789 -0.8789 -0.477 1391.8113 -232.2232)" class="st0" width="27.2" height="158.8"/>
	<ellipse transform="matrix(0.477 -0.8789 0.8789 0.477 138.1889 828.2234)" class="st0" cx="765" cy="298" rx="68.1" ry="68.1"/>
	<circle class="st1" cx="765" cy="298" r="45.4"/>
</g>
<g>
	
		<rect x="143" y="521.8" transform="matrix(0.9536 0.3012 -0.3012 0.9536 182.2766 -19.1623)" class="st0" width="20.5" height="119.4"/>
	
		<rect x="143" y="521.8" transform="matrix(0.4613 0.8873 -0.8873 0.4613 598.4982 177.269)" class="st0" width="20.5" height="119.4"/>
	
		<rect x="143" y="521.8" transform="matrix(-0.3012 0.9536 -0.9536 -0.3012 753.9125 610.4777)" class="st0" width="20.5" height="119.4"/>
	
		<rect x="143" y="521.8" transform="matrix(-0.8873 0.4613 -0.4613 -0.8873 557.4802 1026.7001)" class="st0" width="20.5" height="119.4"/>
	
		<ellipse transform="matrix(0.502 -0.8649 0.8649 0.502 -426.5648 422.1228)" class="st0" cx="153.3" cy="581.5" rx="51.2" ry="51.2"/>
	
		<ellipse transform="matrix(0.9688 -0.2477 0.2477 0.9688 -139.2697 56.095)" class="st1" cx="153.3" cy="581.5" rx="34.1" ry="34.1"/>
</g>
<g>
	
		<rect x="812" y="466" transform="matrix(0.9536 0.3012 -0.3012 0.9536 196.5558 -223.2672)" class="st0" width="20.5" height="119.4"/>
	
		<rect x="812" y="466" transform="matrix(0.4613 0.8873 -0.8873 0.4613 909.4359 -446.3267)" class="st0" width="20.5" height="119.4"/>
	
		<rect x="812" y="466" transform="matrix(-0.3012 0.9536 -0.9536 -0.3012 1571.2479 -99.9678)" class="st0" width="20.5" height="119.4"/>
	
		<rect x="812" y="466" transform="matrix(-0.8873 0.4613 -0.4613 -0.8873 1794.3043 612.9111)" class="st0" width="20.5" height="119.4"/>
	
		<ellipse transform="matrix(0.7071 -0.7071 0.7071 0.7071 -130.9118 735.4017)" class="st0" cx="822.3" cy="525.7" rx="51.2" ry="51.2"/>
	
		<ellipse transform="matrix(0.5155 -0.8569 0.8569 0.5155 -52.1053 959.2977)" class="st1" cx="822.3" cy="525.7" rx="34.1" ry="34.1"/>
</g>
<g>
	
		<rect x="272" y="361.7" transform="matrix(0.9588 -0.2842 0.2842 0.9588 -119.0993 101.1431)" class="st0" width="34" height="198.5"/>
	<rect x="272" y="361.7" transform="matrix(0.8789 0.477 -0.477 0.8789 254.8867 -82.027)" class="st0" width="34" height="198.5"/>
	
		<rect x="272" y="361.7" transform="matrix(0.2842 0.9588 -0.9588 0.2842 648.8569 52.9007)" class="st0" width="34" height="198.5"/>
	
		<rect x="272" y="361.7" transform="matrix(-0.477 0.8789 -0.8789 -0.477 832.027 426.8867)" class="st0" width="34" height="198.5"/>
	
		<ellipse transform="matrix(0.7071 -0.7071 0.7071 0.7071 -241.3301 339.3776)" class="st0" cx="289" cy="461" rx="85.1" ry="85.1"/>
	
		<ellipse transform="matrix(0.7071 -0.7071 0.7071 0.7071 -241.3301 339.3776)" class="st1" cx="289" cy="461" rx="56.7" ry="56.7"/>
</g>
<g>
	<g>
		<path class="st0" d="M304,267h-82v-3c0-3.9-1.8-7.2-4.9-8.9C186.8,238.4,168,206.5,168,172c0-52.4,42.6-95,95-95s95,42.6,95,95
			c0,34.5-18.8,66.4-49.1,83.1c-3.1,1.7-4.9,5-4.9,8.9V267z M227.8,261h70.5c0.8-4.8,3.6-8.8,7.7-11.1c28.4-15.7,46-45.5,46-77.9
			c0-49.1-39.9-89-89-89s-89,39.9-89,89c0,32.3,17.6,62.2,46,77.9C224.2,252.2,226.9,256.2,227.8,261z"/>
	</g>
	<g>
		<path class="st0" d="M271.5,315h-19c-6.3,0-11.5-5.2-11.5-11.5V293h42v10.5C283,309.8,277.8,315,271.5,315z M247,299v4.5
			c0,3,2.5,5.5,5.5,5.5h19c3,0,5.5-2.5,5.5-5.5V299H247z"/>
	</g>
	<g>
		<path class="st0" d="M284,299h-42c-11,0-20-9-20-20v-18h82v18C304,290,295,299,284,299z M228,267v12c0,7.7,6.3,14,14,14h42
			c7.7,0,14-6.3,14-14v-12H228z"/>
	</g>
	<g>
		<g>
			<path class="st0" d="M294,191h-12c-1.7,0-3-1.3-3-3v-12c0-8.3,6.7-15,15-15s15,6.7,15,15S302.3,191,294,191z M285,185h9
				c5,0,9-4,9-9s-4-9-9-9s-9,4-9,9V185z"/>
		</g>
		<g>
			<path class="st0" d="M242,191h-12c-8.3,0-15-6.7-15-15s6.7-15,15-15s15,6.7,15,15v12C245,189.7,243.7,191,242,191z M230,167
				c-5,0-9,4-9,9s4,9,9,9h9v-9C239,171,235,167,230,167z"/>
		</g>
		<g>
			<path class="st0" d="M282,267h-40c-1.7,0-3-1.3-3-3v-76c0-1.7,1.3-3,3-3h40c1.7,0,3,1.3,3,3v76C285,265.7,283.7,267,282,267z
				 M245,261h34v-70h-34V261z"/>
		</g>
	</g>
	<g>
		<path class="st0" d="M309,278h-92c-1.7,0-3-1.3-3-3s1.3-3,3-3h92c1.7,0,3,1.3,3,3S310.7,278,309,278z"/>
	</g>
	<g>
		<path class="st0" d="M309,288h-92c-1.7,0-3-1.3-3-3s1.3-3,3-3h92c1.7,0,3,1.3,3,3S310.7,288,309,288z"/>
	</g>
	<g>
		<path class="st0" d="M329,177c-1.7,0-3-1.3-3-3c0-34.7-28.3-63-63-63c-1.7,0-3-1.3-3-3s1.3-3,3-3c38,0,69,31,69,69
			C332,175.7,330.7,177,329,177z"/>
	</g>
</g>
<ellipse class="Graphic_x0020_Style_x0020_263" cx="510" cy="673" rx="266" ry="50"/>
<g>
	<g>
		<path class="st2" d="M721.3,512.1L590.8,402.5c-7.1-6-17.8-5-23.8,2.2l0,0c-6,7.2-5.2,17.9,1.9,23.8l130.5,109.5
			c7.1,6,17.8,5,23.8-2.2l0,0C729.3,528.7,728.5,518,721.3,512.1z"/>
	</g>
	<path class="st2" d="M609,444.6c0-31.8-25.8-57.6-57.6-57.6H513v168h96V444.6z"/>
	<path class="st3" d="M474.6,387c-31.8,0-57.6,25.8-57.6,57.6l0,110.4h96V387H474.6z"/>
	<polygon class="st4" points="513,459.4 513,459.4 542,387.4 484,387.4 	"/>
	<polygon class="st5" points="505.2,411.4 520.8,411.4 527,387.4 499,387.4 	"/>
	<polygon class="st6" points="513,459.4 524,431.4 520.9,411.4 505.1,411.4 502,431.4 	"/>
	<ellipse transform="matrix(0.1381 -0.9904 0.9904 0.1381 94.6629 1170.7842)" class="st7" cx="720" cy="531" rx="22" ry="22"/>
	<circle class="st8" cx="513" cy="256" r="125"/>
	<g>
		<circle class="st7" cx="411" cy="307" r="26"/>
		<circle class="st7" cx="615" cy="307" r="26"/>
	</g>
	<g>
		<polygon class="st9" points="463,402.8 472.8,387.4 484.4,387.4 513,459.4 471.5,438.8 481.3,423.4 		"/>
		<polygon class="st9" points="563,402.8 553.2,387.4 541.6,387.4 513,459.4 554.5,438.8 544.7,423.4 		"/>
	</g>
	<circle class="st7" cx="512" cy="285" r="110"/>
	<g>
		<circle class="st10" cx="460" cy="305" r="12"/>
		<circle class="st10" cx="566" cy="305" r="12"/>
	</g>
	<path class="st6" d="M532,349c0,11-9,20-20,20c-11,0-20-9-20-20H532z"/>
	<path class="st11" d="M633,251.6H465c-39.8,0-72-32.2-72-72v-48h120C579.3,131.6,633,185.3,633,251.6L633,251.6z"/>
	<g>
		<circle class="st2" cx="495" cy="477" r="8"/>
		<circle class="st2" cx="495" cy="517" r="8"/>
	</g>
	<path class="st9" d="M361,611h304c15.5,0,28-12.5,28-28l0,0c0-15.5-12.5-28-28-28H361c-15.5,0-28,12.5-28,28l0,0
		C333,598.5,345.5,611,361,611z"/>
	<path class="st12" d="M524.7,612.8l-19.2,52.6l-154.1-56.1c-14.5-5.3-22-21.4-16.7-35.9v0c5.3-14.5,21.4-22,35.9-16.7L524.7,612.8z
		"/>
	<path class="st7" d="M597.8,669.2L597.8,669.2c-4.6,12.6-18.3,19.4-31.1,15.4l-61.2-19.2l19.2-52.6l59.2,24.6
		C596.3,642.6,602.4,656.6,597.8,669.2z"/>
	<polygon class="st4" points="540.4,619.3 529.3,614.7 510.3,666.9 521.8,670.5 	"/>
	<path class="st10" d="M583.9,637.4l-43.6-18.2c-12.2,15.3-18.7,32.3-18.7,51.2l45.1,14.1c12.8,4,26.5-2.8,31.1-15.4
		C602.4,656.6,596.3,642.6,583.9,637.4z"/>
	<g>
		<path class="st2" d="M501.3,612.8l19.2,52.6l154.1-56.1c14.5-5.3,22-21.4,16.7-35.9v0c-5.3-14.5-21.4-22-35.9-16.7L501.3,612.8z"
			/>
		<path class="st4" d="M428.2,669.2L428.2,669.2c4.6,12.6,18.3,19.4,31.1,15.4l61.2-19.2l-19.2-52.6l-59.2,24.6
			C429.7,642.6,423.6,656.6,428.2,669.2z"/>
		<path class="st10" d="M442.1,637.4l43.6-18.2c12.2,15.3,18.7,32.3,18.7,51.2l-45.1,14.1c-12.8,4-26.5-2.8-31.1-15.4
			C423.6,656.6,429.7,642.6,442.1,637.4z"/>
	</g>
	<g>
		<path class="st13" d="M717,544H549c-6.6,0-12-5.4-12-12l20-104c0-6.6,5.4-12,12-12h168c6.6,0,12,5.4,12,12l-20,104
			C729,538.6,723.6,544,717,544z"/>
		<rect x="545" y="544" class="st14" width="176" height="12"/>
		<path class="st15" d="M440,556h105v-12H440c-1.7,0-3,1.3-3,3v6C437,554.7,438.3,556,440,556z"/>
		<path class="st16" d="M465,540h-8c-1.1,0-2,0.9-2,2v2h12v-2C467,540.9,466.1,540,465,540z"/>
		<path class="st16" d="M483,540h-8c-1.1,0-2,0.9-2,2v2h12v-2C485,540.9,484.1,540,483,540z"/>
		<path class="st16" d="M501,540h-8c-1.1,0-2,0.9-2,2v2h12v-2C503,540.9,502.1,540,501,540z"/>
		<path class="st16" d="M519,540h-8c-1.1,0-2,0.9-2,2v2h12v-2C521,540.9,520.1,540,519,540z"/>
		<circle class="st4" cx="643" cy="480" r="30"/>
	</g>
	<path class="st3" d="M490,550H348c-9.4,0-17-7.6-17-17l0,0c0-9.4,7.6-17,17-17h142c9.4,0,17,7.6,17,17l0,0
		C507,542.4,499.4,550,490,550z"/>
	<path class="st3" d="M335,522.1l99-118c6-7.2,16.8-8.1,24-2.1l0,0c7.2,6,8.1,16.8,2.1,24l-99,118c-6,7.2-16.8,8.1-24,2.1v0
		C329.9,540,329,529.3,335,522.1z"/>
	<circle class="st7" cx="492" cy="534" r="22"/>
</g>
</svg>
