<?xml version="1.0" encoding="utf-8"?>
<!-- Generator: Adobe Illustrator 24.0.1, SVG Export Plug-In . SVG Version: 6.00 Build 0)  -->
<svg version="1.1" id="_x32_0" xmlns="http://www.w3.org/2000/svg" xmlns:xlink="http://www.w3.org/1999/xlink" x="0px" y="0px"
	 viewBox="0 0 1000 800" style="enable-background:new 0 0 1000 800;" xml:space="preserve">
<style type="text/css">
	.st0{fill:#7DA2FF;}
	.st1{fill:#FF4C38;}
	.st2{fill:#F7D7C7;}
	.st3{fill:#FFE629;}
	.st4{fill:#373737;}
	.st5{fill:#524A41;}
	.st6{fill:#828282;}
	.st7{fill:#636363;}
	.st8{fill:#969696;}
</style>
<g>
	<path class="st0" d="M423.5,348c-13.4,0-24.2,10.4-24.2,23.2v146.4H593V348H423.5z"/>
	<polygon class="st1" points="484,382 508.3,382 517.9,348 474.3,348 	"/>
	<polygon class="st1" points="484,382 508.3,382 517.9,493.4 496.1,507.9 474.3,493.4 	"/>
	<path class="st0" d="M436.2,361.3c-1.9-9.8-11.8-15.4-21-12.5l-0.6,0.2c-64.3,20.7-99.7,89.7-79,154v0c2.6,7.9,10.6,13.2,18.7,11.6
		c9.7-1.9,15.3-11.8,12.4-20.9l-0.2-0.6c-15.2-47.2,10.7-97.9,58-113.1l0.1,0C432.5,377.4,437.7,369.4,436.2,361.3z"/>
	
		<ellipse transform="matrix(0.289 -0.9573 0.9573 0.289 -227.789 690.9005)" class="st2" cx="351.2" cy="498.8" rx="21.8" ry="21.8"/>
	
		<rect x="534.2" y="260.6" transform="matrix(0.6595 -0.7517 0.7517 0.6595 14.4988 585.8306)" class="st0" width="239.5" height="32.7"/>
	
		<ellipse transform="matrix(0.7071 -0.7071 0.7071 0.7071 -6.5644 413.7351)" class="st3" cx="496.1" cy="214.8" rx="126" ry="126"/>
	<ellipse transform="matrix(0.2298 -0.9732 0.9732 0.2298 42.1721 587.043)" class="st2" cx="392" cy="266.9" rx="26.6" ry="26.6"/>
	
		<ellipse transform="matrix(0.7071 -0.7071 0.7071 0.7071 -12.8835 502.6527)" class="st2" cx="600.3" cy="266.9" rx="26.6" ry="26.6"/>
	
		<ellipse transform="matrix(0.7071 -0.7071 0.7071 0.7071 -27.1212 422.25)" class="st2" cx="496.1" cy="243.9" rx="111.4" ry="111.4"/>
	<path class="st4" d="M428.3,265.8c0-8,6.5-14.5,14.5-14.5s14.5,6.5,14.5,14.5"/>
	<path class="st4" d="M534.9,265.8c0-8,6.5-14.5,14.5-14.5c8,0,14.5,6.5,14.5,14.5"/>
	<path class="st3" d="M617.3,209.9H447c-39.8,0-72-32.2-72-72V88.8h142.3c55.2,0,100,44.8,100,100V209.9z"/>
	<rect x="415" y="549.1" class="st5" width="53.3" height="193.8"/>
	<path class="st4" d="M468.3,772l-72.7,0v-13.1c0-8.8,7.2-16,16-16l56.7,0V772z"/>
	
		<rect x="524" y="549.1" transform="matrix(-1 -1.224647e-16 1.224647e-16 -1 1101.2997 1292.0449)" class="st5" width="53.3" height="193.8"/>
	<path class="st4" d="M524,772l72.7,0l0-13.1c0-8.8-7.2-16-16-16l-56.7,0V772z"/>
	<path class="st5" d="M471.9,590.3h48.5c40.1,0,72.7-32.5,72.7-72.7l0,0H399.2l0,0C399.2,557.8,431.8,590.3,471.9,590.3z"/>
	<path class="st6" d="M727.5,270.7L620.7,118.1c-18.7,2.8-38.3-4.8-49.9-21.3c-13.2-18.9-12-43.6,1.4-60.9l12.2,32.7
		c1.9,5,7.5,7.6,12.6,5.7l28-10.5c5-1.9,7.6-7.5,5.7-12.6l-13.1-35.1C632.2,17.5,646,25,655,37.8c11.6,16.6,12.1,37.6,3,54.2
		l106.9,152.6c18.7-2.8,38.3,4.8,49.9,21.3c9,12.9,11.3,28.4,7.6,42.5l-28.5-24.3c-4.1-3.5-10.3-3-13.8,1.1L760.7,308
		c-3.5,4.1-3,10.3,1.1,13.8l26.5,22.6c-20.9,6.7-44.5-0.6-57.8-19.5C718.9,308.3,718.5,287.3,727.5,270.7z"/>
	<g>
		<path class="st7" d="M784.3,282.2c3.5-4.1,9.7-4.6,13.8-1.1l25.4,21.6c-0.3,1.9-0.7,3.8-1.1,5.6l-28.5-24.3
			c-2.8-2.3-6.4-2.9-9.6-1.8L784.3,282.2z"/>
		<path class="st7" d="M635,48.2c1.9,5-0.7,10.7-5.7,12.6l-0.2,0.1c2.1-2.6,2.9-6.2,1.6-9.6l-13.1-35.1c1.9,0.2,3.8,0.5,5.7,0.9
			L635,48.2z"/>
		<path class="st7" d="M727.5,270.7L620.7,118.1c-18.7,2.8-38.3-4.8-49.9-21.3c-13.2-18.9-12-43.6,1.4-60.9l0.8,2.1
			c-10.1,16.9-10,38.7,2,55.8c11.6,16.6,31.2,24.2,49.9,21.3l106.9,152.6c-9.1,16.6-8.6,37.6,3,54.2c12,17.1,32.5,24.7,51.8,21
			l1.7,1.5c-20.9,6.7-44.5-0.6-57.8-19.5C718.9,308.3,718.5,287.3,727.5,270.7z"/>
	</g>
	<g>
		<path class="st8" d="M597,74.2l28-10.5c0.3-0.1,0.5-0.2,0.8-0.3c-1,0.9-2.1,1.7-3.4,2.2l-28,10.5c-5,1.9-10.7-0.7-12.6-5.7
			L570,38.9c0.7-1.1,1.4-2.1,2.2-3.1l12.2,32.7C586.3,73.5,591.9,76.1,597,74.2z"/>
		<path class="st8" d="M812,267.8c-11.6-16.6-31.2-24.2-49.9-21.3L655.3,93.8c9.1-16.6,8.6-37.6-3-54.2
			c-8.3-11.8-20.6-19.1-33.8-21.2l-0.9-2.3C632.2,17.5,646,25,655,37.8c11.6,16.6,12.1,37.6,3,54.2l106.9,152.6
			c18.7-2.8,38.3,4.8,49.9,21.3c9,12.9,11.3,28.4,7.6,42.5l-1.9-1.6C822.9,293.7,820.3,279.6,812,267.8z"/>
		<path class="st8" d="M788.3,344.3c-1.2,0.4-2.4,0.7-3.7,1l-25.5-21.8c-4.1-3.5-4.6-9.7-1.1-13.8l19.4-22.8c0.9-1.1,2-1.9,3.2-2.5
			c-0.2,0.2-0.4,0.4-0.6,0.6L760.7,308c-3.5,4.1-3,10.3,1.1,13.8L788.3,344.3z"/>
	</g>
	<path class="st8" d="M736,243.2L736,243.2c3.5-2.5,4.4-7.3,1.9-10.9l-79.9-114c-2.5-3.5-7.3-4.4-10.9-1.9l0,0
		c-3.5,2.5-4.4,7.3-1.9,10.9l79.9,114C727.6,244.8,732.5,245.6,736,243.2z"/>
	<path class="st2" d="M753.2,186.5c0.8,12-8.3,22.4-20.3,23.2c-12,0.8-22.4-8.3-23.2-20.3c-0.8-12,8.3-22.4,20.3-23.2
		C742.1,165.3,752.4,174.4,753.2,186.5z"/>
</g>
</svg>
